<svg width="26" height="25" viewBox="0 0 26 25" fill="none" xmlns="http://www.w3.org/2000/svg">
<g opacity="0.5">
<path d="M13 1.80338C19.136 1.80338 24.154 6.51111 24.154 12.3222C24.154 18.1333 19.136 22.8411 13 22.8411C6.864 22.8411 1.846 18.1088 1.846 12.3222C1.846 6.53563 6.864 1.80338 13 1.80338ZM13 0.0625C5.824 0.0625 0 5.55485 0 12.3222C0 19.0896 5.824 24.5819 13 24.5819C20.176 24.5819 26 19.0896 26 12.3222C26 5.55485 20.176 0.0625 13 0.0625Z" fill="white"/>
<path d="M18.902 11.5623L10.192 6.83006C9.90596 6.68295 9.54196 6.68295 9.28196 6.83006C8.99596 6.97718 8.81396 7.27141 8.81396 7.59017V17.0792C8.81396 17.3979 8.99596 17.6677 9.28196 17.8393C9.41196 17.9128 9.59396 17.9619 9.74996 17.9619C9.90596 17.9619 10.062 17.9128 10.218 17.8393L18.928 13.107C19.214 12.9599 19.396 12.6657 19.396 12.3469C19.37 12.0037 19.188 11.7339 18.902 11.5623Z" fill="white"/>
</g>
</svg>
