<svg width="15" height="17" viewBox="0 0 15 17" fill="none" xmlns="http://www.w3.org/2000/svg">
<g clip-path="url(#clip0)">
<path fill-rule="evenodd" clip-rule="evenodd" d="M8.44846 1.26497V8.65651C8.44846 10.3431 6.55154 10.3431 6.55154 8.65651V1.26497C6.55154 -0.421657 8.44846 -0.421657 8.44846 1.26497ZM7.5 17.0001C11.6424 17.0001 15 13.5707 15 9.33976C15 6.45983 13.4434 3.95139 11.143 2.64342C11.0389 2.5813 10.9828 2.604 10.9044 2.80109L10.4471 3.95259C10.3618 4.16759 10.3781 4.20701 10.5126 4.29541C12.1757 5.33342 13.2855 7.204 13.2855 9.34095C13.2855 12.6043 10.6951 15.2501 7.5 15.2501C4.30493 15.2501 1.71449 12.6043 1.71449 9.34095C1.71449 7.2052 2.82434 5.33342 4.48737 4.29541C4.61368 4.2321 4.65578 4.19268 4.5669 3.96931L4.09676 2.77959C4.02308 2.59444 3.97279 2.58847 3.84531 2.65178C1.55076 3.96095 0 6.46461 0 9.33976C0 13.5695 3.35763 17.0001 7.5 17.0001Z" fill="white" fill-opacity="0.7"/>
</g>
<defs>
<clipPath id="clip0">
<rect width="15" height="17.0001" fill="white"/>
</clipPath>
</defs>
</svg>
