<svg width="23" height="15" viewBox="0 0 23 15" fill="none" xmlns="http://www.w3.org/2000/svg">
<path d="M11.5043 6.75157L18.326 13.7096C19.3955 14.8004 21.1298 14.8004 22.1993 13.7096C23.2688 12.6187 23.2688 10.8497 22.1993 9.75884L13.441 0.825491C12.9207 0.294797 12.227 -3.41865e-05 11.5043 -3.41951e-05C10.7817 -3.42037e-05 10.088 0.294797 9.56768 0.825491L0.80935 9.75589C0.260148 10.3161 4.17854e-08 11.0237 3.33475e-08 11.7312C2.49095e-08 12.4388 0.289054 13.1464 0.80935 13.7066C1.87885 14.7975 3.61317 14.7975 4.68267 13.7066L11.5043 6.75157Z" fill="white"/>
</svg>
