<svg width="47" height="69" viewBox="0 0 47 69" fill="none" xmlns="http://www.w3.org/2000/svg">
<path d="M9.4664 39.0417H35.6272C38.6863 39.0417 40.8104 38.6045 43.1342 36.5895C45.7303 34.3174 46.0026 31.951 46.0026 28.8043V10.8416C46.0026 7.68632 45.7212 5.32844 43.1342 3.05631C40.8195 1.0414 38.6863 0.604126 35.6272 0.604126H4.83696C2.43147 0.604126 0.20752 1.83022 0.20752 4.97691C0.20752 8.12359 2.43147 9.34969 4.83696 9.34969H36.7437V30.2962H10.6737C3.72953 30.2962 0.20752 33.6229 0.20752 40.1821V68.7338H41.3732C43.7787 68.7338 46.0026 67.5077 46.0026 64.361C46.0026 61.2143 43.7787 59.9882 41.3732 59.9882H9.4664V39.0417Z" fill="#F9B000"/>
</svg>
