<svg width="47" height="69" viewBox="0 0 47 69" fill="none" xmlns="http://www.w3.org/2000/svg">
<path d="M37.4327 9.34969V23.8999C37.4327 28.8043 35.3903 30.2962 32.7942 30.2962H14.6214C12.2068 30.2962 9.9829 31.5223 9.9829 34.6689C9.9829 37.8156 12.2068 39.0417 14.6214 39.0417H32.7942C35.3903 39.0417 37.4327 40.5336 37.4327 45.438V59.9882H5.53501C3.12044 59.9882 0.896484 61.2143 0.896484 64.361C0.896484 67.5077 3.12044 68.7338 5.53501 68.7338H37.4327C42.7067 68.7338 46.6916 64.9697 46.6916 59.9882V43.1659C46.6916 39.6591 45.9473 37.1211 43.0788 34.6689C45.9473 32.2168 46.6916 29.6788 46.6916 26.1806V9.34969C46.6916 4.36815 42.7067 0.604126 37.4327 0.604126H5.53501C3.12044 0.604126 0.896484 1.83022 0.896484 4.97691C0.896484 8.12359 3.12044 9.34969 5.53501 9.34969H37.4327Z" fill="#F9B000"/>
</svg>
