<svg width="42" height="69" viewBox="0 0 42 69" fill="none" xmlns="http://www.w3.org/2000/svg">
<path d="M9.46592 37.7385V4.98548C9.46592 2.79909 8.35848 0.604126 4.83648 0.604126C1.31447 0.604126 0.207031 2.79052 0.207031 4.98548V46.4926H27.4663V64.361C27.4663 67.1647 28.7643 68.7424 32.0957 68.7424C35.4271 68.7424 36.7251 67.1647 36.7251 64.361V46.4926C39.1397 46.4926 41.3636 45.2665 41.3636 42.1198C41.3636 38.9732 39.1397 37.7471 36.7251 37.7471V12.4364C36.7251 10.25 35.6177 8.05501 32.0957 8.05501C28.5737 8.05501 27.4663 10.2414 27.4663 12.4364V37.7471H9.46592V37.7385Z" fill="#F9B000"/>
</svg>
