<svg width="47" height="69" viewBox="0 0 47 69" fill="none" xmlns="http://www.w3.org/2000/svg">
<path d="M19.3003 9.34969H42.0209C44.4264 9.34969 46.6503 8.12359 46.6503 4.97691C46.6503 1.83022 44.4264 0.604126 42.0209 0.604126H10.0414V39.0417H37.3914V59.9882H15.969C14.4893 59.9882 12.3561 58.7621 11.0581 58.2391L8.28042 57.0987C7.26376 56.6615 6.42869 56.3957 5.31217 56.3957C2.8976 56.3957 0.864258 58.4963 0.864258 60.777C0.864258 63.838 3.64193 64.6268 6.14727 65.6728L9.66928 67.1561C11.984 68.1164 13.3728 68.7338 15.7783 68.7338H36.3657C39.6971 68.7338 42.1117 68.3822 44.4264 65.7586C46.3689 63.5722 46.6503 61.6516 46.6503 58.9336V40.1821C46.6503 37.1211 46.369 35.0205 43.7819 32.7483C41.558 30.7334 39.334 30.2962 36.3748 30.2962H19.3003V9.34969Z" fill="#F9B000"/>
</svg>
