<svg width="47" height="69" viewBox="0 0 47 69" fill="none" xmlns="http://www.w3.org/2000/svg">
<path d="M37.0971 9.34969V21.4391C37.0971 25.2889 37.2787 25.2032 34.2196 27.7411L21.4205 38.1672C19.1058 40.0963 19.0151 40.3536 19.0151 43.243V64.3524C19.0151 67.1561 20.3131 68.7338 23.6445 68.7338C26.9759 68.7338 28.274 67.1561 28.274 64.3524V47.3586C28.274 44.2976 28.4646 44.1176 30.8701 42.1027L43.8506 31.5051C46.4468 29.4045 46.3469 29.0529 46.3469 25.992V0.604126H5.18123C2.22202 0.604126 0.551758 3.05631 0.551758 4.97691V9.34969C0.551758 11.2789 2.22202 13.731 5.18123 13.731C8.14952 13.731 9.81065 11.2789 9.81065 9.34969H37.0971Z" fill="#F9B000"/>
</svg>
