<svg width="47" height="69" viewBox="0 0 47 69" fill="none" xmlns="http://www.w3.org/2000/svg">
<path d="M37.0277 59.9882H9.75948V39.0417H37.0277V59.9882ZM27.7507 30.2962H19.0274V9.34969H27.7507V30.2962ZM46.2866 59.9882V39.136C46.2866 36.4266 45.4515 34.2402 43.7813 32.7483C42.111 31.265 39.8871 30.2962 37.0096 30.2962V4.97691C37.0096 2.70477 35.53 0.604126 32.3802 0.604126H14.3889C11.2391 0.604126 9.75948 2.70477 9.75948 4.97691V30.2962C6.88196 30.2962 4.658 31.2565 2.98777 32.7483C1.31754 34.2317 0.482422 36.4181 0.482422 39.136V59.9882C0.482422 65.3213 4.00443 68.7338 9.7413 68.7338H37.0096C42.7646 68.7338 46.2866 65.3213 46.2866 59.9882Z" fill="#F9B000"/>
</svg>
