<svg width="36" height="35" viewBox="0 0 36 35" fill="none" xmlns="http://www.w3.org/2000/svg">
<path d="M20.8668 3.09486C20.8668 1.60954 19.5798 0.404297 18.0003 0.404297C16.4208 0.404297 15.1338 1.60954 15.1338 3.09486C15.1338 4.58019 16.4208 5.78543 18.0003 5.78543C19.5798 5.78543 20.8668 4.57595 20.8668 3.09486ZM16.0338 3.09486C16.0338 2.0806 16.9158 1.25306 18.0003 1.25306C19.0848 1.25306 19.9668 2.0806 19.9668 3.09486C19.9668 4.10913 19.0848 4.93667 18.0003 4.93667C16.9158 4.93667 16.0338 4.10913 16.0338 3.09486Z" fill="white"/>
<path d="M28.7056 4.58008C28.7011 4.58008 28.7011 4.58008 28.6966 4.58008C27.936 4.58008 27.2205 4.86017 26.685 5.36518C26.145 5.87443 25.8525 6.5492 25.8525 7.27064C25.8525 7.99209 26.154 8.66685 26.694 9.17611C27.234 9.68536 27.954 9.9697 28.7146 9.9697C28.7191 9.9697 28.7191 9.9697 28.7236 9.9697C29.4841 9.9697 30.1996 9.68961 30.7351 9.18459C31.2751 8.67534 31.5676 8.00058 31.5676 7.27913C31.5676 6.55769 31.2661 5.88292 30.7261 5.37367C30.1861 4.86441 29.4706 4.58432 28.7056 4.58008ZM30.1006 8.58622C29.7316 8.93421 29.2456 9.12094 28.7236 9.12094H28.7191C28.197 9.12094 27.702 8.92572 27.333 8.57349C26.964 8.22125 26.757 7.75868 26.7525 7.2664C26.7525 6.77412 26.955 6.31155 27.3195 5.96355C27.6885 5.61556 28.1745 5.42884 28.6966 5.42884H28.7011C29.2231 5.42884 29.7181 5.62405 30.0871 5.97629C30.4606 6.32852 30.6631 6.79109 30.6676 7.28337C30.6721 7.7799 30.4696 8.24247 30.1006 8.58622Z" fill="white"/>
<path d="M33.147 14.676C31.5765 14.676 30.2939 15.8898 30.2939 17.3793C30.2939 18.8689 31.572 20.0826 33.147 20.0826C34.722 20.0826 36 18.8689 36 17.3793C36 15.8898 34.722 14.676 33.147 14.676ZM33.147 19.2339C32.0715 19.2339 31.194 18.4021 31.194 17.3793C31.194 16.3566 32.0715 15.5248 33.147 15.5248C34.2225 15.5248 35.1 16.3566 35.1 17.3793C35.1 18.4021 34.2225 19.2339 33.147 19.2339Z" fill="white"/>
<path d="M28.7194 24.7849C27.9544 24.7849 27.2389 25.0692 26.6989 25.5785C26.1589 26.0877 25.8574 26.7668 25.8574 27.4839C25.8574 28.2054 26.1499 28.8802 26.6899 29.3894C27.2254 29.8944 27.9409 30.1745 28.7014 30.1745C28.7059 30.1745 28.7059 30.1745 28.7104 30.1745C29.4754 30.1745 30.1909 29.8902 30.7309 29.3809C31.2709 28.8717 31.5724 28.1927 31.5724 27.4755C31.5724 26.754 31.2799 26.0793 30.7399 25.57C30.1999 25.0608 29.4754 24.8019 28.7194 24.7849ZM30.0919 28.7825C29.7184 29.1348 29.2279 29.3257 28.7059 29.33H28.7014C28.1794 29.33 27.6934 29.139 27.3244 28.7953C26.9554 28.4473 26.7529 27.9847 26.7574 27.4924C26.7574 27.0002 26.9644 26.5333 27.3379 26.1854C27.7114 25.8374 28.2019 25.6422 28.7239 25.6379H28.7284C29.2504 25.6379 29.7364 25.8289 30.1054 26.1726C30.4744 26.5206 30.6769 26.9832 30.6724 27.4755C30.6679 27.9677 30.4654 28.4303 30.0919 28.7825Z" fill="white"/>
<path d="M20.8668 31.6639C20.8668 30.1829 19.5798 28.9734 18.0003 28.9734C16.4208 28.9734 15.1338 30.1786 15.1338 31.6639C15.1338 33.1493 16.4208 34.3545 18.0003 34.3545C19.5798 34.3545 20.8668 33.1493 20.8668 31.6639ZM16.0338 31.6639C16.0338 30.6497 16.9158 29.8221 18.0003 29.8221C19.0848 29.8221 19.9668 30.6497 19.9668 31.6639C19.9668 32.6782 19.0848 33.5057 18.0003 33.5057C16.9158 33.5057 16.0338 32.6782 16.0338 31.6639Z" fill="white"/>
<path d="M7.29466 30.1786C7.29916 30.1786 7.29916 30.1786 7.30366 30.1786C8.06417 30.1786 8.77968 29.8985 9.31519 29.3935C9.8552 28.8843 10.1477 28.2095 10.1477 27.4881C10.1477 26.7666 9.8462 26.0919 9.30619 25.5826C8.76618 25.0734 8.04617 24.7891 7.28566 24.7891C7.28116 24.7891 7.28116 24.7891 7.27666 24.7891C6.51615 24.7891 5.80064 25.0692 5.26513 25.5742C4.72512 26.0834 4.43262 26.7582 4.43262 27.4796C4.43262 28.201 4.73412 28.8758 5.27413 29.385C5.81414 29.8943 6.52965 30.1744 7.29466 30.1786ZM5.89964 26.1725C6.26865 25.8245 6.75465 25.6378 7.27666 25.6378H7.28116C7.80317 25.6378 8.29818 25.833 8.66718 26.1853C9.03619 26.5375 9.24319 27.0001 9.24769 27.4923C9.24769 27.9846 9.04519 28.4472 8.68068 28.7952C8.31168 29.1431 7.80317 29.3426 7.29916 29.3299C6.77715 29.3299 6.28215 29.1347 5.91314 28.7824C5.53963 28.4302 5.33713 27.9676 5.33263 27.4754C5.32813 26.9788 5.53063 26.5163 5.89964 26.1725Z" fill="white"/>
<path d="M2.85303 20.0826C4.42354 20.0826 5.70605 18.8689 5.70605 17.3793C5.70605 15.8898 4.42804 14.676 2.85303 14.676C1.27801 14.676 0 15.8898 0 17.3793C0 18.8689 1.27801 20.0826 2.85303 20.0826ZM2.85303 15.5248C3.92854 15.5248 4.80605 16.3566 4.80605 17.3793C4.80605 18.4021 3.92854 19.2339 2.85303 19.2339C1.77752 19.2339 0.900009 18.4021 0.900009 17.3793C0.900009 16.3566 1.77752 15.5248 2.85303 15.5248Z" fill="white"/>
<path d="M7.30366 4.58008C7.29916 4.58008 7.29916 4.58008 7.29466 4.58008C6.52965 4.58008 5.81414 4.86441 5.27413 5.37367C4.73412 5.88292 4.43262 6.56193 4.43262 7.27913C4.43262 8.00058 4.72512 8.67534 5.26513 9.18459C5.80064 9.68961 6.51615 9.9697 7.27666 9.9697C7.28116 9.9697 7.28116 9.9697 7.28566 9.9697C8.05067 9.9697 8.76618 9.68536 9.30619 9.17611C9.8462 8.66685 10.1477 7.98784 10.1477 7.27064C10.1477 6.5492 9.8552 5.87443 9.31519 5.36518C8.77968 4.86017 8.06417 4.58008 7.30366 4.58008ZM8.66718 8.57773C8.29368 8.92997 7.80317 9.12094 7.28116 9.12518H7.27666C6.75465 9.12518 6.26865 8.93421 5.89964 8.59046C5.53063 8.24247 5.32813 7.7799 5.33263 7.28762C5.33263 6.79534 5.53963 6.32852 5.91314 5.98053C6.28665 5.6283 6.77715 5.43732 7.29916 5.43308H7.30366C7.82567 5.43308 8.31168 5.62405 8.68068 5.9678C9.04969 6.31579 9.25219 6.77836 9.24769 7.27064C9.24319 7.76292 9.04069 8.22974 8.66718 8.57773Z" fill="white"/>
<path d="M10.6288 5.3186C10.7053 5.3186 10.7773 5.30163 10.8493 5.26343C11.7808 4.77114 12.7753 4.37646 13.8013 4.08788C14.0398 4.01998 14.1748 3.78656 14.1028 3.56164C14.0308 3.33671 13.7788 3.20939 13.5448 3.2773C12.4558 3.58286 11.4028 4.003 10.4128 4.525C10.1968 4.63958 10.1158 4.89846 10.2373 5.10217C10.3183 5.24221 10.4713 5.3186 10.6288 5.3186Z" fill="white"/>
<path d="M24.9526 5.16575C25.0201 5.1997 25.0921 5.21667 25.1686 5.21667C25.3306 5.21667 25.4836 5.13604 25.5646 4.996C25.6816 4.78806 25.6006 4.53344 25.3846 4.41886C24.3856 3.90961 23.3281 3.50222 22.2346 3.2094C21.9961 3.14574 21.7486 3.2773 21.6811 3.50222C21.6136 3.72713 21.7531 3.96054 21.9916 4.02419C23.0176 4.30428 24.0166 4.68621 24.9526 5.16575Z" fill="white"/>
<path d="M30.9646 10.008C30.7486 10.1226 30.6676 10.3815 30.7891 10.5852C31.3111 11.4636 31.7296 12.4015 32.0356 13.3691C32.0941 13.5516 32.2741 13.6747 32.4676 13.6747C32.5081 13.6747 32.5531 13.6704 32.5981 13.6577C32.8366 13.5898 32.9716 13.3564 32.8996 13.1314C32.5756 12.1045 32.1301 11.1114 31.5766 10.1778C31.4551 9.96559 31.1806 9.89344 30.9646 10.008Z" fill="white"/>
<path d="M31.2889 24.5089C31.4509 24.5089 31.6039 24.4283 31.6849 24.2882C32.2249 23.3461 32.6569 22.3488 32.9674 21.3176C33.0349 21.0926 32.8954 20.8592 32.6569 20.7956C32.4184 20.7319 32.1709 20.8635 32.1034 21.0884C31.8109 22.0602 31.4059 22.9981 30.8974 23.8851C30.7804 24.093 30.8614 24.3476 31.0774 24.4622C31.1449 24.4919 31.2169 24.5089 31.2889 24.5089Z" fill="white"/>
<path d="M25.1508 29.3893C24.2193 29.8815 23.2248 30.2762 22.1988 30.5648C21.9603 30.6327 21.8253 30.8661 21.8973 31.091C21.9558 31.2735 22.1358 31.3966 22.3293 31.3966C22.3698 31.3966 22.4148 31.3923 22.4598 31.3796C23.5488 31.074 24.6018 30.6539 25.5918 30.1319C25.8078 30.0173 25.8888 29.7585 25.7673 29.5548C25.6413 29.3468 25.3668 29.2747 25.1508 29.3893Z" fill="white"/>
<path d="M13.7655 31.439C13.806 31.4517 13.8466 31.456 13.8871 31.456C14.0851 31.456 14.2651 31.3329 14.3191 31.1462C14.3866 30.9212 14.2471 30.6878 14.0085 30.6242C12.978 30.3483 11.9835 29.9664 11.043 29.4868C10.827 29.3765 10.5525 29.4529 10.431 29.6566C10.314 29.8645 10.395 30.1192 10.611 30.2337C11.6145 30.7388 12.6765 31.1462 13.7655 31.439Z" fill="white"/>
<path d="M5.03536 24.6447C5.25137 24.5301 5.33237 24.2712 5.21087 24.0675C4.68885 23.189 4.27034 22.2511 3.96434 21.2836C3.89233 21.0586 3.64033 20.9313 3.40632 20.9992C3.16782 21.0671 3.03281 21.3005 3.10482 21.5255C3.42882 22.5525 3.87433 23.5455 4.42785 24.4792C4.50885 24.6192 4.66185 24.6956 4.81936 24.6956C4.89136 24.6998 4.96786 24.6829 5.03536 24.6447Z" fill="white"/>
<path d="M3.34329 13.857C3.38379 13.8698 3.42429 13.874 3.46479 13.874C3.66279 13.874 3.84279 13.751 3.89679 13.5642C4.18928 12.5924 4.59428 11.6545 5.10277 10.7676C5.21977 10.5597 5.13877 10.305 4.92277 10.1904C4.70677 10.0801 4.43228 10.1565 4.31078 10.3602C3.77079 11.3023 3.33879 12.2996 3.0283 13.3308C2.9653 13.56 3.1048 13.7934 3.34329 13.857Z" fill="white"/>
<path d="M11.9023 19.7264C12.8428 22.0265 15.2053 23.6646 17.9729 23.6646C21.5594 23.6646 24.4799 20.9104 24.4799 17.5281C24.4799 14.1416 21.5594 11.3916 17.9729 11.3916C14.3863 11.3916 11.4658 14.1458 11.4658 17.5281C11.4658 18.2368 11.6008 18.9158 11.8348 19.5524C11.8438 19.6118 11.8663 19.6712 11.9023 19.7264ZM23.5799 17.5239C23.5799 18.0628 23.4944 18.5848 23.3324 19.0728H21.3749C21.4919 18.5891 21.5684 18.0756 21.5684 17.5239C21.5684 16.9382 21.4919 16.3993 21.3704 15.8943H23.3054C23.4809 16.4077 23.5799 16.9552 23.5799 17.5239ZM20.6729 17.5239C20.6729 18.0798 20.5874 18.5933 20.4479 19.0728H18.4229V15.8943H20.4434C20.5829 16.395 20.6729 16.9382 20.6729 17.5239ZM17.5229 22.2939C16.9919 21.7889 16.2854 20.9825 15.8084 19.9216H17.5229V22.2939ZM18.4229 19.9216H20.1374C19.6559 20.9783 18.9539 21.7889 18.4229 22.2939V19.9216ZM18.4229 15.0455V12.6181C18.9044 13.0721 19.6424 13.9039 20.1419 15.0455H18.4229ZM17.5229 15.0455H15.8084C16.3034 13.9294 17.0369 13.1103 17.5229 12.6478V15.0455ZM17.5229 15.8943V19.0728H15.4934C15.3584 18.5933 15.2728 18.0756 15.2728 17.5239C15.2728 16.9382 15.3584 16.395 15.5024 15.8943H17.5229ZM14.5663 19.0728H12.6088C12.4513 18.5806 12.3613 18.0628 12.3613 17.5239C12.3613 16.9552 12.4603 16.4077 12.6358 15.8943H14.5708C14.4493 16.3993 14.3683 16.9382 14.3683 17.5239C14.3728 18.0756 14.4493 18.5891 14.5663 19.0728ZM12.9778 19.9216H14.8318C15.2953 21.1099 16.0244 22.035 16.6364 22.6546C15.0388 22.2854 13.7113 21.2711 12.9778 19.9216ZM19.3094 22.6546C19.9214 22.0308 20.6504 21.1099 21.1139 19.9216H22.9679C22.2344 21.2711 20.9069 22.2854 19.3094 22.6546ZM22.9229 15.0455H21.1139C20.6819 13.9039 20.0249 13.0297 19.4759 12.4356C20.9654 12.826 22.2074 13.7808 22.9229 15.0455ZM16.5014 12.4271C15.9434 13.0212 15.2683 13.9039 14.8318 15.0497H13.0183C13.7383 13.7724 14.9983 12.8133 16.5014 12.4271Z" fill="white"/>
<path d="M10.9304 24.424H9.94491C9.69741 24.424 9.49491 24.615 9.49491 24.8484C9.49491 25.0818 9.69741 25.2728 9.94491 25.2728H12.0239C13.7114 26.4144 15.7724 27.0849 18 27.0849C23.6745 27.0849 28.2915 22.7308 28.2915 17.3793C28.2915 14.553 27.0045 12.0067 24.9525 10.2286H25.8975C26.145 10.2286 26.3475 10.0376 26.3475 9.8042C26.3475 9.5708 26.145 9.37983 25.8975 9.37983H23.823C22.167 8.30615 20.16 7.67383 18.0045 7.67383C12.3299 7.67383 7.7129 12.0279 7.7129 17.3793C7.7084 20.1505 8.95041 22.6501 10.9304 24.424ZM18 8.52258C19.944 8.52258 21.7485 9.08276 23.247 10.0376V11.8794C23.247 12.1128 23.4495 12.3038 23.697 12.3038C23.9445 12.3038 24.147 12.1128 24.147 11.8794V10.6996C26.1315 12.325 27.3915 14.7143 27.3915 17.3793C27.3915 22.2639 23.1795 26.2361 18 26.2361C15.9884 26.2361 14.1254 25.6293 12.5954 24.6107V22.7774C12.5954 22.544 12.3929 22.3531 12.1454 22.3531C11.8979 22.3531 11.6954 22.544 11.6954 22.7774V23.9275C9.80541 22.3064 8.61291 19.9765 8.61291 17.3836C8.60841 12.4948 12.8204 8.52258 18 8.52258Z" fill="white"/>
</svg>
