<svg width="34" height="32" viewBox="0 0 34 32" fill="none" xmlns="http://www.w3.org/2000/svg">
<path d="M31.8284 12.8547H29.6286V11.2989H28.5288V12.8547H20.8296V9.01695C22.5344 8.44646 23.4693 6.68315 22.8644 5.07543C22.4245 3.8826 21.2696 3.10466 20.0047 3.00094C19.0698 0.874592 16.4851 -0.162651 14.2304 0.719005C13.1305 1.1339 12.2506 1.9637 11.8107 3.00094C10.2708 3.10466 9.06097 4.19377 8.786 5.59405H4.88144C3.94654 5.59405 3.23162 6.26825 3.23162 7.14991V15.9665C1.6918 15.9665 0.481934 17.1074 0.481934 18.5596V25.8203C0.481934 27.065 1.41683 28.1022 2.68169 28.3615V30.4879H0.481934V31.5251H33.4782V14.4106C33.4782 13.529 32.7633 12.8547 31.8284 12.8547ZM1.58181 25.8203V18.5596C1.58181 17.6779 2.29673 17.0037 3.23162 17.0037C4.16652 17.0037 4.88144 17.6779 4.88144 18.5596V25.8203C4.88144 26.7019 4.16652 27.3761 3.23162 27.3761C2.29673 27.3761 1.58181 26.7019 1.58181 25.8203ZM3.78156 28.3615C5.04642 28.1022 5.98131 27.065 5.98131 25.8203V18.5596C5.98131 17.5223 5.32139 16.5888 4.3315 16.1739V7.14991C4.3315 6.83874 4.55147 6.63129 4.88144 6.63129H8.786C9.06097 8.13529 10.4358 9.2244 12.0306 9.2244H14.2304V8.18715H12.0306C10.8208 8.18715 9.83088 7.25363 9.83088 6.11267C9.83088 5.17915 10.5458 4.29749 11.5357 4.09004C11.5357 4.24563 11.5357 4.40122 11.5357 4.5568V5.07543H12.6356V4.5568C12.6356 2.84535 14.1204 1.44508 15.9352 1.44508C17.75 1.44508 19.2348 2.84535 19.2348 4.5568V5.07543H20.3347V4.5568C20.3347 4.40122 20.3347 4.24563 20.3347 4.09004C21.4896 4.34936 22.2595 5.49032 21.9295 6.57943C21.7095 7.51295 20.8296 8.18715 19.7848 8.18715H17.585V9.2244H19.7848V12.8547H18.6849C17.75 12.8547 17.0351 13.529 17.0351 14.4106V30.4879H15.3853V26.3389H7.63113V30.4879H3.78156V28.3615ZM14.2304 30.4879H8.731V27.3761H14.2304V30.4879ZM18.0799 30.4879V14.4106C18.0799 14.0994 18.2999 13.892 18.6299 13.892H31.8284C32.1584 13.892 32.3783 14.0994 32.3783 14.4106V30.4879H18.0799Z" fill="white"/>
<path d="M16.4305 5.07495H15.3306V10.2612H16.4305V5.07495Z" fill="white"/>
<path d="M19.1797 19.0782H22.4793V14.9292H19.1797V19.0782ZM20.2796 15.9664H21.3794V18.0409H20.2796V15.9664Z" fill="white"/>
<path d="M19.1797 24.2639H22.4793V20.115H19.1797V24.2639ZM20.2796 21.1522H21.3794V23.2267H20.2796V21.1522Z" fill="white"/>
<path d="M23.5791 19.0782H26.8787V14.9292H23.5791V19.0782ZM24.679 15.9664H25.7788V18.0409H24.679V15.9664Z" fill="white"/>
<path d="M23.5791 24.2639H26.8787V20.115H23.5791V24.2639ZM24.679 21.1522H25.7788V23.2267H24.679V21.1522Z" fill="white"/>
<path d="M27.979 19.0782H31.2786V14.9292H27.979V19.0782ZM29.0789 15.9664H30.1788V18.0409H29.0789V15.9664Z" fill="white"/>
<path d="M27.979 24.2639H31.2786V20.115H27.979V24.2639ZM29.0789 21.1522H30.1788V23.2267H29.0789V21.1522Z" fill="white"/>
<path d="M19.1797 29.4505H22.4793V25.3015H19.1797V29.4505ZM20.2796 26.3388H21.3794V28.4133H20.2796V26.3388Z" fill="white"/>
<path d="M23.5791 29.4505H26.8787V25.3015H23.5791V29.4505ZM24.679 26.3388H25.7788V28.4133H24.679V26.3388Z" fill="white"/>
<path d="M27.979 29.4505H31.2786V25.3015H27.979V29.4505ZM29.0789 26.3388H30.1788V28.4133H29.0789V26.3388Z" fill="white"/>
<path d="M7.63086 24.7829H15.33V21.1526H7.63086V24.7829ZM14.2301 23.7457H12.0304V22.1898H14.2301V23.7457ZM8.73074 22.1898H10.9305V23.7457H8.73074V22.1898Z" fill="white"/>
<path d="M7.63086 20.1154H15.33V16.4851H7.63086V20.1154ZM14.2301 19.0782H12.0304V17.5223H14.2301V19.0782ZM8.73074 17.5223H10.9305V19.0782H8.73074V17.5223Z" fill="white"/>
<path d="M15.3305 11.2986H5.43164V15.4476H15.3305V11.2986ZM6.53151 12.3358H9.83114V14.4103H6.53151V12.3358ZM14.2306 14.4103H10.931V12.3358H14.2306V14.4103Z" fill="white"/>
<path d="M24.2939 6.7348L25.0089 7.51273C27.3186 5.59384 30.7832 5.59384 33.0929 7.51273L33.8079 6.7348C31.1132 4.50474 27.0436 4.50474 24.2939 6.7348Z" fill="white"/>
<path d="M32.2131 8.34246C30.4533 6.78656 27.7036 6.78656 25.9438 8.34246L26.7138 9.06854C28.0336 7.87569 30.1234 7.87569 31.4432 9.06854L32.2131 8.34246Z" fill="white"/>
<path d="M27.0991 9.84671L27.814 10.6765C28.5839 10.1579 29.6288 10.1579 30.3987 10.6765L31.1136 9.84671C29.9038 9.01692 28.254 9.01692 27.0991 9.84671Z" fill="white"/>
</svg>
