<svg width="27" height="32" viewBox="0 0 27 32" fill="none" xmlns="http://www.w3.org/2000/svg">
<path d="M1.59494 11.086H7.02532C7.48101 11.086 7.82279 11.4192 7.82279 11.7857C7.82279 12.1522 7.44304 12.4854 7.02532 12.4854H1.59494V18.3497V25.9133H13.443C13.443 25.9133 13.443 25.9133 13.481 25.9133C13.481 25.9133 13.481 25.9133 13.519 25.9133H25.3671V12.4854H19.9747C19.519 12.4854 19.1772 12.1522 19.1772 11.7857C19.1772 11.4192 19.557 11.086 19.9747 11.086H25.4051C26.2785 11.086 27 11.719 27 12.4854V25.9133C27 26.6797 26.2785 27.3128 25.4051 27.3128H14.2785V30.0117H18.9114C19.3671 30.0117 19.7089 30.3449 19.7089 30.7114C19.7089 31.0779 19.3291 31.4111 18.9114 31.4111H8.05063C7.59494 31.4111 7.25317 31.0779 7.25317 30.7114C7.25317 30.3449 7.63291 30.0117 8.05063 30.0117H12.6835V27.3128H1.59494C0.721519 27.3128 0 26.6797 0 25.9133V12.4854C0 11.719 0.721519 11.086 1.59494 11.086ZM12.9114 22.5147C13.0633 22.648 13.2532 22.7146 13.481 22.7146C13.7089 22.7146 13.8987 22.648 14.0506 22.5147C14.2025 22.3814 14.2785 22.2148 14.2785 22.0149C14.2785 21.815 14.2025 21.6484 14.0506 21.5151C13.8987 21.3818 13.7089 21.3152 13.481 21.3152C13.2532 21.3152 13.0633 21.3818 12.9114 21.5151C12.7595 21.6484 12.6835 21.815 12.6835 22.0149C12.6835 22.2148 12.7595 22.3814 12.9114 22.5147ZM13.481 12.3188C13.9367 12.3188 14.2785 12.0189 14.2785 11.6191C14.2785 11.2192 13.9367 10.9194 13.481 10.9194C13.0253 10.9194 12.6835 11.2192 12.6835 11.6191C12.6835 12.0189 13.0253 12.3188 13.481 12.3188ZM13.481 20.1157C13.9367 20.1157 14.2785 19.8158 14.2785 19.4159C14.2785 19.0161 13.9367 18.7162 13.481 18.7162C13.0253 18.7162 12.6835 19.0161 12.6835 19.4159C12.6835 19.8158 13.0253 20.1157 13.481 20.1157ZM13.481 9.71983C13.9367 9.71983 14.2785 9.38663 14.2785 9.02011C14.2785 8.62028 13.9367 8.3204 13.481 8.3204C13.0253 8.3204 12.6835 8.62028 12.6835 9.02011C12.6835 9.38663 13.0253 9.71983 13.481 9.71983ZM13.481 17.5167C13.9367 17.5167 14.2785 17.1835 14.2785 16.817C14.2785 16.4171 13.9367 16.1173 13.481 16.1173C13.0253 16.1173 12.6835 16.4171 12.6835 16.817C12.6835 17.2168 13.0253 17.5167 13.481 17.5167ZM13.481 14.9177C13.9367 14.9177 14.2785 14.5845 14.2785 14.218C14.2785 13.8182 13.9367 13.5183 13.481 13.5183C13.0253 13.5183 12.6835 13.8182 12.6835 14.218C12.6835 14.6179 13.0253 14.9177 13.481 14.9177ZM14.0506 5.92136C13.8987 5.78808 13.7089 5.72144 13.481 5.72144C13.2532 5.72144 13.0633 5.78808 12.9114 5.92136C12.7595 6.05464 12.6835 6.22124 12.6835 6.42116C12.6835 6.62108 12.7595 6.78768 12.9114 6.92096C13.0633 7.05424 13.2532 7.12088 13.481 7.12088C13.7089 7.12088 13.8987 7.05424 14.0506 6.92096C14.2025 6.78768 14.2785 6.62108 14.2785 6.42116C14.2785 6.22124 14.2025 6.05464 14.0506 5.92136ZM13.481 4.52192H13.4051C12.7595 4.52192 12.1519 4.28868 11.7342 3.85552C11.2785 3.45568 11.0506 2.92256 11.0506 2.35612C11.0886 1.22324 12.1519 0.290283 13.481 0.290283H13.557C14.2025 0.290283 14.8101 0.523523 15.2278 0.956683C15.6456 1.38984 15.9114 1.88964 15.9114 2.45608C15.8734 3.58896 14.7722 4.52192 13.481 4.52192ZM14.2785 2.42276C14.2785 2.22284 14.2025 2.05624 14.0506 1.92296C13.8987 1.78968 13.7089 1.72304 13.481 1.68972H13.443C13.0253 1.68972 12.6456 1.9896 12.6456 2.38944C12.6456 2.58936 12.7215 2.75596 12.8734 2.88924C13.0253 3.02252 13.2152 3.08916 13.443 3.12248H13.481C13.8987 3.12248 14.2785 2.78928 14.2785 2.42276ZM17.0506 19.4493C16.5949 19.4493 16.2532 19.1161 16.2532 18.7495V7.8206C16.2532 6.55444 17.4304 5.52152 18.8734 5.52152H20.6962C21.038 4.68852 21.9114 4.12208 22.9747 4.12208C24.3038 4.12208 25.4051 5.08836 25.4051 6.25456C25.4051 7.42076 24.3038 8.38704 22.9747 8.38704C21.9114 8.38704 21.038 7.78728 20.6962 6.9876H18.8734C18.3418 6.9876 17.8861 7.38744 17.8861 7.85392V18.7495C17.8481 19.1161 17.4684 19.4493 17.0506 19.4493ZM22.1392 6.25456C22.1392 6.6544 22.481 6.95428 22.9367 6.95428C23.3924 6.95428 23.7342 6.6544 23.7342 6.25456C23.7342 5.85472 23.3924 5.52152 22.9367 5.52152C22.481 5.52152 22.1392 5.85472 22.1392 6.25456ZM4.02532 4.12208C5.08861 4.12208 5.96203 4.72184 6.3038 5.52152H8.12658C9.56962 5.52152 10.7468 6.55444 10.7468 7.8206V18.7162C10.7468 19.1161 10.3671 19.4159 9.94937 19.4159C9.49367 19.4159 9.1519 19.0827 9.1519 18.7162V7.8206C9.1519 7.3208 8.6962 6.95428 8.16456 6.95428H6.34177C6 7.78728 5.12658 8.35372 4.06329 8.35372C2.73418 8.35372 1.63291 7.38744 1.63291 6.22124C1.63291 5.05504 2.6962 4.12208 4.02532 4.12208ZM3.22785 6.25456C3.22785 6.6544 3.56962 6.95428 4.02532 6.95428C4.48101 6.95428 4.82278 6.6544 4.82278 6.25456C4.82278 5.85472 4.48101 5.52152 4.02532 5.52152C3.56962 5.52152 3.22785 5.85472 3.22785 6.25456Z" fill="white"/>
</svg>
