<svg width="31" height="30" viewBox="0 0 31 30" fill="none" xmlns="http://www.w3.org/2000/svg">
<path d="M28.8775 10.8478C28.8538 10.8478 28.83 10.8542 28.8063 10.8574C27.7511 8.95991 26.6043 7.07525 25.7119 5.64176C25.8883 5.41458 25.9901 5.1394 25.9867 4.84183C25.9698 4.11868 25.3251 3.53313 24.5176 3.53313C24.3513 3.53633 24.1953 3.57152 24.046 3.62272C22.1832 2.80998 19.8149 2.04844 16.8529 1.3029C16.7613 0.813336 16.3032 0.438965 15.7366 0.438965C15.1428 0.451764 14.6678 0.89653 14.6474 1.44049C13.2326 1.79246 11.6311 2.21483 9.98551 2.64999L9.28656 2.83238C8.88619 2.93797 8.51296 3.03716 8.16349 3.12676C7.91919 2.96357 7.624 2.86438 7.29489 2.86438C6.90809 2.87078 6.55183 3.01797 6.28378 3.27395C6.01913 3.53313 5.87663 3.8691 5.88341 4.22747C5.8902 4.50265 5.98859 4.75863 6.14806 4.96982C4.76373 6.29131 3.43369 7.70241 2.68724 9.16789C2.62956 9.16149 2.57527 9.15189 2.5142 9.15189C1.90007 9.16469 1.41148 9.63826 1.42166 10.2078C1.43184 10.6878 1.80507 11.0909 2.29365 11.1933C2.15794 12.3037 2.16133 13.4652 2.16811 14.6043C2.17151 15.449 2.1749 16.2553 2.12401 17.0265C1.8356 17.0777 1.57434 17.2057 1.36398 17.4073C1.09933 17.6664 0.956825 18.0024 0.963611 18.3608C0.980575 19.0775 1.61506 19.6599 2.38866 19.6695C2.91796 20.6198 3.40994 22.0469 3.82388 23.2372L3.89174 23.4324C3.85103 23.4612 3.81031 23.49 3.77299 23.5284C3.56602 23.7268 3.45744 23.9891 3.46423 24.2643C3.47441 24.8243 3.97317 25.2787 4.57712 25.2787H4.60087C4.85195 25.2754 5.08607 25.1891 5.27607 25.0451C7.11506 25.5954 9.10673 26.2898 11.0407 26.9617L11.4072 27.0897C11.8788 27.2529 12.3572 27.4193 12.8288 27.5825L13.0053 27.7393C13.0629 27.7905 13.1172 27.8385 13.1715 27.8864C13.1478 27.9856 13.1342 28.088 13.1376 28.1936C13.1545 28.9168 13.7992 29.5055 14.5796 29.5055H14.6101C15.4041 29.4895 16.0352 28.8784 16.0216 28.1424C16.0216 28.1072 16.0114 28.0752 16.008 28.04C16.8766 27.992 17.7859 27.8129 18.6681 27.6305C19.4519 27.4705 20.256 27.3105 21.033 27.2497C21.0839 27.7745 21.5623 28.1936 22.1357 28.1936H22.1595C22.7736 28.1808 23.2622 27.7073 23.252 27.1377C23.2452 26.7857 23.0416 26.4754 22.7363 26.293C22.9432 25.9602 23.157 25.5986 23.3809 25.2243L23.4522 25.1059C24.1715 23.8932 24.9688 22.5525 25.7899 21.5381C25.8273 21.5413 25.8612 21.5477 25.8951 21.5477H25.9257C26.7196 21.5317 27.3507 20.9206 27.3371 20.1814C27.327 19.7623 27.103 19.3911 26.7603 19.1511C27.7409 17.3145 28.9726 14.5339 29.3322 12.8348C29.4645 12.7804 29.5935 12.7036 29.702 12.598C29.909 12.3996 30.0176 12.1373 30.0108 11.8621C30.0006 11.3021 29.5019 10.8478 28.8775 10.8478ZM13.3208 27.0865C12.8627 26.6801 12.3979 26.2674 11.9297 25.845L11.5293 25.4866C12.1434 25.5762 12.7643 25.6562 13.3649 25.7298C13.5481 26.1842 13.7008 26.6129 13.8331 27.0289C13.7551 27.0737 13.6805 27.1249 13.6092 27.1857C13.5108 27.1537 13.4158 27.1217 13.3208 27.0865ZM11.2714 26.3794C9.41549 25.733 7.50864 25.0675 5.73412 24.5267C6.73844 24.6291 8.05491 24.8723 9.25602 25.0963C9.59871 25.1603 9.92783 25.2211 10.24 25.2787C10.637 25.6306 11.0305 25.9858 11.4241 26.3378L11.604 26.4978L11.2714 26.3794ZM4.45497 23.0356C4.058 21.8869 3.58298 20.5174 3.05368 19.5223C3.12832 19.4871 3.19958 19.4455 3.26744 19.4007C4.28533 20.1686 5.42876 21.0934 6.73505 22.2069C6.18878 22.6101 5.67305 23.0132 5.20482 23.4004C5.01821 23.282 4.79427 23.2084 4.54998 23.2084C4.5398 23.2084 4.52623 23.2116 4.51605 23.2116C4.49569 23.154 4.47872 23.0964 4.45497 23.0356ZM2.83992 14.6011C2.83314 13.4396 2.82974 12.2461 2.97903 11.1357C3.20975 11.0429 3.39637 10.8766 3.51173 10.675C3.81031 10.771 4.13264 10.883 4.48551 11.011C3.88496 13.2124 3.39976 15.2762 3.04689 17.1545C2.96546 17.1161 2.88064 17.0841 2.79242 17.0617C2.84671 16.2553 2.84331 15.417 2.83992 14.6011ZM5.29643 8.18877C5.0691 8.93751 4.85534 9.67985 4.65177 10.3998C4.28533 10.2686 3.94942 10.1534 3.63388 10.0542C3.6237 9.98383 3.60673 9.91343 3.57959 9.84624C3.92906 9.35028 4.49569 8.79992 5.29643 8.18877ZM24.2563 16.3225C24.3751 16.2233 24.4904 16.121 24.6126 16.0218C24.6838 16.4537 24.7551 16.8729 24.8263 17.2825C24.6363 16.9529 24.4497 16.6329 24.2563 16.3225ZM14.471 26.8401C14.3658 26.5106 14.2505 26.1746 14.1147 25.8226L14.5457 25.877L14.4982 26.8369C14.488 26.8369 14.4812 26.8401 14.471 26.8401ZM23.554 5.83055C23.2113 6.17932 22.8381 6.54729 22.4207 6.94406C21.8711 6.4897 21.3248 6.02253 20.7887 5.55537C21.2637 5.45618 21.7354 5.36659 22.1866 5.27379L22.7159 5.1682C22.855 5.1394 22.9941 5.1138 23.1299 5.08501C23.1842 5.37938 23.3334 5.63536 23.554 5.83055ZM24.6228 9.57106C25.0265 9.84944 25.4676 10.1214 25.868 10.3678C26.4448 10.7198 27.0793 11.1101 27.6018 11.5165C26.7434 11.5453 25.8069 11.5933 24.711 11.6701C24.6533 10.9214 24.6228 10.2174 24.6228 9.57106ZM17.5145 22.4757C16.8868 23.3012 16.3202 24.3251 15.7569 25.4002C15.5873 25.3778 15.4143 25.3554 15.2446 25.333C15.3091 23.9892 15.3803 22.4373 15.4244 20.847C16.3236 21.0326 17.1481 21.2182 17.8606 21.4006C17.8572 21.4261 17.8538 21.4549 17.8538 21.4805C17.8572 21.6405 17.9047 21.7909 17.9793 21.9253C17.9047 22.0053 17.83 22.0853 17.7588 22.1717L17.5145 22.4757ZM19.8896 20.8918C19.8556 20.8438 19.8149 20.799 19.7708 20.7574C20.3408 20.0535 21.0568 19.2759 21.9254 18.4376C22.7634 18.9143 23.6218 19.4167 24.4837 19.9383C24.4701 19.9959 24.4667 20.0535 24.4599 20.111C22.3223 20.3894 20.8091 20.6454 19.8896 20.8918ZM12.3063 19.5927C12.2656 19.4519 12.1909 19.3239 12.0959 19.2119C12.1604 19.1159 12.2215 19.0167 12.2859 18.9207C13.012 17.788 13.7619 16.6201 14.7933 15.7882C14.8171 17.0969 14.8137 18.4888 14.7764 20.0279C13.9044 19.8583 13.0426 19.7047 12.3063 19.5927ZM16.1743 15.4042C17.2872 15.945 18.4306 16.5305 19.5876 17.1481C19.3094 18.1496 19.0312 18.9783 18.736 19.7047C18.0506 18.3672 17.1073 16.7481 16.0352 15.5066C16.0861 15.4746 16.1302 15.4394 16.1743 15.4042ZM16.5916 14.8475C16.6289 14.7547 16.6527 14.6555 16.6663 14.5531C16.8766 14.4699 17.087 14.3867 17.3109 14.2971C18.2474 13.9259 19.2687 13.526 20.1814 13.2156C20.2832 13.3052 20.4019 13.3788 20.5342 13.4268C20.4291 13.8363 20.3273 14.2555 20.2153 14.7067C20.0762 15.273 19.9269 15.8714 19.7742 16.4633C18.719 15.9066 17.6536 15.3658 16.5916 14.8475ZM14.0096 15.609C13.0765 16.4665 12.3809 17.548 11.7057 18.6008C11.6481 18.6872 11.5904 18.7768 11.5327 18.8663C11.4275 18.8375 11.3223 18.8183 11.207 18.8183C11.1866 18.8183 11.1663 18.8247 11.1459 18.8247C10.8541 18.1752 10.5487 17.3337 10.2739 16.4217C11.7532 16.0634 13.1308 15.7818 14.0096 15.609ZM15.4652 15.8298C16.6493 17.1801 17.6909 19.0583 18.3933 20.4918C18.3729 20.5302 18.3526 20.5718 18.3322 20.6102C18.2711 20.6486 18.2135 20.6934 18.1626 20.7446C18.1524 20.7542 18.149 20.7638 18.1388 20.7702C17.3652 20.5718 16.4457 20.3638 15.4414 20.159C15.4787 18.5848 15.4855 17.1641 15.4652 15.8298ZM21.2875 18.076C20.4562 18.8887 19.7505 19.6503 19.1872 20.3446C19.5435 19.5415 19.8658 18.6136 20.1882 17.4713C20.5546 17.6696 20.921 17.8712 21.2875 18.076ZM19.8523 12.6652C18.9395 12.9756 17.9454 13.3692 17.0327 13.7307C16.8766 13.7915 16.7273 13.8523 16.5747 13.9131C16.5136 13.7723 16.4288 13.6443 16.3202 13.5324C17.1243 12.6428 18.0201 11.7917 18.7869 11.0941C19.2381 11.4621 19.6012 11.7949 19.8998 12.1053C19.8489 12.2269 19.8217 12.3612 19.8251 12.4988C19.8319 12.55 19.8387 12.6076 19.8523 12.6652ZM15.7773 13.1612C15.7671 13.158 15.7536 13.1548 15.74 13.1516C15.6043 11.7757 15.2853 10.2046 14.9766 8.68153L14.868 8.13437C14.8816 8.13117 14.8985 8.12797 14.9087 8.12157C15.516 8.62073 16.1912 9.1199 16.8529 9.61266C17.3007 9.94223 17.7961 10.3102 18.2745 10.6846C17.5009 11.3949 16.595 12.2557 15.7773 13.1612ZM14.1724 8.35515C14.203 8.50554 14.2335 8.65273 14.264 8.80632C14.5626 10.2654 14.8646 11.7661 15.0037 13.0812C14.8816 13.1004 14.7628 13.1292 14.6508 13.174C13.9858 12.1757 13.2665 11.1485 12.459 10.0638C13.0053 9.50387 13.5888 8.92151 14.1724 8.35515ZM14.0062 13.7115C13.1003 13.334 11.9127 13.0044 10.4164 12.7068C10.4164 12.694 10.4198 12.6812 10.4198 12.6716C10.4164 12.5596 10.3893 12.454 10.352 12.3516C10.7998 11.8269 11.3563 11.2189 12.0009 10.5438C12.7813 11.5965 13.4803 12.5916 14.1249 13.5644C14.0808 13.6091 14.0401 13.6603 14.0062 13.7115ZM10.1721 13.334L10.2468 13.3084C11.7668 13.6092 12.9408 13.9419 13.8094 14.3163C13.806 14.3515 13.7992 14.3867 13.7992 14.4251C13.8026 14.6267 13.8603 14.8155 13.9519 14.985C13.0256 15.1642 11.6073 15.4554 10.1009 15.817C9.8939 15.0554 9.72764 14.3227 9.61907 13.6795C9.84301 13.6187 10.033 13.4972 10.1721 13.334ZM21.8066 17.5768C21.3282 17.3081 20.8532 17.0489 20.3748 16.7897C20.5512 16.1274 20.7141 15.465 20.8668 14.8475C20.9855 14.3611 21.0975 13.9099 21.2094 13.4748C21.2603 13.4652 21.3078 13.446 21.3553 13.43C22.0577 14.2491 22.7363 15.1642 23.3775 16.1594C22.8211 16.6393 22.2952 17.1161 21.8066 17.5768ZM22.6582 11.8269L21.8609 11.8909C21.6573 11.6189 21.3146 11.4397 20.921 11.4397C20.7073 11.4429 20.5037 11.5037 20.3307 11.6125C20.0355 11.3149 19.686 11.0014 19.2687 10.6558C19.6758 10.2878 20.0864 9.92303 20.4969 9.56146C21.2094 8.93111 21.81 8.39355 22.4072 7.83999C22.9263 8.26556 23.4488 8.68473 23.9611 9.0847C23.9408 9.87824 23.9679 10.7454 24.0494 11.7213C23.5811 11.7533 23.1197 11.7885 22.6582 11.8269ZM13.694 7.91999C13.1342 8.46075 12.5845 9.00791 12.0654 9.53906C11.1764 8.36475 10.1959 7.12325 9.07619 5.76335C9.23227 5.67376 9.38835 5.58417 9.54442 5.49778C10.8473 5.97774 12.1468 6.4993 13.3649 7.02406C13.3547 7.08165 13.3479 7.13925 13.3513 7.20004C13.3581 7.47842 13.4904 7.7344 13.694 7.91999ZM8.50957 6.09613C9.66996 7.50402 10.6845 8.79032 11.6073 10.0158C10.9593 10.691 10.3893 11.3117 9.93122 11.8429C9.89729 11.8205 9.85997 11.8045 9.82265 11.7853C9.53764 10.9118 9.27638 9.95183 9.04226 9.0879C8.81154 8.23676 8.52653 7.18724 8.22117 6.26892C8.31617 6.20812 8.41117 6.15053 8.50957 6.09613ZM6.80969 14.8091C7.39328 14.3195 7.94634 13.8491 8.48582 13.382C8.60797 13.51 8.76404 13.606 8.94048 13.6635C9.05244 14.3547 9.22888 15.1514 9.45621 15.9738C6.75541 16.6521 4.85874 17.3209 3.78317 17.9608C3.75602 17.8776 3.72209 17.8008 3.68138 17.7272C3.69834 17.6408 3.71191 17.5576 3.72549 17.4745C4.69587 16.5913 5.73073 15.7178 6.72826 14.8763L6.80969 14.8091ZM9.62925 16.5817C9.91086 17.5256 10.223 18.3832 10.525 19.0583C10.4911 19.0839 10.4605 19.1063 10.43 19.1351C10.3791 19.1831 10.335 19.2343 10.2977 19.2919C8.55028 18.8151 5.73751 18.62 3.99353 18.572C4.73998 18.0824 6.33468 17.4137 9.62925 16.5817ZM15.2141 25.9602L15.4482 25.9922C15.36 26.1618 15.2718 26.3282 15.1869 26.4914C15.1971 26.3122 15.2039 26.1362 15.2141 25.9602ZM23.8797 15.7274C23.2418 14.7483 22.5666 13.8491 21.8745 13.0396C21.9864 12.8828 22.0475 12.6972 22.0543 12.4988L22.9704 12.4252C23.347 12.3964 23.727 12.3644 24.107 12.3356C24.1919 13.19 24.314 14.1147 24.4837 15.2154C24.2767 15.3914 24.0765 15.561 23.8797 15.7274ZM22.9229 7.36003C23.3843 6.92167 23.7915 6.5249 24.1545 6.14733C24.219 6.16332 24.2869 6.17612 24.3547 6.18572C24.1851 6.78728 24.0663 7.46242 24.0052 8.23036C23.6456 7.94559 23.2825 7.65441 22.9229 7.36003ZM20.0321 9.1071C19.608 9.48147 19.1805 9.86224 18.7597 10.243C18.2915 9.87824 17.8063 9.51667 17.2736 9.1231C16.6459 8.65913 16.0046 8.18237 15.4176 7.7056C15.5228 7.54562 15.5839 7.35683 15.5805 7.15525C15.5805 7.09445 15.5703 7.03366 15.5568 6.97286C16.8393 6.4417 18.5833 6.02573 19.9371 5.73456C20.575 6.30091 21.2366 6.86727 21.905 7.42403C21.2875 7.99038 20.6496 8.55674 20.0321 9.1071ZM14.3421 5.2162C14.2708 5.55537 14.203 5.87855 14.1283 6.19532C13.9519 6.24652 13.7924 6.33291 13.6601 6.4609C12.5743 5.99374 11.4207 5.52657 10.2603 5.09141C10.6302 4.88342 10.9966 4.67864 11.3597 4.47705L11.4648 4.41946C11.7668 4.25307 12.0654 4.08348 12.3572 3.9203C13.1036 3.9331 13.8569 3.95869 14.6067 3.99069C14.5117 4.40026 14.4269 4.80983 14.3421 5.2162ZM8.21777 12.47C8.19742 12.5468 8.18724 12.63 8.19063 12.7132C8.19063 12.7356 8.19742 12.7548 8.19742 12.7772C7.61722 13.2828 7.02006 13.7851 6.39236 14.3163L6.3245 14.3739C5.57126 15.0074 4.73659 15.7114 3.92567 16.4281C4.248 14.8347 4.66534 13.1004 5.1675 11.2605C5.82913 11.5133 6.5145 11.7853 7.17613 12.0541L7.52222 12.1949C7.75972 12.2877 7.99045 12.3804 8.21777 12.47ZM10.1212 19.8935C10.1212 19.9191 10.128 19.9415 10.1314 19.9671C9.25602 20.4662 8.29921 21.087 7.31864 21.7845C6.14467 20.783 5.10303 19.9319 4.153 19.1991C6.01574 19.2599 8.59439 19.4711 10.1212 19.8935ZM12.0349 20.5686C12.1265 20.479 12.1977 20.3766 12.2486 20.2678C12.9849 20.383 13.8637 20.5366 14.756 20.7126C14.7153 22.0757 14.661 23.5284 14.5762 25.2499L13.8433 25.1603C13.4769 24.2931 13.0595 23.4452 12.6897 22.6933C12.4081 22.1173 12.0756 21.4421 11.7668 20.751C11.8652 20.703 11.9568 20.6454 12.0349 20.5686ZM24.8501 19.2855C24.8365 19.2983 24.8263 19.3175 24.8128 19.3303C24.0358 18.8599 23.2418 18.396 22.4445 17.9384C22.8415 17.564 23.2724 17.1769 23.7508 16.7577C24.2054 17.5033 24.6465 18.2936 25.0605 19.1159C24.9858 19.1671 24.9146 19.2215 24.8501 19.2855ZM22.0305 4.66904C21.4402 4.78423 20.826 4.90582 20.2051 5.03701C19.9371 4.79703 19.6792 4.56345 19.4315 4.33946C20.3714 4.43866 21.24 4.54745 22.0305 4.66904ZM15.2209 6.4257C15.1055 6.32651 14.9664 6.25292 14.8137 6.20492C14.8782 5.91054 14.9426 5.61617 15.0037 5.32499C15.0885 4.90582 15.1835 4.46425 15.2887 4.02589C16.3168 4.07708 17.3245 4.14748 18.2847 4.23387C18.6342 4.56345 18.9972 4.89302 19.3603 5.2226C17.5213 5.62896 16.1912 6.01613 15.2209 6.4257ZM15.0987 2.29802C15.1055 2.30442 15.1123 2.31082 15.1225 2.31402C14.9969 2.634 14.8782 2.98277 14.773 3.37314C14.3082 3.35394 13.8569 3.33794 13.4124 3.32514C13.996 2.98597 14.583 2.6372 15.0987 2.29802ZM15.4516 3.40834C15.5466 3.07556 15.6484 2.78118 15.7569 2.50601H15.7773C15.9843 2.50281 16.1811 2.44521 16.3507 2.34282C16.7443 2.74279 17.1447 3.14276 17.562 3.54593C16.8664 3.49153 16.1573 3.44673 15.4516 3.40834ZM11.017 3.94269L10.8304 4.04509C10.3859 4.29467 9.93122 4.54745 9.47996 4.80343C9.2187 4.70744 8.96762 4.62104 8.71315 4.53145C8.74368 4.41626 8.76743 4.30107 8.76404 4.17628C8.76065 4.10268 8.75047 4.02909 8.7369 3.95549C9.40871 3.9235 10.1789 3.9075 11.0238 3.9075C11.0407 3.9075 11.0577 3.9075 11.078 3.9075C11.0577 3.9203 11.0373 3.9299 11.017 3.94269ZM7.18292 5.52657C7.24399 5.68016 7.30846 5.84975 7.37292 6.03213C7.09131 6.20492 6.81987 6.37131 6.5654 6.53449C6.67397 6.18572 6.79273 5.83055 6.90809 5.47538C6.9997 5.50097 7.08792 5.51697 7.18292 5.52657ZM9.02869 11.6925C8.85226 11.7341 8.69279 11.8205 8.56046 11.9293C8.26188 11.8109 7.95991 11.6893 7.64776 11.5645L7.52561 11.5165C6.88095 11.2573 6.09378 10.9406 5.33715 10.6526C5.61537 9.66065 5.92752 8.59834 6.26682 7.49762C6.6604 7.23204 7.0947 6.95046 7.58329 6.64969C7.86151 7.51042 8.11938 8.46715 8.32974 9.25109C8.55368 10.067 8.78101 10.9022 9.02869 11.6925ZM7.23381 22.6325C7.87169 23.1796 8.55368 23.778 9.34085 24.4755C8.07527 24.2419 6.67737 23.9828 5.62215 23.89C6.10735 23.4868 6.65362 23.0612 7.23381 22.6325ZM10.4062 20.5398C10.5827 20.7222 10.8236 20.8438 11.0984 20.8758C11.4173 21.5989 11.7634 22.3093 12.0824 22.9556C12.4454 23.698 12.7745 24.3763 13.0799 25.0675C12.3911 24.9811 11.682 24.8851 10.9966 24.7731C10.8914 24.7539 10.7761 24.7379 10.6641 24.7155C9.81247 23.9572 8.82172 23.0772 7.8174 22.2133C8.71993 21.5701 9.59871 21.007 10.4062 20.5398ZM16.4559 25.493C17.0904 24.2899 17.7317 23.1668 18.451 22.3701C18.607 22.4469 18.7801 22.4949 18.9667 22.4949H18.9904C19.0481 22.4949 19.1024 22.4853 19.1601 22.4757C19.2347 22.6197 19.3094 22.7636 19.3806 22.9076C19.513 23.1668 19.6487 23.426 19.7844 23.6884C18.7495 24.3187 17.7927 24.9491 16.9377 25.5634C16.7782 25.541 16.6154 25.5154 16.4559 25.493ZM19.988 22.6421C19.9099 22.4917 19.8319 22.3413 19.7539 22.1909C19.9507 22.0085 20.0694 21.7589 20.0762 21.4869C20.8091 21.295 22.1527 21.0422 24.5651 20.7254C24.6058 20.815 24.6567 20.9046 24.7178 20.9814C23.2452 21.7109 21.7387 22.5237 20.351 23.346C20.2458 23.1412 20.1407 22.9364 20.0321 22.7316L19.988 22.6421ZM25.0842 14.7227C24.9485 13.8267 24.8467 13.0268 24.7721 12.2909C25.9494 12.2077 26.9198 12.1565 27.8189 12.1309C27.8495 12.2493 27.9038 12.3612 27.975 12.4604C26.9402 13.2444 25.9664 14.0027 25.0842 14.7227ZM20.1033 24.2995C20.4392 24.9299 20.8566 25.6818 21.3316 26.4338C21.3282 26.437 21.3282 26.437 21.3248 26.4402C21.3011 26.4626 21.2841 26.4882 21.2603 26.5138C20.3205 26.2034 19.2415 25.9442 17.9183 25.717C18.5935 25.2531 19.3263 24.7763 20.1033 24.2995ZM26.2446 9.78544C25.6848 9.43987 25.1046 9.0847 24.6465 8.73273C24.694 7.712 24.8433 6.83527 25.0808 6.10253C25.1215 6.08653 25.1623 6.07053 25.1996 6.05133C26.0546 7.43043 27.1573 9.23829 28.1786 11.0717C27.612 10.6238 26.9266 10.2014 26.2446 9.78544ZM23.2758 4.24987C21.983 4.00669 20.4426 3.80191 18.6817 3.64192C18.0879 3.08196 17.5145 2.5252 16.9716 1.97805C19.5876 2.6404 21.7116 3.31874 23.425 4.03869C23.3674 4.10268 23.3199 4.17308 23.2758 4.24987ZM13.9689 2.25642C13.4056 2.5988 12.7881 2.95077 12.1774 3.29634C11.7906 3.28995 11.4139 3.28675 11.0475 3.28675C10.6845 3.28675 10.3282 3.28995 9.9889 3.29634C10.05 3.28035 10.1077 3.26435 10.1687 3.24835C11.3834 2.92837 12.7168 2.5764 13.9689 2.25642ZM5.60858 7.17445C4.81802 7.7248 4.18693 8.23676 3.70173 8.71353C4.30568 7.7856 5.12678 6.88327 5.95806 6.05453C5.8427 6.4321 5.72394 6.80647 5.60858 7.17445ZM15.7264 27.3777C16.1709 27.0033 16.6595 26.6225 17.1922 26.2322C18.2168 26.3922 19.0922 26.5618 19.8692 26.7601C19.3976 26.8401 18.9328 26.9329 18.4951 27.0257C17.579 27.2145 16.6357 27.4065 15.7637 27.4289C15.7536 27.4129 15.74 27.3969 15.7264 27.3777ZM22.0577 26.1298C22.0136 26.133 21.9695 26.1362 21.9254 26.1426C21.4368 25.3714 21.0093 24.6003 20.67 23.9604C22.2409 23.026 23.6999 22.2549 24.8467 21.6821C24.141 22.6421 23.4658 23.7748 22.855 24.8051L22.8143 24.8723C22.5497 25.3202 22.2952 25.7458 22.0577 26.1298ZM25.8612 18.8727C25.8307 18.8727 25.8035 18.8791 25.773 18.8823C25.7017 18.4408 25.6237 17.9864 25.5423 17.5065L25.5185 17.3689C25.4167 16.7801 25.3115 16.1594 25.2098 15.5194C26.2412 14.6683 27.3745 13.7787 28.5858 12.8668C28.6027 12.87 28.6163 12.8764 28.6333 12.8796C28.2566 14.4667 27.0996 17.1065 26.1428 18.8951C26.0512 18.8823 25.9596 18.8727 25.8612 18.8727Z" fill="white"/>
</svg>
