<svg width="23" height="30" viewBox="0 0 23 30" fill="none" xmlns="http://www.w3.org/2000/svg">
<path d="M18.8429 25.125C19.2542 24.8878 19.3874 24.3804 19.1383 23.9887C18.8893 23.5971 18.3563 23.4702 17.9451 23.7074C12.9461 26.7191 6.3369 25.3015 3.1742 20.5412C0.0114884 15.781 1.50016 9.48722 6.49909 6.47549C6.64391 6.38724 6.78872 6.3045 6.93932 6.22176C7.35059 5.98457 7.48382 5.4771 7.23474 5.08547C6.98566 4.69383 6.45275 4.56697 6.04149 4.80415C0.150509 8.17442 -1.76102 15.45 1.77241 21.0597C3.8635 24.3749 7.51857 26.5151 11.5733 26.7798V27.9271H6.6497C6.16892 27.9271 5.78082 28.2967 5.78082 28.7545C5.78082 29.2124 6.16892 29.5819 6.6497 29.5819H18.2347C18.7155 29.5819 19.1036 29.2124 19.1036 28.7545C19.1036 28.2967 18.7155 27.9271 18.2347 27.9271H13.3111V26.7964C15.2689 26.664 17.1631 26.0903 18.8429 25.125Z" fill="white"/>
<path d="M15.4081 6.31546C15.8368 5.58184 16.109 4.77099 16.2075 3.93256C16.2075 1.95232 14.5219 0.347168 12.4424 0.347168C10.3629 0.347168 8.67723 1.95232 8.67723 3.93256C8.7757 4.77099 9.04216 5.58184 9.4766 6.32098C8.79887 6.53059 8.14432 6.81742 7.53031 7.16493C3.00636 9.75192 1.54665 15.3396 4.26334 19.6476C6.98002 23.9556 12.8478 25.3456 17.3718 22.7586C21.8957 20.1716 23.3555 14.5839 20.6388 10.2759C19.4571 8.40051 17.6035 6.99393 15.4139 6.31546H15.4081ZM10.415 3.93256C10.415 2.86797 11.3244 2.00196 12.4424 2.00196C13.5603 2.00196 14.4697 2.86797 14.4697 3.93256C14.3307 4.64412 14.0585 5.3281 13.6588 5.94589C13.375 6.45888 13.0506 7.00496 12.7088 7.52898L12.4424 7.94268L12.1701 7.52347C11.8284 6.97187 11.504 6.45336 11.2201 5.93486C10.8263 5.32259 10.554 4.64412 10.415 3.93256ZM16.4624 21.341C12.7436 23.4205 7.95896 22.2401 5.77518 18.6989C3.59141 15.1576 4.831 10.6014 8.54979 8.52186C9.10588 8.21296 9.7025 7.96474 10.3223 7.79375C10.9016 8.77559 11.5156 9.60851 11.7357 9.90637C12.0079 10.2815 12.5466 10.3752 12.9463 10.116C13.0332 10.0608 13.1085 9.98911 13.1664 9.90637C13.3865 9.60851 13.9716 8.80317 14.5798 7.79375C18.733 8.90798 21.1485 13.0119 19.9784 16.9668C19.4397 18.7926 18.1827 20.3536 16.4739 21.33L16.4624 21.341Z" fill="white"/>
</svg>
