<svg width="35" height="19" viewBox="0 0 35 19" fill="none" xmlns="http://www.w3.org/2000/svg">
<path d="M8.80159 11.8776H12.1371C12.9245 11.8776 12.878 12.5836 12.878 13.0928C12.878 15.6926 14.829 17.4116 17.4988 17.4116C20.1686 17.4116 22.1191 15.6926 22.1191 13.0928C22.1191 12.5836 22.0731 11.8776 22.8606 11.8776H26.196C26.1083 11.0555 26.1801 9.96906 26.1801 9.119C18.9808 6.00866 16.0142 6.02119 8.81754 9.119C8.81798 9.96906 8.88973 11.0555 8.80159 11.8776ZM17.4988 8.97655C19.2877 8.97655 20.7369 10.3438 20.7369 12.0309C20.7369 13.7181 19.2877 15.0849 17.4988 15.0849C15.7099 15.0849 14.2608 13.7181 14.2608 12.0309C14.2612 10.3438 15.7104 8.97655 17.4988 8.97655ZM17.4988 10.4557C16.5771 10.4557 15.8286 11.1612 15.8286 12.0309C15.8286 12.9002 16.5771 13.6061 17.4988 13.6061C18.4209 13.6061 19.169 12.9002 19.169 12.0309C19.169 11.1612 18.4209 10.4557 17.4988 10.4557ZM6.24961 4.80479H4.8775V3.69784C4.56349 3.55373 4.30838 3.3127 4.15513 3.01654H1.18283C0.280202 3.01654 0.280202 1.72203 1.18283 1.72203H4.15513C4.40891 1.23037 4.94482 0.891602 5.56355 0.891602C6.18228 0.891602 6.71908 1.23037 6.97286 1.72203H9.94472C10.8469 1.72203 10.8469 3.01654 9.94472 3.01654H6.97286C6.81962 3.3127 6.56451 3.55289 6.24961 3.69784V4.80479ZM30.1206 4.80479H28.7485V3.69784C28.434 3.55373 28.1793 3.3127 28.0257 3.01654H25.0538C24.1512 3.01654 24.1512 1.72203 25.0538 1.72203H28.0257C28.2799 1.23037 28.8153 0.891602 29.4345 0.891602C30.0537 0.891602 30.5896 1.23037 30.8438 1.72203H33.8152C34.7179 1.72203 34.7179 3.01654 33.8152 3.01654H30.8438C30.6906 3.3127 30.4355 3.55289 30.1206 3.69784V4.80479ZM26.7364 13.2761H23.5993C23.5116 16.5811 20.8994 18.8097 17.4988 18.8097C14.0982 18.8097 11.486 16.5811 11.3988 13.2761H8.2617C6.4653 15.7716 2.35962 14.536 2.35962 11.5735V5.95143C2.35962 5.56546 2.69179 5.25217 3.10059 5.25217H8.07657C8.48581 5.25217 8.81798 5.56546 8.81798 5.95143V7.61312C16.9266 4.59802 18.0715 4.59677 26.1805 7.61312V5.95143C26.1805 5.56546 26.5127 5.25217 26.9215 5.25217H31.8975C32.3067 5.25217 32.6389 5.56546 32.6389 5.95143V11.5735C32.6385 14.5335 28.5341 15.7737 26.7364 13.2761ZM31.1561 6.65028H27.6625V11.5735C27.6625 13.7406 31.1561 13.7406 31.1561 11.5735V6.65028ZM7.33515 6.65028H3.84156V11.5735C3.84156 13.7406 7.33515 13.7406 7.33515 11.5735V6.65028Z" fill="white"/>
</svg>
