<svg width="20" height="29" viewBox="0 0 20 29" fill="none" xmlns="http://www.w3.org/2000/svg">
<g clip-path="url(#clip0)">
<path d="M17.4825 0.17627H2.62802C1.53859 0.17627 0.655273 1.01454 0.655273 2.04841V26.6028C0.655273 27.6367 1.53859 28.4749 2.62802 28.4749H17.4825C18.5719 28.4749 19.4553 27.6367 19.4553 26.6028V2.04841C19.4553 1.01454 18.5646 0.17627 17.4825 0.17627ZM2.62802 1.0844H17.4825C18.0419 1.0844 18.4983 1.51751 18.4983 2.04841V3.04037H1.6122V2.04841C1.6122 1.51751 2.06858 1.0844 2.62802 1.0844ZM18.4983 3.94849V21.9993H1.6122V3.94849H18.4983ZM17.4825 27.5598H2.62802C2.06858 27.5598 1.6122 27.1267 1.6122 26.5958V22.9074H18.491V26.5958C18.4983 27.1267 18.0419 27.5598 17.4825 27.5598Z" fill="white"/>
<path d="M10.0552 23.8574C9.29704 23.8574 8.67871 24.4442 8.67871 25.1707C8.67871 25.8902 9.29704 26.477 10.0552 26.477C10.8134 26.477 11.4391 25.8902 11.4391 25.1707C11.4317 24.4442 10.8134 23.8574 10.0552 23.8574ZM10.0552 25.7785C9.70189 25.7785 9.41481 25.506 9.41481 25.1707C9.41481 24.8354 9.70189 24.556 10.0552 24.556C10.4085 24.556 10.703 24.8284 10.703 25.1707C10.6956 25.506 10.4085 25.7785 10.0552 25.7785Z" fill="white"/>
<path d="M17.0995 14.7134H16.1426V19.9107H17.0995V14.7134Z" fill="white"/>
<path d="M15.2523 13.512H14.2954V19.9108H15.2523V13.512Z" fill="white"/>
<path d="M13.4047 16.2922H12.4478V19.9108H13.4047V16.2922Z" fill="white"/>
<path d="M11.5644 14.7134H10.6074V19.9107H11.5644V14.7134Z" fill="white"/>
<path d="M9.71669 16.5085H8.75977V19.9105H9.71669V16.5085Z" fill="white"/>
<path d="M7.86904 15.5864H6.91211V19.9175H7.86904V15.5864Z" fill="white"/>
<path d="M6.02871 16.9417H5.07178V19.9105H6.02871V16.9417Z" fill="white"/>
<path d="M4.18154 18.248H3.22461V19.9106H4.18154V18.248Z" fill="white"/>
<path d="M12.5508 11.1856C12.5729 11.0528 12.5361 10.9411 12.4477 10.8363C12.3594 10.7315 12.2416 10.6686 12.0944 10.6477C11.9472 10.6267 11.8368 10.6547 11.7337 10.7385C11.3068 11.0319 10.8209 11.1786 10.2836 11.1786C9.73887 11.1786 9.24569 10.983 8.83347 10.5918C8.41389 10.2006 8.20042 9.73256 8.20042 9.19467C8.20042 8.65678 8.41389 8.18874 8.84083 7.79056C9.26777 7.39937 9.7536 7.19679 10.2909 7.19679C10.8209 7.19679 11.2994 7.34348 11.7263 7.63688C11.8441 7.72769 11.9619 7.76262 12.1018 7.74166C12.2416 7.72071 12.3594 7.65784 12.4477 7.55305C12.5361 7.44827 12.5655 7.32951 12.5508 7.1898C12.5287 7.05009 12.4698 6.93832 12.3594 6.86148C11.9545 6.56808 11.5202 6.37947 11.0565 6.28167V5.42943C11.0565 5.25479 10.9093 5.2478 10.7252 5.2478C10.5412 5.2478 10.394 5.25479 10.394 5.42943V6.21182C10.3866 6.21182 10.3719 6.21182 10.3646 6.21182C10.0996 6.21182 9.85665 6.25373 9.61374 6.30961V5.42943C9.61374 5.25479 9.46652 5.2478 9.28249 5.2478C9.09847 5.2478 8.95125 5.25479 8.95125 5.42943V6.54014C8.65681 6.67985 8.37709 6.85449 8.11945 7.092C7.48641 7.67879 7.17725 8.36338 7.17725 9.18768C7.17725 9.99801 7.49377 10.7105 8.11945 11.2903C8.36973 11.5279 8.65681 11.7025 8.95125 11.8422V12.918C8.95125 13.0926 9.09847 13.0996 9.28249 13.0996C9.46652 13.0996 9.61374 13.0926 9.61374 12.918V12.0797C9.85665 12.1356 10.1069 12.1705 10.3646 12.1705C10.3719 12.1705 10.3866 12.1705 10.394 12.1705V12.925C10.394 13.0996 10.5412 13.1066 10.7252 13.1066C10.9093 13.1066 11.0565 13.0996 11.0565 12.925V12.0937C11.5129 11.9959 11.9545 11.8213 12.3667 11.5418C12.4624 11.437 12.5361 11.3253 12.5508 11.1856Z" fill="white"/>
</g>
<defs>
<clipPath id="clip0">
<rect x="0.655273" y="0.17627" width="18.8" height="28.2917" fill="white"/>
</clipPath>
</defs>
</svg>
