<svg width="32" height="31" viewBox="0 0 32 31" fill="none" xmlns="http://www.w3.org/2000/svg">
<path d="M2.99996 18.298C3.05496 17.6214 3.48497 17.5106 3.57497 17.4941C3.84997 17.4587 4.04248 17.2159 4.00497 16.9565C3.96747 16.6972 3.70997 16.5157 3.43497 16.551C2.97746 16.6076 2.08994 17.0226 2.00244 18.2391C2.00244 18.2391 2.00244 18.2603 2.00244 18.2721V19.3873C2.00244 19.6466 2.22745 19.8588 2.50245 19.8588C2.77745 19.8588 3.00246 19.6466 3.00246 19.3873L2.99996 18.298Z" fill="white"/>
<path d="M2.5 21.7451C2.77614 21.7451 3 21.5339 3 21.2735C3 21.0131 2.77614 20.802 2.5 20.802C2.22386 20.802 2 21.0131 2 21.2735C2 21.5339 2.22386 21.7451 2.5 21.7451Z" fill="white"/>
<path d="M5.00003 15.1436C6.52005 15.1436 7.75006 13.9837 7.75006 12.5502C7.75006 11.1168 6.52005 9.95679 5.00003 9.95679C3.48001 9.95679 2.25 11.1168 2.25 12.5502C2.25 13.9837 3.48001 15.1436 5.00003 15.1436ZM5.00003 10.8998C5.96754 10.8998 6.75005 11.6378 6.75005 12.5502C6.75005 13.4626 5.96754 14.2006 5.00003 14.2006C4.03252 14.2006 3.25001 13.4626 3.25001 12.5502C3.25001 11.6378 4.03252 10.8998 5.00003 10.8998Z" fill="white"/>
<path d="M16 5.47714C17.52 5.47714 18.7501 4.31717 18.7501 2.88371C18.7501 1.45025 17.52 0.290283 16 0.290283C14.48 0.290283 13.25 1.45025 13.25 2.88371C13.25 4.31717 14.48 5.47714 16 5.47714ZM16 1.23335C16.9675 1.23335 17.7501 1.9713 17.7501 2.88371C17.7501 3.79613 16.9675 4.53408 16 4.53408C15.0325 4.53408 14.25 3.79613 14.25 2.88371C14.25 1.9713 15.0325 1.23335 16 1.23335Z" fill="white"/>
<path d="M21.75 8.30646C23.27 8.30646 24.5001 7.14649 24.5001 5.71304C24.5001 4.27959 23.27 3.11963 21.75 3.11963C20.23 3.11963 19 4.27959 19 5.71304C19 7.14649 20.23 8.30646 21.75 8.30646ZM21.75 4.06269C22.7175 4.06269 23.5001 4.80063 23.5001 5.71304C23.5001 6.62545 22.7175 7.3634 21.75 7.3634C20.7825 7.3634 20 6.62545 20 5.71304C20 4.80063 20.7825 4.06269 21.75 4.06269Z" fill="white"/>
<path d="M10.25 8.30646C11.77 8.30646 13 7.14649 13 5.71304C13 4.27959 11.77 3.11963 10.25 3.11963C8.73 3.11963 7.5 4.27959 7.5 5.71304C7.5 7.14649 8.73 8.30646 10.25 8.30646ZM10.25 4.06269C11.2175 4.06269 12 4.80063 12 5.71304C12 6.62545 11.2175 7.3634 10.25 7.3634C9.2825 7.3634 8.5 6.62545 8.5 5.71304C8.5 4.80063 9.2825 4.06269 10.25 4.06269Z" fill="white"/>
<path d="M18.7501 12.5502C18.7501 11.1168 17.52 9.95679 16 9.95679C14.48 9.95679 13.25 11.1168 13.25 12.5502C13.25 13.9837 14.48 15.1436 16 15.1436C17.52 15.1436 18.7501 13.9837 18.7501 12.5502ZM16 14.2006C15.0325 14.2006 14.25 13.4626 14.25 12.5502C14.25 11.6378 15.0325 10.8998 16 10.8998C16.9675 10.8998 17.7501 11.6378 17.7501 12.5502C17.7501 13.4626 16.9675 14.2006 16 14.2006Z" fill="white"/>
<path d="M24.2501 19.3874C24.2501 17.9539 23.02 16.7939 21.5 16.7939C19.98 16.7939 18.75 17.9539 18.75 19.3874C18.75 20.8208 19.98 21.9808 21.5 21.9808C23.02 21.9808 24.2501 20.8208 24.2501 19.3874ZM21.5 21.0377C20.5325 21.0377 19.75 20.2998 19.75 19.3874C19.75 18.4749 20.5325 17.737 21.5 17.737C22.4675 17.737 23.2501 18.4749 23.2501 19.3874C23.2501 20.2998 22.4675 21.0377 21.5 21.0377Z" fill="white"/>
<path d="M8.49993 25.1352C8.55493 24.4586 8.98492 24.3478 9.07492 24.3313C9.34992 24.2959 9.54241 24.0531 9.50491 23.7937C9.46741 23.5344 9.20992 23.3528 8.93492 23.3882C8.47743 23.4448 7.58994 23.8597 7.50244 25.0763C7.50244 25.0763 7.50244 25.0975 7.50244 25.1093V26.2245C7.50244 26.4838 7.72744 26.696 8.00243 26.696C8.27743 26.696 8.50243 26.4838 8.50243 26.2245L8.49993 25.1352Z" fill="white"/>
<path d="M8 28.5822C8.27614 28.5822 8.5 28.3711 8.5 28.1107C8.5 27.8503 8.27614 27.6392 8 27.6392C7.72386 27.6392 7.5 27.8503 7.5 28.1107C7.5 28.3711 7.72386 28.5822 8 28.5822Z" fill="white"/>
<path d="M24.4999 25.1187C24.4999 25.1187 24.4999 25.0975 24.4999 25.0857C24.4124 23.881 23.5224 23.4542 23.0673 23.3976C22.7948 23.3599 22.5398 23.5367 22.4998 23.7961C22.4548 24.0531 22.6423 24.2959 22.9148 24.336C22.9173 24.336 22.9223 24.336 22.9248 24.3384C23.0123 24.3525 23.4449 24.461 23.4999 25.1423V26.2245C23.4999 26.4838 23.7249 26.696 23.9999 26.696C24.2749 26.696 24.4999 26.4838 24.4999 26.2245V25.1187Z" fill="white"/>
<path d="M24 28.5822C24.2761 28.5822 24.5 28.3711 24.5 28.1107C24.5 27.8503 24.2761 27.6392 24 27.6392C23.7239 27.6392 23.5 27.8503 23.5 28.1107C23.5 28.3711 23.7239 28.5822 24 28.5822Z" fill="white"/>
<path d="M30.0004 18.2816C30.0004 18.2816 30.0004 18.2604 30.0004 18.2486C29.9129 17.0438 29.0228 16.6171 28.5678 16.5605C28.2953 16.5228 28.0403 16.6996 28.0003 16.9589C27.9553 17.2159 28.1428 17.4588 28.4153 17.4988C28.4178 17.4988 28.4228 17.4988 28.4253 17.5012C28.5128 17.5153 28.9453 17.6238 29.0003 18.3052V19.3873C29.0003 19.6467 29.2254 19.8589 29.5004 19.8589C29.7754 19.8589 30.0004 19.6467 30.0004 19.3873V18.2816Z" fill="white"/>
<path d="M29.5 21.7451C29.7761 21.7451 30 21.5339 30 21.2735C30 21.0131 29.7761 20.802 29.5 20.802C29.2239 20.802 29 21.0131 29 21.2735C29 21.5339 29.2239 21.7451 29.5 21.7451Z" fill="white"/>
<path d="M13.3601 21.6694C13.0776 21.983 12.7401 22.2494 12.3601 22.4545C13.5451 22.4616 14.5001 23.3693 14.5001 24.4868V29.4968C14.5001 29.5133 14.4876 29.5251 14.4701 29.5251H6.53005C6.51255 29.5251 6.50005 29.5133 6.50005 29.4968V24.4868C6.49755 23.3693 7.45256 22.4616 8.63757 22.4521C8.25756 22.247 7.92006 21.9806 7.63756 21.667C7.04006 21.858 6.52005 22.214 6.13755 22.6855H1.03001C1.01501 22.6855 1.00251 22.6738 1.00001 22.6596V17.6496C0.997508 16.5321 1.95252 15.6244 3.13752 15.6149C2.75752 15.4098 2.42002 15.1434 2.13752 14.8298C0.860007 15.2424 0 16.3765 0 17.6496V22.6596C0.00250002 23.1948 0.462504 23.6286 1.03001 23.631H5.63504C5.54504 23.9092 5.50004 24.1968 5.50004 24.4868V29.4968C5.50254 30.032 5.96255 30.4658 6.53005 30.4682H14.4701C15.0401 30.4682 15.5001 30.0344 15.5001 29.4968V24.4868C15.4976 23.2137 14.6376 22.0796 13.3601 21.6694Z" fill="white"/>
<path d="M13.25 19.3874C13.25 17.9539 12.02 16.7939 10.5 16.7939C8.98 16.7939 7.75 17.9539 7.75 19.3874C7.75 20.8208 8.98 21.9808 10.5 21.9808C12.02 21.9808 13.25 20.8208 13.25 19.3874ZM8.75 19.3874C8.75 18.4749 9.5325 17.737 10.5 17.737C11.4675 17.737 12.25 18.4749 12.25 19.3874C12.25 20.2998 11.4675 21.0377 10.5 21.0377C9.5325 21.0377 8.75 20.2998 8.75 19.3874Z" fill="white"/>
<path d="M8.82485 10.8999C9.09985 10.8645 9.29235 10.6217 9.25485 10.3623C9.21735 10.103 8.95985 9.92143 8.68485 9.9568C8.39485 10.0039 8.12235 10.1265 7.90234 10.3104C8.11985 10.5604 8.29985 10.8386 8.43735 11.1356C8.52985 11.013 8.66985 10.9305 8.82485 10.8999Z" fill="white"/>
<path d="M24.25 12.5502C24.25 13.9837 25.48 15.1436 27 15.1436C28.52 15.1436 29.75 13.9837 29.75 12.5502C29.75 11.1168 28.52 9.95679 27 9.95679C25.48 9.95679 24.25 11.1168 24.25 12.5502ZM27 10.8998C27.9675 10.8998 28.75 11.6378 28.75 12.5502C28.75 13.4626 27.9675 14.2006 27 14.2006C26.0325 14.2006 25.25 13.4626 25.25 12.5502C25.25 11.6378 26.0325 10.8998 27 10.8998Z" fill="white"/>
<path d="M8.38776 8.77776C8.00776 8.57265 7.67026 8.30624 7.38776 7.99268C6.75525 8.19779 6.20775 8.58444 5.82275 9.10075C6.16525 9.17384 6.49525 9.28936 6.80275 9.44968C7.20525 9.02295 7.78276 8.78012 8.38776 8.77776Z" fill="white"/>
<path d="M12.1128 8.77777C12.8128 8.78013 13.4653 9.10548 13.8628 9.64774C14.1378 9.4662 14.4353 9.32238 14.7503 9.21629C14.3653 8.64338 13.7853 8.21194 13.1053 7.99268C12.8253 8.30624 12.4903 8.57265 12.1128 8.77777Z" fill="white"/>
<path d="M17.25 9.21629C17.5675 9.32238 17.8675 9.4662 18.145 9.64774C18.5425 9.10548 19.195 8.78013 19.895 8.77777C19.515 8.57265 19.1775 8.30624 18.895 7.99268C18.215 8.21194 17.635 8.64338 17.25 9.21629Z" fill="white"/>
<path d="M23.6128 8.77786C24.2178 8.78022 24.7928 9.02541 25.1953 9.45215C25.5028 9.29183 25.8328 9.1763 26.1753 9.10322C25.7903 8.58689 25.2428 8.20023 24.6103 7.99512C24.3278 8.30869 23.9903 8.57274 23.6128 8.77786Z" fill="white"/>
<path d="M23.1748 10.8997C23.3298 10.9303 23.4698 11.0128 23.5623 11.1354C23.6998 10.836 23.8799 10.5578 24.0999 10.3055C23.8774 10.1216 23.6048 10.0014 23.3148 9.9566C23.0423 9.92124 22.7873 10.1004 22.7498 10.3574C22.7048 10.6144 22.8923 10.8572 23.1648 10.8973C23.1673 10.8997 23.1723 10.8997 23.1748 10.8997Z" fill="white"/>
<path d="M24.1401 14.8323C23.4876 15.0445 22.925 15.4523 22.54 15.9923C22.8675 16.0819 23.18 16.2139 23.47 16.3836C23.8726 15.9027 24.4876 15.6197 25.1376 15.615C24.7601 15.4099 24.4226 15.1458 24.1401 14.8323Z" fill="white"/>
<path d="M20.4628 15.9923C20.0778 15.4523 19.5153 15.0445 18.8628 14.8323C18.5803 15.1458 18.2428 15.4123 17.8628 15.6174C18.5128 15.6221 19.1278 15.905 19.5303 16.386C19.8203 16.2139 20.1353 16.0818 20.4628 15.9923Z" fill="white"/>
<path d="M13.1401 14.8323C12.4876 15.0445 11.925 15.4523 11.54 15.9923C11.8675 16.0819 12.18 16.2139 12.4701 16.3836C12.8726 15.9027 13.4876 15.6197 14.1376 15.615C13.7601 15.4099 13.4226 15.1458 13.1401 14.8323Z" fill="white"/>
<path d="M6.86279 15.615C7.51279 15.6197 8.12778 15.9027 8.53028 16.3836C8.82027 16.2139 9.13277 16.0819 9.46027 15.9923C9.07527 15.4523 8.51278 15.0445 7.86028 14.8323C7.57779 15.1458 7.24029 15.4099 6.86279 15.615Z" fill="white"/>
<path d="M29.8602 14.8323C29.5777 15.1458 29.2402 15.4123 28.8602 15.6174C30.0452 15.6244 31.0002 16.5321 31.0002 17.6497V22.6597C31.0002 22.6762 30.9877 22.688 30.9702 22.688H25.8551C25.4726 22.2164 24.9526 21.8604 24.3551 21.6695C24.0726 21.983 23.7351 22.2495 23.3551 22.4546C24.5401 22.464 25.4951 23.3717 25.4926 24.4892V29.4992C25.4926 29.5157 25.4801 29.5275 25.4626 29.5275H17.5301C17.5126 29.5275 17.5001 29.5157 17.5001 29.4992V24.4869C17.4976 23.3693 18.4526 22.4616 19.6376 22.4522C19.2576 22.2471 18.9201 21.9807 18.6376 21.6671C17.3551 22.0797 16.4926 23.2184 16.4976 24.4963V29.5063C16.5051 30.0391 16.9651 30.4682 17.5301 30.4682H25.4701C26.0401 30.4682 26.5001 30.0344 26.5001 29.4969V24.4869C26.5001 24.1969 26.4551 23.9092 26.3651 23.631H30.9702C31.5402 23.631 32.0002 23.1972 32.0002 22.6597V17.6497C31.9977 16.3765 31.1377 15.2425 29.8602 14.8323Z" fill="white"/>
<path d="M14.3253 17.5012C14.6003 17.4658 14.7928 17.223 14.7553 16.9636C14.7178 16.7043 14.4603 16.5227 14.1853 16.5581C13.8377 16.6171 13.5202 16.7821 13.2827 17.0296C13.5202 17.2796 13.7202 17.5578 13.8752 17.8595C13.9577 17.6803 14.1253 17.5483 14.3253 17.5012Z" fill="white"/>
</svg>
