<svg width="18" height="29" viewBox="0 0 18 29" fill="none" xmlns="http://www.w3.org/2000/svg">
<path d="M3.63925 16.3613H13.9219C15.1243 16.3613 15.9592 16.1752 16.8725 15.3175C17.893 14.3504 18 13.3431 18 12.0037V4.35767C18 3.0146 17.8894 2.01095 16.8725 1.0438C15.9627 0.186132 15.1243 0 13.9219 0H1.81963C0.874135 0 0 0.521897 0 1.86131C0 3.20073 0.874135 3.72263 1.81963 3.72263H14.3608V12.6387H4.11378C1.38435 12.6387 0 14.0547 0 16.8467V29H16.1804C17.1259 29 18 28.4781 18 27.1387C18 25.7993 17.1259 25.2774 16.1804 25.2774H3.63925V16.3613Z" fill="#F9B000"/>
</svg>
