<svg width="19" height="29" viewBox="0 0 19 29" fill="none" xmlns="http://www.w3.org/2000/svg">
<path d="M15.1586 3.72263V9.91606C15.1586 12.0036 14.3112 12.6387 13.2341 12.6387H5.69435C4.69256 12.6387 3.76987 13.1606 3.76987 14.5C3.76987 15.8394 4.69256 16.3613 5.69435 16.3613H13.2341C14.3112 16.3613 15.1586 16.9964 15.1586 19.0839V25.2774H1.92449C0.922701 25.2774 0 25.7993 0 27.1387C0 28.4781 0.922701 29 1.92449 29H15.1586C17.3467 29 19 27.3978 19 25.2774V18.1168C19 16.6241 18.6912 15.5438 17.5011 14.5C18.6912 13.4562 19 12.3759 19 10.8869V3.72263C19 1.60219 17.3467 0 15.1586 0H1.92449C0.922701 0 0 0.521897 0 1.86131C0 3.20073 0.922701 3.72263 1.92449 3.72263H15.1586Z" fill="#F9B000"/>
</svg>
