<svg width="16" height="29" viewBox="0 0 16 29" fill="none" xmlns="http://www.w3.org/2000/svg">
<path d="M3.59944 15.8046V1.86475C3.59944 0.934206 3.16891 1.71661e-05 1.7997 1.71661e-05C0.43049 1.71661e-05 -3.71933e-05 0.930557 -3.71933e-05 1.86475V19.5304H10.5972V27.1353C10.5972 28.3286 11.1019 29 12.397 29C13.6921 29 14.1967 28.3286 14.1967 27.1353V19.5304C15.1354 19.5304 16 19.0086 16 17.6693C16 16.3301 15.1354 15.8082 14.1967 15.8082V5.03588C14.1967 4.10534 13.7662 3.17115 12.397 3.17115C11.0278 3.17115 10.5972 4.10169 10.5972 5.03588V15.8082H3.59944V15.8046Z" fill="#F9B000"/>
</svg>
