<svg width="19" height="29" viewBox="0 0 19 29" fill="none" xmlns="http://www.w3.org/2000/svg">
<path d="M7.65047 3.72263H17.0789C18.0771 3.72263 19 3.20073 19 1.86131C19 0.521897 18.0771 0 17.0789 0H3.80828V16.3613H15.1578V25.2774H6.26805C5.65405 25.2774 4.76883 24.7555 4.23017 24.5329L3.07751 24.0474C2.65562 23.8613 2.30909 23.7482 1.84577 23.7482C0.843784 23.7482 0 24.6423 0 25.6131C0 26.9161 1.15266 27.2518 2.19231 27.6971L3.65385 28.3285C4.6144 28.7372 5.19072 29 6.18893 29H14.7322C16.1146 29 17.1166 28.8504 18.0771 27.7336C18.8832 26.8029 19 25.9854 19 24.8285V16.8467C19 15.5438 18.8832 14.6496 17.8097 13.6825C16.8868 12.8248 15.9639 12.6387 14.7359 12.6387H7.65047V3.72263Z" fill="#F9B000"/>
</svg>
