<svg width="18" height="29" viewBox="0 0 18 29" fill="none" xmlns="http://www.w3.org/2000/svg">
<path d="M14.3642 3.72263V8.86861C14.3642 10.5073 14.4355 10.4708 13.2332 11.5511L8.20248 15.9891C7.29268 16.8102 7.25701 16.9197 7.25701 18.1496V27.135C7.25701 28.3285 7.76721 29 9.07661 29C10.386 29 10.8962 28.3285 10.8962 27.135V19.9015C10.8962 18.5985 10.9711 18.5219 11.9166 17.6642L17.0186 13.1533C18.039 12.2591 17.9998 12.1095 17.9998 10.8066V0H1.81962C0.656497 0 0 1.0438 0 1.86131V3.72263C0 4.5438 0.656497 5.58759 1.81962 5.58759C2.9863 5.58759 3.63921 4.5438 3.63921 3.72263H14.3642Z" fill="#F9B000"/>
</svg>
