<svg width="18" height="29" viewBox="0 0 18 29" fill="none" xmlns="http://www.w3.org/2000/svg">
<path d="M14.3615 25.2774H3.64567V16.3613H14.3615V25.2774ZM10.7158 12.6387H7.28775V3.72263H10.7158V12.6387ZM18 25.2774V16.4015C18 15.2482 17.6718 14.3175 17.0155 13.6825C16.3591 13.0511 15.4851 12.6387 14.3543 12.6387V1.86131C14.3543 0.89416 13.7729 0 12.5351 0H5.46492C4.22711 0 3.64567 0.89416 3.64567 1.86131V12.6387C2.51487 12.6387 1.64091 13.0474 0.984545 13.6825C0.328184 14.3139 0 15.2445 0 16.4015V25.2774C0 27.5474 1.38407 29 3.63853 29H14.3543C16.6159 29 18 27.5474 18 25.2774Z" fill="#F9B000"/>
</svg>
