<svg width="24" height="24" viewBox="0 0 24 24" fill="none" xmlns="http://www.w3.org/2000/svg">
<path fill-rule="evenodd" clip-rule="evenodd" d="M21.2079 0.29248C21.1882 0.29248 21.1658 0.2981 21.149 0.303708L20.7143 0.477564L19.96 0.769189C19.932 0.780406 19.9067 0.800038 19.8871 0.825276L19.6824 1.08606C19.6235 1.15897 19.6375 1.26832 19.7132 1.32441C19.7188 1.32721 19.7217 1.33002 19.7273 1.33283L19.831 1.40012L19.5085 1.62445L19.2197 1.59922C19.1748 1.59642 19.1328 1.60764 19.0991 1.63568L18.7178 1.94694L18.2635 1.73101C18.2158 1.70858 18.1597 1.70858 18.1121 1.73382L17.5597 2.02544C17.4867 2.0647 17.4503 2.15164 17.4783 2.23016L17.5821 2.53861L17.2736 2.73209L16.9904 2.36194C16.968 2.3311 16.9343 2.30867 16.8979 2.30026L16.3174 2.15444C16.2249 2.13201 16.1323 2.18809 16.1099 2.27782C16.1071 2.29184 16.1043 2.30587 16.1043 2.31989V2.38158L15.8295 2.49934L15.3247 2.51617L15.521 2.17126C15.5631 2.09555 15.5435 2.00302 15.4762 1.94974L15.2434 1.77589C15.2266 1.76467 15.2098 1.75344 15.1901 1.74783L14.6966 1.60203C14.6574 1.59081 14.6125 1.59361 14.576 1.61043L13.9703 1.89927L13.1908 2.21612C13.1319 2.24136 13.0926 2.29464 13.0842 2.35633L12.6075 2.37596C12.5122 2.38157 12.4421 2.46009 12.4449 2.55262C12.4449 2.56945 12.4477 2.58627 12.4533 2.6031L12.4926 2.70966L12.358 2.67601L12.1589 2.56664L12.1757 2.41803C12.1869 2.32549 12.1196 2.24137 12.0243 2.23016C11.985 2.22735 11.9486 2.23576 11.9149 2.25539L10.9839 2.83585C10.9783 2.83865 10.9727 2.84425 10.9671 2.84706L10.3502 3.35182L9.56502 3.63223C9.54259 3.64064 9.52296 3.65186 9.50614 3.66869L8.92568 4.2211C8.92007 4.22671 8.91446 4.23231 8.91166 4.23792L8.23025 5.08197L7.9246 5.10441C7.83486 5.11002 7.76756 5.18573 7.76756 5.27546V5.60915L7.43387 5.5727C7.34133 5.56148 7.25721 5.62878 7.24599 5.72412C7.24599 5.72973 7.24599 5.73814 7.24599 5.74375V6.12232C7.24599 6.1784 7.27403 6.22888 7.3189 6.26253L7.5881 6.45321L7.4535 6.52612C7.39181 6.55977 7.35535 6.62987 7.36657 6.69997L7.41424 7.03646L7.36377 7.01963L7.27684 6.9327C7.26282 6.91868 7.2488 6.91028 7.23197 6.90186L7.13943 6.857L7.00483 6.56255C6.9824 6.51208 6.93473 6.47563 6.88145 6.46442L6.5786 6.40833L6.17481 6.24009C6.1047 6.21205 6.02338 6.23168 5.97571 6.29337L5.77101 6.55415C5.75699 6.57378 5.74577 6.5934 5.74016 6.61864L5.66165 6.9327L5.42049 7.25519C5.38964 7.29725 5.37843 7.35054 5.39245 7.40101L5.43451 7.56085C5.44012 7.58609 5.45414 7.60571 5.46816 7.62534L5.54668 7.71788L5.48218 7.81883L5.1597 7.79639C5.10643 7.79358 5.05315 7.81602 5.01669 7.85528L4.85686 8.04596C4.84564 8.05998 4.83442 8.0768 4.82881 8.09363L4.71104 8.38525C4.69141 8.43573 4.69702 8.49463 4.72506 8.53949L4.86807 8.76102L4.78956 8.87038C4.74189 8.93768 4.74749 9.02741 4.80638 9.0891C4.78675 9.09751 4.76993 9.10593 4.75591 9.11996L4.61009 9.25174C4.56803 9.291 4.5456 9.34988 4.55681 9.40597L4.59327 9.62189L4.39137 10.1575L4.22873 10.107L3.98757 9.68919L4.11376 9.41998L4.23714 9.2966L4.28201 9.25174L4.36613 9.24334C4.45867 9.23493 4.52877 9.15079 4.51755 9.05545C4.51475 9.03302 4.50914 9.00778 4.49512 8.98815L4.26518 8.58716L4.25396 8.6096C4.27359 8.56754 4.2764 8.51986 4.26238 8.47779L4.06328 7.91137L4.02122 7.60851C4.01842 7.58328 4.01 7.55804 3.99598 7.53841L3.71837 7.11498V6.91869C3.71837 6.91308 3.71837 6.90747 3.71837 6.90186C3.71557 6.88504 3.71276 6.86822 3.70435 6.8542C3.69874 6.84298 3.69313 6.83457 3.68753 6.82336C3.68472 6.81775 3.68192 6.81493 3.67631 6.80932C3.66229 6.7925 3.64266 6.77849 3.62303 6.76727C3.61181 6.76166 3.6034 6.75885 3.59218 6.75604C3.58658 6.75324 3.58097 6.75325 3.57536 6.75325C3.56975 6.75325 3.56414 6.75045 3.55853 6.75045C3.54732 6.75045 3.5361 6.75045 3.52488 6.75325C3.50245 6.75606 3.48002 6.76446 3.46039 6.77567C3.45478 6.77848 3.45198 6.78129 3.44637 6.78409C3.43796 6.7897 3.42954 6.79812 3.42113 6.80653C3.41833 6.81214 3.41272 6.81494 3.40991 6.82055C3.40431 6.82896 3.3987 6.84017 3.39309 6.85139C3.38468 6.86822 3.38187 6.88223 3.37907 6.89906C3.37907 6.90466 3.37907 6.91027 3.37907 6.91588V6.91869V7.16545V7.43185L3.34822 7.71788L3.33981 7.72067H3.194L3.02014 7.44026L2.97808 7.31128V7.01963C2.97808 6.96635 2.95284 6.91308 2.90797 6.88223L2.67803 6.73643C2.6584 6.72241 2.63597 6.71118 2.61354 6.70557L2.40883 6.66352L2.3163 6.50929C2.26863 6.43078 2.17048 6.40553 2.08916 6.44759L2.06112 6.3887C2.02466 6.3186 1.94615 6.28216 1.86763 6.29898L1.68256 6.34384C1.6461 6.35225 1.61526 6.37189 1.59283 6.39993L1.07967 7.01684C1.05162 7.05049 1.0376 7.09255 1.04041 7.13742L1.08247 7.81602C1.08808 7.90575 1.16379 7.97586 1.25352 7.97586H1.34886L1.3713 8.17494C1.37691 8.23102 1.41056 8.2787 1.45823 8.30394L1.65732 8.4105L1.7078 8.4722L1.62367 8.51706C1.58441 8.53668 1.55637 8.57315 1.54235 8.6124L1.45542 8.87319L0.838509 9.35549C0.807664 9.38073 0.785231 9.41439 0.776818 9.45365L0.661848 9.98643L0.443124 10.2416C0.403866 10.2865 0.39265 10.351 0.409474 10.4071L0.457145 10.5529L0.280484 11.5988C0.277679 11.6212 0.277679 11.6437 0.283288 11.6661L0.356196 11.9746L0.162709 12.7149C0.154297 12.7373 0.154297 12.7597 0.154297 12.7794L0.215988 13.3963C0.215988 13.3991 0.215988 13.4019 0.215988 13.4075L0.370216 14.3777L0.215988 14.6553C0.201967 14.6806 0.193555 14.7086 0.193555 14.7395V15.5611C0.193555 15.6228 0.224401 15.6789 0.277679 15.7097L0.628198 15.9144C0.647827 15.9256 0.667456 15.934 0.689889 15.9368L1.24511 16.0182C1.25352 16.0182 1.25913 16.021 1.26754 16.021L2.21254 16.0406C2.22096 16.0406 2.23217 16.0406 2.24058 16.0378L3.35103 15.8723C3.38748 15.8667 3.42394 15.8499 3.44917 15.8219L3.85858 15.3928L4.16423 15.1096C4.2119 15.0647 4.22873 14.9974 4.2119 14.9358L4.08852 14.5235C4.08291 14.5039 4.0745 14.4871 4.06048 14.4703L3.84456 14.1814L3.83054 13.9599L4.72786 14.6273C4.74749 14.6413 4.77273 14.6525 4.79797 14.6582L5.68408 14.8236L5.9 15.5078C5.91122 15.5414 5.93085 15.5723 5.95889 15.5919L6.11031 15.7041C6.04021 15.7518 6.01497 15.8443 6.05142 15.9228L6.31782 16.4584C6.34586 16.5173 6.40475 16.5537 6.46924 16.5537H6.75807C6.76368 16.5537 6.76929 16.5537 6.7777 16.5537L6.73564 16.7613C6.73283 16.7781 6.73003 16.7921 6.73283 16.8089L6.83659 18.0624C6.83659 18.0736 6.83939 18.0876 6.845 18.0988C6.845 18.0988 6.95156 18.4522 7.06372 18.8167C7.1198 18.999 7.17589 19.184 7.21795 19.3299C7.26001 19.4729 7.29647 19.5934 7.29647 19.5906C7.31049 19.6495 7.33012 19.6916 7.36377 19.7757C7.39742 19.857 7.43667 19.958 7.47593 20.0561C7.55725 20.2524 7.63296 20.4375 7.63296 20.4375C7.66942 20.5244 7.77037 20.5665 7.8573 20.53C7.8629 20.5272 7.86851 20.5244 7.87693 20.5216L8.30876 20.2749C8.31718 20.2692 8.32839 20.2636 8.33681 20.2552L8.64526 19.9888C8.67891 19.958 8.70135 19.9159 8.70415 19.8711L8.72097 19.5738L8.84997 19.2934C8.86399 19.2654 8.86679 19.2373 8.86399 19.2065L8.81631 18.6821L8.88922 18.6681C8.91726 18.6625 8.94531 18.6513 8.96774 18.6316L9.15842 18.4746L9.36032 18.4409C9.39677 18.4353 9.42762 18.4185 9.45286 18.3933L9.5482 18.2979L10.1932 17.81L10.7175 17.6558C10.7596 17.6446 10.7932 17.6165 10.8157 17.5801L10.9391 17.3754C10.9587 17.3417 10.9671 17.2997 10.9615 17.2604L11.0624 17.2099L11.7859 17.1903C11.8252 17.1903 11.8644 17.1735 11.8925 17.1482L11.9878 17.0641L12.086 17.5661C12.0944 17.6053 12.114 17.639 12.142 17.6642L12.3804 17.8661L12.5374 18.1998L12.5907 18.5699L12.5178 18.8223C12.4926 18.912 12.543 19.0074 12.6356 19.0326L12.9244 19.1139C12.9693 19.128 13.0197 19.1195 13.059 19.0971L13.4095 18.884L13.5105 19.0186L13.4796 19.2373C13.474 19.271 13.4796 19.3074 13.4964 19.3383L13.6563 19.6579L13.7208 19.8346L13.7068 19.9355C13.7011 19.9664 13.7068 19.9972 13.718 20.0253L13.7853 20.1907L13.7292 20.2805C13.7124 20.3085 13.7039 20.3421 13.7039 20.373L13.7152 21.0825C13.7152 21.1329 13.7404 21.1806 13.7797 21.2114L14.175 21.5255L14.4499 22.4621C14.4611 22.5042 14.4891 22.5378 14.5256 22.5602L15.3388 23.0538C15.378 23.0762 15.4257 23.0846 15.4678 23.0734L15.5855 23.0454C15.6781 23.0229 15.7313 22.9304 15.7089 22.8379C15.7061 22.8294 15.7033 22.821 15.7005 22.8126L15.5351 22.4285L15.479 21.9293C15.4762 21.9013 15.465 21.8732 15.4481 21.848L15.0696 21.3236C15.0555 21.304 15.0359 21.2871 15.0163 21.2759L14.6826 21.0853L14.6489 20.8497C14.6433 20.8161 14.6321 20.7852 14.6097 20.7628L14.4919 20.6254L14.6181 20.0702C14.6209 20.0589 14.6237 20.0449 14.6237 20.0337V20.0281C14.6574 20.0926 14.7303 20.1262 14.8004 20.115L15.0107 20.0786L15.1509 20.4431C15.1677 20.4852 15.1986 20.5188 15.2406 20.5385L15.6024 20.6983V20.9058C15.6024 21.0011 15.6781 21.0768 15.7734 21.0768C15.7902 21.0768 15.8099 21.074 15.8267 21.0684L16.1744 20.9507C16.2361 20.931 16.281 20.8778 16.2894 20.8133L16.3034 20.7067L17.0577 20.3954C17.1222 20.3702 17.1643 20.3057 17.1643 20.2384V19.6579C17.1643 19.6495 17.1643 19.6411 17.1615 19.6327L17.0465 18.8476C17.0381 18.7887 16.9988 18.7382 16.9455 18.7157L16.5838 18.5615L16.2165 18.0231L16.2754 17.7455L16.696 17.4006L16.8081 17.3698L16.8586 17.5997C16.8782 17.6922 16.968 17.7511 17.0605 17.7315C17.0858 17.7259 17.111 17.7147 17.1306 17.6978L17.5232 17.3894L19.0459 16.6715C19.0823 16.6547 19.1103 16.6238 19.1272 16.5874L20.0862 14.4955C20.103 14.4562 20.1058 14.4142 20.0946 14.3721L19.9207 13.8197C19.9179 13.8085 19.9123 13.7973 19.9067 13.786L19.4412 12.9729C19.4132 12.9252 19.3627 12.8915 19.3066 12.8887L19.2057 12.8803L19.4637 12.4569L19.7217 12.1148C19.7777 12.0391 19.7637 11.9325 19.688 11.8764C19.6572 11.854 19.6235 11.8428 19.5842 11.8428H19.1188C19.0711 11.8428 19.0262 11.8624 18.9926 11.8989L18.8636 12.0419L18.844 11.9858C18.8187 11.9185 18.7542 11.8736 18.6841 11.8736H18.6364V11.8652L18.6561 11.8624C18.7009 11.854 18.7402 11.8316 18.7654 11.7951L19.0795 11.3661L19.0991 11.4923C19.116 11.5848 19.2029 11.6465 19.2954 11.6325C19.3179 11.6297 19.3403 11.6213 19.3599 11.6072L19.6431 11.4278L19.8843 11.4137V11.568L19.8563 11.7278C19.8394 11.8203 19.9039 11.9073 19.9965 11.9241C20.0105 11.9269 20.0273 11.9269 20.0413 11.9269L20.2432 11.9073L20.2797 11.9521L20.2629 12.0503C20.2572 12.0923 20.2657 12.1344 20.2853 12.1681L20.4143 12.3756L20.4956 12.7541C20.5152 12.8467 20.605 12.9056 20.6975 12.8859C20.7199 12.8803 20.7424 12.8719 20.7592 12.8579L21.2527 12.5102C21.2976 12.4793 21.3256 12.426 21.3256 12.37V11.9914C21.3256 11.9802 21.3228 11.9662 21.32 11.9549L21.2611 11.6942C21.2527 11.6577 21.2331 11.6241 21.205 11.6016L20.8405 11.2932L20.6723 11.0688L20.877 10.8221C20.8966 10.7968 20.9106 10.7688 20.9134 10.7379L20.9695 10.3762L21.1013 10.0004L21.1854 10.0481C21.2527 10.0846 21.334 10.0734 21.3873 10.0201L21.679 9.72845C21.7098 9.69761 21.7266 9.65553 21.7294 9.61347L21.7883 7.78237C21.7883 7.76274 21.7855 7.74311 21.7799 7.72348L21.606 7.1991C21.6032 7.19349 21.6004 7.18789 21.5976 7.18228L21.4238 6.80372C21.421 6.80092 21.4182 6.7953 21.4182 6.7925L21.1574 6.32702C21.1321 6.28215 21.0901 6.25411 21.0424 6.2429L20.7508 6.184C20.6695 6.16718 20.5853 6.21485 20.5573 6.29337L20.5096 6.42515L20.3077 6.31019V5.95967L20.4676 5.05113L21.0592 4.58844L21.3453 4.50993C21.4182 4.4903 21.4714 4.423 21.4714 4.34448V4.22952C21.4714 4.22391 21.4714 4.22109 21.4714 4.21548L21.4266 3.65186C21.5107 3.69673 21.6117 3.66308 21.6565 3.57895C21.6621 3.56774 21.6677 3.55652 21.6705 3.5453L21.7182 3.76683C21.7182 3.76963 21.721 3.77243 21.721 3.77804L21.8949 4.41739V4.4202L21.9538 4.6249C21.9594 4.64733 21.9734 4.66976 21.9874 4.68938L22.8006 5.64842C22.809 5.65683 22.8174 5.66523 22.8258 5.67364L23.3194 6.05222C23.3951 6.1083 23.5016 6.09707 23.5577 6.02136C23.5914 5.97649 23.6026 5.9176 23.5858 5.86432L23.3558 5.17171L23.2689 4.82959V4.8268L23.182 4.50713C23.1764 4.48189 23.1623 4.45944 23.1483 4.44262L23.0165 4.28559V4.05845C23.0165 3.98835 22.9745 3.92666 22.91 3.90142L22.6127 3.77804L22.3576 3.35741L22.4893 2.69564C22.495 2.67321 22.495 2.64797 22.4893 2.62273L22.2875 1.75064C22.2762 1.69736 22.237 1.65531 22.1893 1.63287L21.6313 1.39451L21.5556 1.26553L21.8921 1.13373C21.979 1.10008 22.0239 1.00194 21.9874 0.912204C21.9762 0.884162 21.9594 0.861729 21.9369 0.8421L21.3256 0.348567C21.2892 0.306505 21.2499 0.295285 21.2079 0.29248Z" fill="white"/>
</svg>
