<svg width="21" height="25" viewBox="0 0 21 25" fill="none" xmlns="http://www.w3.org/2000/svg">
<path d="M11.0756 24.6296C11.0023 24.5722 10.913 24.5361 10.8763 24.5494C10.8343 24.5642 10.8099 24.5244 10.8099 24.4415C10.8099 24.3687 10.7801 24.2592 10.7435 24.197C10.6903 24.1072 10.6903 24.0795 10.7435 24.0604C10.8418 24.0248 10.8242 23.8032 10.7036 23.5672C10.6451 23.4529 10.5479 23.226 10.4868 23.0634C10.4256 22.9008 10.3215 22.7025 10.255 22.6223C10.1886 22.5425 10.0983 22.4054 10.0547 22.3177C9.96699 22.1418 9.82456 21.4429 9.76769 20.9136C9.74006 20.6574 9.65981 20.4263 9.44403 19.9835C9.28619 19.6594 9.1225 19.3346 9.08051 19.2618C8.98006 19.0875 8.98166 18.5842 9.0837 18.2069C9.12834 18.0416 9.1884 17.82 9.21657 17.7142C9.24473 17.6084 9.32977 17.4602 9.40577 17.3847C9.60347 17.187 9.62845 16.8963 9.48389 16.4684C9.39832 16.2149 9.38185 16.1017 9.42331 16.0518C9.46529 16.0013 9.4233 15.8227 9.26493 15.3768C9.03693 14.7353 8.903 14.4935 8.57881 14.139C8.4688 14.0189 8.32583 13.8164 8.26152 13.6894C8.15204 13.4731 8.14992 13.4476 8.22698 13.285C8.27215 13.1898 8.31892 13.0065 8.33062 12.8784C8.34231 12.7503 8.3811 12.534 8.41618 12.399C8.48527 12.1344 8.44328 11.9994 8.20838 11.7251C8.1074 11.6077 8.0872 11.6045 7.71677 11.656C7.3862 11.7017 7.31658 11.6975 7.23633 11.6241C7.18425 11.5774 7.14226 11.503 7.14226 11.4589C7.14226 11.4148 7.07902 11.2962 7.00196 11.1953L6.86165 11.0114L6.43063 11.0363C6.18403 11.0507 5.93158 11.0975 5.84017 11.1458C5.75248 11.1926 5.52076 11.2946 5.32518 11.3733C4.98664 11.5088 4.95316 11.5125 4.62525 11.4509C4.25747 11.3813 4.11238 11.3972 3.60271 11.5609C3.36833 11.6364 3.24291 11.6513 3.15097 11.6156C3.08081 11.5885 2.8087 11.3813 2.54669 11.1559C2.28468 10.9301 2.01523 10.7207 1.94826 10.6904C1.81274 10.6287 1.66818 10.3779 1.66818 10.2046C1.66818 10.1047 1.42264 9.76136 1.17232 9.51104C1.1229 9.46162 1.05806 9.37552 1.0283 9.31919C0.998004 9.26285 0.941137 9.21715 0.901809 9.21715C0.766817 9.21715 0.657868 8.96789 0.670091 8.68781C0.678595 8.49701 0.656273 8.39497 0.593028 8.33173C0.51012 8.24882 0.511183 8.23341 0.610036 8.0947C0.723769 7.93526 0.920941 7.26242 0.923067 7.02751C0.923599 6.94833 0.897026 6.82343 0.863543 6.75009C0.816775 6.64698 0.817837 6.59756 0.869921 6.53538C0.924662 6.46948 0.920941 6.42962 0.849725 6.3212C0.801893 6.24785 0.737055 6.1878 0.706231 6.1878C0.565393 6.1878 0.960802 5.30291 1.24088 4.99201C1.2935 4.93355 1.36631 4.79217 1.40298 4.67738C1.43965 4.56311 1.54435 4.39251 1.63523 4.29898C1.72611 4.20544 1.83984 4.05769 1.88661 3.97053C1.94135 3.86955 2.02851 3.80099 2.12683 3.78133C2.30913 3.74466 2.71941 3.43322 2.8172 3.25624C2.85494 3.18769 2.88736 3.04791 2.88842 2.94587C2.88949 2.84383 2.94795 2.63709 3.01757 2.48775C3.1414 2.22202 3.19667 2.16621 3.57933 1.91961C3.75843 1.80428 3.87854 1.65335 4.07199 1.30046L4.16447 1.13145L4.28458 1.26644C4.3914 1.38655 4.4488 1.4025 4.80329 1.40994C5.17 1.41738 5.23112 1.4025 5.56541 1.22127C5.98633 0.993271 6.53214 0.864124 7.00142 0.881663C7.18212 0.888572 7.36548 0.872097 7.40852 0.845523C7.45157 0.81895 7.64237 0.793439 7.8321 0.789719C8.02237 0.785467 8.24717 0.763146 8.33221 0.740293C8.45126 0.707874 8.50228 0.719565 8.55436 0.791313C8.59156 0.842334 8.6479 0.868377 8.67873 0.849244C8.751 0.804601 8.74994 0.836487 8.67394 1.0039C8.62345 1.11497 8.62824 1.15643 8.70211 1.23827C8.80628 1.3536 8.74994 1.58054 8.60325 1.63687C8.48899 1.68098 8.51822 1.91005 8.6378 1.91058C8.68616 1.91111 8.77014 1.95097 8.82381 1.99986C8.95934 2.12263 9.1868 2.20235 9.40152 2.20235C9.66034 2.20235 9.94095 2.35275 10.0148 2.53026C10.0542 2.62486 10.1302 2.69342 10.2173 2.71256C10.4947 2.77368 10.7233 2.85605 10.8944 2.95703C11.032 3.03834 11.091 3.04738 11.1777 3.00114C11.2951 2.93843 11.301 2.92036 11.3084 2.60733C11.3121 2.4532 11.3467 2.37667 11.4461 2.30227C11.6778 2.12954 11.8728 2.1237 12.1067 2.2826C12.2215 2.36073 12.4011 2.43779 12.5053 2.45426C12.6094 2.47074 12.7141 2.51645 12.7375 2.55577C12.7609 2.5951 12.8513 2.62752 12.9379 2.62752C13.0245 2.62752 13.2711 2.67907 13.4858 2.74232L13.8759 2.85712L14.1129 2.74232C14.5551 2.52814 14.7358 2.59617 14.7996 3.00114C14.824 3.15473 14.9022 3.39017 14.9729 3.52516C15.0441 3.65962 15.2019 3.97319 15.3236 4.22191C15.4453 4.47011 15.6085 4.78101 15.6861 4.91282C15.7637 5.04462 15.8205 5.1828 15.8126 5.22054C15.7934 5.31088 15.997 5.63774 16.0953 5.67547C16.2106 5.71958 16.3159 6.01561 16.3589 6.41952C16.394 6.74903 16.4152 6.79686 16.6071 6.97543C16.7634 7.12105 16.8436 7.25923 16.9228 7.51646C17.0445 7.9124 17.1258 8.05749 17.1673 7.95492C17.2114 7.8465 17.2842 7.87945 17.2539 7.99372C17.2337 8.07025 17.2619 8.11223 17.3554 8.14837C17.4952 8.20152 18.0644 8.76912 18.1946 8.9849C18.2669 9.10501 18.2658 9.12201 18.1802 9.17038C18.0963 9.21768 18.1101 9.24638 18.3099 9.43823C18.5507 9.66995 18.5299 9.6673 19.0981 9.5339C19.2294 9.50307 19.5089 9.44461 19.7183 9.40422C19.9282 9.36383 20.1722 9.29314 20.2604 9.24744C20.3486 9.20173 20.4437 9.16453 20.4714 9.16453C20.5532 9.16453 20.5734 9.65932 20.4948 9.73957C20.457 9.77837 20.4262 9.85544 20.4262 9.91124C20.4262 10.008 20.2216 10.4735 19.797 11.3425C19.5961 11.7538 19.1985 12.2003 18.5496 12.7445C18.3801 12.8864 18.1101 13.1904 17.9496 13.4194C17.7891 13.6485 17.6009 13.8791 17.5313 13.9318C17.3942 14.0354 16.9722 14.9267 16.9722 15.1121C16.9722 15.1749 17.0105 15.2849 17.0567 15.3561C17.103 15.4273 17.1306 15.5161 17.1173 15.5533C17.104 15.5905 17.1136 15.6617 17.1391 15.7111C17.1657 15.7632 17.1646 15.8137 17.137 15.8307C17.0695 15.8721 17.2108 16.4525 17.3049 16.5221C17.3618 16.5641 17.3889 16.7772 17.4133 17.3799C17.4415 18.0655 17.4335 18.2005 17.3607 18.31C17.1869 18.5704 16.9935 18.7452 16.7713 18.8414C16.5444 18.9403 15.7185 19.6944 15.6712 19.8459C15.6574 19.89 15.6781 20.0176 15.7169 20.1297C15.7934 20.3497 15.8301 21.0071 15.7759 21.1783C15.7573 21.2362 15.6037 21.3537 15.4336 21.4392C15.0255 21.6454 14.9495 21.7262 14.9872 21.9149C15.0334 22.1455 14.8687 22.6462 14.713 22.7482C14.6407 22.7955 14.4999 22.9693 14.3994 23.1346C14.2187 23.4322 13.5432 24.1322 13.3253 24.2475C13.0484 24.3942 12.6663 24.4888 12.3224 24.4957C11.9164 24.5042 11.4004 24.6004 11.3174 24.6833C11.2484 24.7545 11.2292 24.7502 11.0756 24.6296ZM15.7626 17.399C15.7573 16.9255 15.6802 16.4578 15.5936 16.3712C15.5075 16.2851 15.4857 16.3621 15.5421 16.5551C15.5713 16.6555 15.5808 16.8277 15.5628 16.9372C15.524 17.1758 15.6414 17.8906 15.7153 17.8657C15.7445 17.8561 15.7653 17.6494 15.7626 17.399ZM14.6625 15.9269C14.6412 15.8759 14.5913 15.7292 14.5509 15.6011C14.5105 15.473 14.4382 15.3391 14.3893 15.3029C14.3399 15.2668 14.3144 15.202 14.3319 15.1557C14.3691 15.0595 14.2277 14.476 14.1486 14.3989C14.1119 14.3628 14.106 14.4903 14.131 14.7975C14.1586 15.1398 14.198 15.2966 14.2936 15.4443C14.3633 15.5517 14.4361 15.7069 14.4557 15.7898C14.5046 15.9938 14.5232 16.0199 14.6189 16.0199C14.6763 16.0199 14.6896 15.9923 14.6625 15.9269ZM15.3943 13.8866C15.3491 13.8414 15.3661 13.7782 15.4634 13.6352C15.719 13.2589 15.5739 12.9719 15.1913 13.0979C14.9585 13.175 14.9022 13.2828 14.9022 13.6517V13.9477H15.1785C15.3853 13.9472 15.4395 13.9323 15.3943 13.8866ZM18.404 21.5737C18.2244 21.4759 18.1579 21.2957 18.1138 20.7876C18.0851 20.4576 18.0941 20.3556 18.1579 20.2828C18.202 20.2328 18.2887 20.0904 18.3508 19.9665C18.455 19.7598 18.4593 19.712 18.4035 19.375C18.3508 19.0567 18.3551 18.9764 18.4364 18.7628C18.488 18.6278 18.5634 18.5172 18.6043 18.5172C18.7351 18.5172 19.2118 18.2499 19.3707 18.0873C19.4552 18.0012 19.5392 17.871 19.5573 17.7987C19.5753 17.7264 19.6131 17.6669 19.6407 17.6669C19.6683 17.6669 19.6752 17.6414 19.6561 17.61C19.6354 17.576 19.6593 17.5601 19.7162 17.5702C19.7874 17.5829 19.8235 17.5372 19.8597 17.3879C19.8862 17.2784 19.9293 17.1886 19.9553 17.1886C20.0866 17.1886 20.313 18.1383 20.2375 18.3748C20.2072 18.4705 20.1987 18.4726 20.1541 18.3929C20.0696 18.2419 20.009 18.2956 20.0409 18.4933C20.0579 18.5975 20.0473 18.7346 20.018 18.7989C19.9888 18.8632 19.9165 19.0832 19.8581 19.2879C19.6657 19.9607 19.1619 21.3483 19.0795 21.4302C19.0109 21.4988 18.6495 21.6539 18.5682 21.6502C18.5544 21.6497 18.48 21.6151 18.404 21.5737ZM0.800831 9.39465C0.736524 9.33035 0.764159 9.27348 0.844942 9.30484C0.889053 9.32184 0.924662 9.35692 0.924662 9.38296C0.924662 9.43824 0.85132 9.44514 0.800831 9.39465Z" fill="white"/>
</svg>
