<svg width="28" height="18" viewBox="0 0 28 18" fill="none" xmlns="http://www.w3.org/2000/svg">
<path d="M1.35765 0.335265L1.27669 1.86827L1.11477 2.42399L0.734875 3.48113L0.407918 3.98255V4.28915L0.298932 4.53826L0.379893 5.01094L0.242883 5.40058L0 5.76787L0.137011 6.18625L0.0560498 6.85375L0.435943 7.74481L0.407918 8.19194L0.62589 8.52728L0.488879 8.80514L0.868772 9.64191L0.921708 10.2551L1.41059 10.4787L1.62856 10.814L2.00845 10.8971L2.38835 11.4815L2.46931 12.066L3.25712 12.1778L3.82696 12.2065L4.69573 12.874L5.72642 13.4297L6.35231 13.5702L7.33007 13.682L7.38301 13.4042L8.38879 13.5159L8.5258 13.7683L8.82473 14.0461L8.90569 14.2697L9.28559 14.6881L9.39457 15.1352L9.66548 15.3875L10.1014 15.6398L10.3194 15.4162L10.6183 15.0809H11.1352L11.5712 15.4993L11.8981 16.336L12.25 16.6714L12.278 17.061L12.5209 17.5082L12.7109 17.6199L13.0098 17.703L13.3897 17.7477L13.6606 17.8307L13.4987 17.1632L13.6357 16.6331L13.9626 16.2722L14.3986 15.9368L14.8065 15.7133L15.2424 15.3524L15.6504 15.1863L16.0303 15.1288L16.5472 15.2406L17.008 15.2693L17.4159 15.5184L17.7429 15.4897L17.9609 15.2661L18.3127 15.544L18.4217 15.4035L18.1508 15.1256L18.0979 14.819L18.3407 14.5954L18.7767 14.5667L19.1286 14.5954L19.4275 14.5411L20.0534 14.4294L20.5952 14.7647L21.0841 14.5986L21.302 14.4869L21.71 14.7104L22.1085 14.9883L22.2456 15.8793L22.3826 16.1572L22.7313 16.55L23.1112 17.0802L23.6001 17.4411H23.899L24.036 17.1057V16.55L23.8461 15.9656L23.6001 15.5759L23.2731 14.9084L22.8932 14.2952L22.7033 13.7395L22.7313 13.2604L22.8932 12.8133L23.1641 12.5067L23.4631 12.1714L23.7091 11.8105L23.8461 11.4496L24.2789 11.226L24.3599 10.9194L24.6059 10.6703L25.0667 10.3924L24.9297 10.1976L24.8207 10.0315L25.1726 9.97725L25.2286 9.72814L25.0667 9.42154L24.9546 9.00315L24.6557 8.77959L24.9827 8.50173L25.1726 8.02905L25.1446 7.63941L25.2536 7.27852L25.4155 6.86013L25.5245 6.58228L25.2785 6.24693L25.5245 6.08085L25.9604 5.96907L26.2874 5.66247L26.5863 5.27283L26.8572 4.95984L26.5583 4.54146L26.6953 4.31789L26.5334 4.12307L26.6424 3.50987L27.0222 3.28631L27.1312 2.92541H27.3741L28 2.42399L27.6201 2.25791L27.5392 1.98006L27.3492 1.92576L27.0783 1.06344H26.6174L26.3714 0.980407L26.1254 1.56167L26.1815 2.14613L26.0196 2.59326L25.7767 2.73379L25.7206 2.89986L24.2011 3.34699L23.7932 3.84841L23.6032 4.07197L23.5222 4.34983L22.4355 4.71073L22.5445 5.15786L22.0276 5.68802L21.5667 5.7998L21.0498 6.30122L20.6139 6.13515L20.6419 5.91158L20.8848 5.60498L20.9408 4.85445L20.6419 3.82286L20.0721 3.545L19.8821 3.37893L19.7202 3.15536L19.5303 3.12662L17.6308 2.12378L17.2198 2.42718L16.8928 2.28666L16.5409 2.25791L16.27 2.39844L16.0271 2.20362L15.8652 2.25791L15.5943 1.89702L15.1864 2.09184L14.8345 1.98006C14.8345 1.98006 14.6446 1.36685 14.6446 1.44989C14.6446 1.53293 14.5356 1.75649 14.5356 1.75649L12.6361 1.81079L11.3594 1.699L9.89279 1.61597L8.39813 1.47544L6.87856 1.19758L5.54893 0.948469L4.13835 0.641867L3.01424 0.392753L2.0645 0.169189L2.03648 0.447047L1.95552 0.670611L1.35765 0.335265Z" fill="white"/>
</svg>
