<svg width="24" height="28" viewBox="0 0 24 28" fill="none" xmlns="http://www.w3.org/2000/svg">
<path d="M23.4184 12.5689C23.4184 12.3822 23.3869 12.1333 23.2921 11.9467C23.1973 11.7289 23.1025 11.8222 22.8814 11.7911C22.5339 11.6978 22.3128 11.3244 22.0285 11.1689C21.9021 11.1067 21.839 11.1067 21.7126 11.1067C21.5862 11.1067 21.5231 11.1067 21.3967 11.0756C21.3019 11.0756 21.2703 11.0756 21.1756 11.0444C21.1124 11.0133 21.0808 10.9822 21.0176 10.9511C20.9229 10.9511 20.8281 11.0444 20.7333 10.9511C20.6701 10.8889 20.607 10.4533 20.4806 10.64C20.2911 10.5156 19.7224 10.2044 19.5329 10.5156C19.5329 10.4533 19.5961 10.36 19.5645 10.3289C19.5329 10.2356 19.4381 10.2978 19.3434 10.2356C19.2802 10.2044 19.1854 10.0489 19.0906 10.08C19.0906 9.98667 19.1538 9.86222 19.1222 9.73778C19.1222 9.64444 19.0591 9.58222 18.9643 9.48889C18.9011 9.39556 18.8379 9.36444 18.8063 9.24C18.7747 9.14667 18.7747 9.02222 18.7432 8.92889C18.68 8.77333 18.4273 8.61778 18.3009 8.49333C18.1114 8.36889 17.8586 8.27556 17.6375 8.24444C17.4164 8.24444 17.2584 8.30667 17.0373 8.21333C16.9425 8.15111 16.8478 8.05778 16.753 7.99556C16.6898 7.93333 16.7214 7.96444 16.6582 7.90222C16.7214 7.90222 16.7214 7.84 16.6898 7.80889C16.6266 7.71556 16.4687 7.62222 16.3739 7.56C16.3107 7.52889 16.2476 7.49778 16.216 7.49778C16.1844 7.49778 16.1528 7.52889 16.1212 7.49778C16.058 7.43556 16.1212 7.34222 16.0896 7.28C16.058 7.18667 15.9317 7.18667 15.9001 7.09333C16.0896 7.06222 16.058 6.96889 16.058 6.78222C15.9633 6.78222 15.9001 6.78222 15.8369 6.84444C15.9317 6.93778 15.8685 6.96889 15.7737 7.03111C15.6474 7.09333 15.6474 7.03111 15.5526 6.93778C15.6474 6.93778 15.7421 6.90667 15.8369 6.87556C15.7421 6.81333 15.5842 6.84444 15.4894 6.84444C15.4578 6.84444 15.2367 6.87556 15.2367 6.87556C15.1103 6.90667 15.1735 6.90667 15.1103 6.93778C14.826 7.12444 14.7629 6.90667 14.5417 6.87556C14.3838 6.84444 14.1626 6.96889 14.0679 6.87556C14.0363 6.84444 14.0679 6.75111 14.0363 6.72C14.0047 6.65778 13.9415 6.62667 13.8783 6.62667C13.8467 6.62667 13.6888 6.62667 13.6888 6.59556C13.6572 6.56445 13.6888 6.47111 13.6572 6.44C13.5309 6.31556 13.4993 6.50222 13.5624 6.62667C13.4361 6.68889 13.2781 6.72 13.1518 6.81333C13.1202 6.75111 13.0886 6.68889 13.057 6.62667C13.1518 6.59556 13.3413 6.53333 13.2781 6.40889C13.215 6.28444 13.0886 6.34667 13.0254 6.37778C12.9306 6.44 12.8991 6.50222 12.7727 6.56445C12.7095 6.59556 12.6779 6.65778 12.6147 6.65778C12.5832 6.65778 12.4884 6.62667 12.4568 6.62667C12.4252 6.62667 12.3936 6.65778 12.3936 6.65778C12.3936 6.72 12.362 6.75111 12.3304 6.72C12.2989 6.72 12.2673 6.68889 12.2041 6.72C12.1093 6.75111 12.0461 6.87556 12.0145 6.96889C11.983 7.03111 12.0145 7.18667 11.983 7.24889C11.983 7.28 11.8882 7.28 11.8566 7.31111C11.7618 7.40444 11.6039 7.52889 11.6671 7.62222C11.5091 7.59111 11.4143 7.37333 11.288 7.28C11.1616 7.21778 10.9721 7.15556 10.8457 7.21778C10.7194 7.28 10.5614 7.43556 10.4351 7.43556C10.2771 7.43556 10.2771 7.21778 10.2139 7.40444C10.1192 7.24889 9.9928 7.15556 9.89803 7C9.77167 6.81333 9.70849 6.72 9.77167 6.50222C9.80326 6.31556 9.80326 6.16 9.80326 5.97333C9.80326 5.91111 9.86644 5.84889 9.86644 5.75556C9.89803 5.63111 9.80326 5.56889 9.89803 5.50667C9.6769 5.28889 9.51895 5.19556 9.23465 5.19556C9.13988 5.19556 9.13988 5.16444 9.04511 5.16444C8.91875 5.19556 8.85557 5.22667 8.72921 5.22667C8.66603 5.22667 8.60285 5.19556 8.50808 5.19556C8.47649 5.25778 8.4449 5.25778 8.38172 5.22667C8.35013 5.19556 8.28695 5.19556 8.25536 5.22667C8.28695 5.13333 8.38172 5.10222 8.41331 4.97778C8.4449 4.85333 8.41331 4.72889 8.41331 4.60444C8.60285 4.69778 8.60285 3.88889 8.69762 3.79556C8.69762 3.82667 8.72921 3.85778 8.72921 3.88889C8.82398 3.79556 8.82398 3.73333 8.79239 3.64C8.7608 3.45333 8.79239 3.45333 8.60285 3.45333C8.41331 3.42222 8.00265 3.45333 7.81311 3.57778C7.65516 3.70222 7.74993 3.95111 7.62357 4.13778C7.46562 4.38667 7.11813 4.38667 6.86542 4.44889C6.70747 4.48 6.67588 4.54222 6.54952 4.44889C6.51793 4.41778 6.48634 4.38667 6.45475 4.38667C6.39157 4.35556 6.32839 4.35556 6.26521 4.35556C6.20203 4.32444 6.13885 4.2 6.07567 4.10667C6.01249 3.98222 5.94931 3.92 5.88613 3.79556C5.82295 3.73333 5.82295 3.67111 5.79136 3.60889C5.79136 3.57778 5.79136 3.51556 5.79136 3.48444C5.75977 3.45333 5.75977 3.42222 5.72818 3.42222C5.66501 3.26667 5.66501 3.20444 5.66501 3.04889C5.66501 2.89333 5.66501 2.73778 5.69659 2.58222C5.72818 2.45778 5.88613 2.20889 5.82295 2.08444C5.6966 2.11556 5.41229 2.02222 5.31752 1.92889C5.22275 1.83556 5.19116 1.64889 5.12798 1.55556C4.97003 1.33778 4.65413 0.653333 4.27506 0.902222C4.21188 0.933333 4.21188 1.08889 4.1487 1.12C4.05393 1.15111 3.95916 1.05778 3.89598 1.02667C3.70644 0.902222 3.70644 0.715556 3.54849 0.591111C3.39054 0.466667 3.23259 0.28 3.04306 0.28C2.97988 0.28 2.79034 0.248889 2.72716 0.28C2.69557 0.311111 2.69557 0.373333 2.69557 0.373333C2.63239 0.404444 2.56921 0.404444 2.47444 0.404444C2.22172 0.404444 2.0006 0.435556 1.74788 0.342222C1.46357 0.248889 1.17926 0.155556 0.894954 0.0622222C0.737005 0 1.08449 0 0.737005 0C0.673826 0 0.610646 0 0.547467 0.0311111C0.452698 0.0311111 0.294749 0.0311111 0.231569 0.0622222C0.0736207 0.124444 0.19998 0.155556 0.231569 0.28C0.263159 0.373333 0.294749 0.435556 0.326339 0.528889C0.389518 0.684444 0.484287 0.933333 0.610646 1.05778C0.705416 1.15111 1.08449 1.30667 0.989723 1.52444C0.926544 1.64889 0.737005 1.52444 0.800185 1.68C0.831774 1.77333 1.0529 1.89778 1.11608 1.96C1.30562 2.05333 1.58993 2.11556 1.58993 2.36444C1.58993 2.45778 1.52675 2.55111 1.58993 2.64444C1.65311 2.70667 1.81106 2.73778 1.87424 2.8C1.96901 2.86222 2.06377 2.95556 2.12695 3.04889C2.19013 3.14222 2.12695 3.17333 2.25331 3.17333C2.50603 3.14222 2.2849 2.8 2.22172 2.67556C2.15854 2.73778 2.12695 2.67556 2.06377 2.61333C2.03218 2.61333 2.0006 2.67556 2.03218 2.73778C1.93742 2.67556 2.0006 2.67556 1.96901 2.61333C2.03218 2.58222 2.03218 2.55111 2.0006 2.52C2.0006 2.48889 1.96901 2.48889 1.96901 2.48889C1.90583 2.36444 1.84265 2.33333 1.87424 2.17778C1.84265 2.17778 1.46357 1.71111 1.43198 1.64889C1.40039 1.58667 1.33721 1.46222 1.30562 1.4C1.24244 1.27556 1.24244 1.18222 1.14767 1.05778C0.958134 1.30667 0.737005 0.56 0.831775 0.404444C0.958134 0.497778 1.0529 0.497778 1.14767 0.56C1.24244 0.622222 1.21085 0.591111 1.24244 0.684444C1.27403 0.777778 1.30562 0.871111 1.3688 0.995556C1.40039 1.08889 1.40039 1.15111 1.43198 1.24444C1.43198 1.27556 1.40039 1.30667 1.43198 1.36889C1.46357 1.4 1.49516 1.4 1.52675 1.36889C1.55834 1.4 1.65311 1.46222 1.71629 1.52444C1.77947 1.58667 1.84265 1.71111 1.96901 1.64889C1.96901 1.80444 2.03218 1.80444 2.12695 1.89778C2.15854 1.92889 2.15854 1.99111 2.19013 2.02222C2.22172 2.05333 2.2849 1.99111 2.31649 2.05333C2.34808 2.14667 2.25331 2.20889 2.31649 2.30222C2.37967 2.42667 2.56921 2.45778 2.63239 2.55111C2.82193 2.8 3.20101 3.01778 3.32736 3.29778C3.35895 3.36 3.32736 3.42222 3.35895 3.48444C3.39054 3.51556 3.42213 3.57778 3.45372 3.60889C3.48531 3.73333 3.35895 3.79556 3.45372 3.88889C3.23259 3.95111 3.48531 4.26222 3.58008 4.32444C3.67485 4.38667 3.80121 4.44889 3.89598 4.54222C4.02234 4.63556 4.11711 4.69778 4.24347 4.72889C4.49618 4.79111 4.65413 4.97778 4.90685 5.07111C5.00162 5.10222 5.12798 5.13333 5.22275 5.16444C5.34911 5.19556 5.44388 5.28889 5.57024 5.35111C5.66501 5.38222 5.79136 5.44444 5.88613 5.44444C6.04408 5.47556 6.13885 5.35111 6.26521 5.32C6.58111 5.19556 6.80224 5.44444 6.99177 5.66222C7.08654 5.75556 7.18131 5.91111 7.30767 5.94222C7.43403 6.00444 7.56039 5.97333 7.71834 6.03556C7.8447 6.09778 8.35013 6.34667 8.41331 6.16C8.50808 6.25333 8.35013 6.22222 8.38172 6.31556C8.41331 6.37778 8.53967 6.44 8.57126 6.50222C8.66603 6.59556 8.82398 6.75111 8.91875 6.87556C8.91875 6.90667 8.88716 6.93778 8.88716 6.93778C8.95034 6.96889 8.98193 7 8.95034 7.03111C8.95034 7.06222 8.88716 7.09333 8.88716 7.15556C8.88716 7.31111 9.13988 7.40444 9.20306 7.28C9.20306 7.43556 9.42418 7.46667 9.48736 7.59111C9.51895 7.65333 9.48736 7.68444 9.51895 7.74667C9.55054 7.77778 9.6769 7.84 9.70849 7.87111C9.70849 7.84 9.74008 7.80889 9.74008 7.77778C9.86644 7.80889 9.92962 7.80889 10.0244 7.87111C10.0876 7.93333 10.1507 7.99556 10.2455 8.05778C10.3087 8.08889 10.2139 8.12 10.3087 8.15111C10.3403 8.15111 10.4035 8.12 10.4351 8.08889C10.593 7.99556 10.4982 7.96444 10.4035 7.80889C10.593 7.74667 10.751 7.37333 10.9405 7.71556C11.0037 7.84 11.0037 7.96444 11.0984 8.08889C11.13 8.15111 11.1932 8.21333 11.2248 8.27556C11.2564 8.36889 11.2248 8.33778 11.2248 8.43111C11.2248 8.46222 11.2248 8.46222 11.2564 8.49333C11.3196 8.52444 11.3196 8.58667 11.2564 8.61778C11.1932 8.64889 11.1932 8.68 11.2564 8.71111C11.2564 8.74222 11.2564 8.77333 11.288 8.77333C11.288 8.86667 11.2564 8.92889 11.2564 8.99111C11.2564 9.02222 11.2248 9.02222 11.2248 9.05333C11.2564 9.11556 11.288 9.14667 11.3196 9.20889C11.3196 9.30222 11.1616 9.48889 11.0984 9.52C10.9721 9.61333 10.8773 9.55111 10.9089 9.76889C10.751 9.73778 10.7825 9.86222 10.8457 9.92445C10.751 9.98667 10.5298 10.0178 10.4982 10.1111C10.4666 10.1733 10.4982 10.2978 10.4666 10.36C10.4666 10.3911 10.4035 10.4533 10.3719 10.4844C10.3403 10.5156 10.3403 10.5778 10.3403 10.6089C10.3403 10.64 10.2771 10.64 10.2455 10.6711C10.2139 10.7956 10.3719 10.9822 10.2139 11.0444C10.3087 11.1067 10.4351 11.2 10.4351 11.3244C10.4666 11.2933 10.4982 11.2933 10.5298 11.2622C10.4982 11.48 10.1507 11.5111 10.1192 11.7911C10.1192 11.8533 10.1823 11.9467 10.1823 12.04C10.1823 12.1022 10.2139 12.1333 10.2139 12.1644C10.2139 12.2267 10.1507 12.2267 10.2139 12.32C10.2771 12.4133 10.4666 12.4756 10.5614 12.5689C10.6562 12.6933 10.7194 12.8489 10.8141 12.9733C10.9721 13.2222 11.0353 13.5333 11.1616 13.8133C11.2248 13.9689 11.3196 14.1556 11.4143 14.3111C11.4775 14.4356 11.5407 14.5289 11.5407 14.6844C11.5407 14.7778 11.5091 14.6533 11.5407 14.8089C11.5723 14.8711 11.6355 14.9644 11.6671 15.0267C12.0145 15.4311 12.5516 15.5556 12.8991 15.8978C12.9622 15.96 13.1202 16.0844 13.1834 16.1778C13.2465 16.2711 13.215 16.4578 13.2465 16.5822C13.2781 16.9244 13.2781 17.2978 13.1834 17.6089C13.1202 17.7956 13.1518 18.0133 13.1518 18.2622C13.1518 18.5111 13.0886 18.8222 13.0254 19.0711C12.9938 19.1956 12.9622 19.32 12.8991 19.4133C12.8675 19.5689 12.8991 19.5378 12.8991 19.6933C12.9306 19.88 12.8359 19.8489 12.8043 19.9422C12.7727 20.0978 12.8359 20.2533 12.8359 20.4089C12.8675 20.6267 12.8043 20.8133 12.7727 21.0311C12.7095 21.28 12.5832 21.56 12.4884 21.8089C12.4568 21.8711 12.4568 21.9022 12.3936 21.9644C12.3936 21.9956 12.3936 21.9956 12.3936 22.0267C12.3936 22.12 12.362 22.1511 12.2673 22.12C12.2041 22.2133 12.2673 22.3378 12.2989 22.4622C12.2989 22.5556 12.3936 22.7733 12.362 22.8667C12.3304 22.9911 12.2357 23.0533 12.2041 23.2089C12.2041 23.2711 12.1725 23.3333 12.1725 23.3956C12.1725 23.4578 12.2357 23.52 12.2357 23.5511C12.2357 23.52 12.1409 23.6756 12.1409 23.7067C12.1093 23.8 12.1409 23.8311 12.1093 23.9244C12.1093 23.9556 12.0461 24.0489 12.0461 24.08C12.0461 24.1111 12.2357 24.1422 12.2673 24.1422C12.3304 24.1111 12.3304 23.9556 12.2989 23.8933C12.3936 23.8622 12.362 23.7378 12.3304 23.6444C12.3936 23.6444 12.4568 23.6133 12.4568 23.5511C12.5516 23.6444 12.4568 24.0178 12.3936 24.1733C12.3304 24.2978 12.3936 24.5467 12.2041 24.4533C12.2357 24.3911 12.2989 24.2044 12.1409 24.2356C12.0145 24.2667 12.1409 24.2978 12.1093 24.36C12.0777 24.3911 11.9198 24.4533 11.9198 24.4844C11.8882 24.5778 11.983 24.5156 12.0145 24.6089C12.0461 24.6711 12.0145 24.7333 11.983 24.7644C11.9514 24.8267 11.9198 24.8267 11.8882 24.8889C11.8566 24.8889 11.8566 24.8889 11.825 24.92C11.825 24.9511 11.825 24.9822 11.825 24.9822C11.7934 25.0133 11.6671 25.1378 11.6671 25.1378C11.6355 25.2622 11.7618 25.3244 11.825 25.1689C11.9198 25.2311 12.1093 25.2622 12.0145 25.4178C11.9514 25.5111 11.9198 25.4178 11.8566 25.4489L11.7934 25.5422C11.7618 25.6044 11.7302 25.6978 11.7302 25.7911C11.7302 25.9778 11.7618 26.1022 11.7934 26.2578C11.7934 26.32 11.7618 26.3822 11.7934 26.4444C11.825 26.4444 11.8566 26.4444 11.8882 26.4444C11.9198 26.4756 11.9198 26.5378 11.9514 26.5689C11.7302 26.5378 11.8566 26.8178 11.983 26.9111C12.0461 26.9422 12.0461 26.88 12.1409 26.9111C12.2357 26.9422 12.2041 27.0356 12.2989 27.0667C12.1409 27.1289 11.8882 26.9111 12.0777 27.1289C12.2041 27.2844 12.1725 27.0978 12.2989 27.2222C12.1409 27.2844 12.2989 27.3467 12.3936 27.4089C12.362 27.44 12.362 27.4711 12.362 27.5022C12.52 27.5022 12.5832 27.4711 12.6463 27.5956C12.8043 27.5333 12.7727 27.5644 12.8359 27.6578C12.8991 27.6267 12.9306 27.6578 12.9306 27.72C12.9938 27.7511 13.057 27.7511 13.0886 27.7822C13.1834 27.8133 13.2465 27.7822 13.3413 27.7822C13.4045 27.8133 13.4993 27.8756 13.594 27.8756C13.6256 27.8756 13.6888 27.8756 13.752 27.8756C13.9099 27.9067 13.9731 28 14.1626 28C14.1311 27.9378 14.1626 27.8756 14.0679 27.8756C14.0047 27.8756 13.9731 27.9378 13.9731 27.9378C13.9099 27.9378 13.9415 28.0933 13.9099 27.8133C14.0679 27.8133 14.2258 27.9067 14.289 27.7511C14.3206 27.7511 14.3206 27.7822 14.289 27.8133C14.3522 27.8444 14.3522 27.8133 14.3838 27.7822C14.4154 27.7822 14.4785 27.72 14.5417 27.72C14.6681 27.6889 14.7313 27.7511 14.7629 27.5956C14.4785 27.5956 14.1311 27.4711 13.9415 27.2533C13.8783 27.16 13.8783 27.0356 13.752 26.9733C13.6572 26.9422 13.6256 27.0356 13.5624 26.9111C13.6572 26.9111 13.752 26.9422 13.8783 26.9111C13.7836 26.7867 13.6572 26.6311 13.6572 26.4444C13.6572 26.2267 13.8783 26.2889 14.0047 26.1644C14.1311 26.04 14.0679 25.8533 14.2258 25.76C14.3838 25.6356 14.6681 25.5733 14.6365 25.3556C14.6049 25.1067 13.8467 25.1689 14.2258 24.7644C14.289 24.7022 14.3206 24.7022 14.3838 24.6711C14.447 24.64 14.5733 24.64 14.6049 24.6089C14.6997 24.5467 14.7629 24.4533 14.7944 24.3289C14.826 24.1111 14.826 24.1111 15.0156 24.0178C15.1103 23.9867 15.3631 23.8933 15.2367 23.7378C15.1419 23.6133 14.9524 23.8 14.8576 23.6756C14.826 23.6444 14.826 23.4889 14.826 23.4578C14.826 23.3333 14.7944 23.3022 14.9208 23.3333C15.1103 23.3644 15.2367 23.4889 15.4578 23.3956C15.679 23.3022 15.5526 23.2711 15.5842 23.1156C15.5842 22.9911 15.7421 22.7733 15.8053 22.7422C15.9001 22.7111 16.058 22.7422 16.1528 22.7111C16.2792 22.68 16.4055 22.6489 16.5319 22.6178C16.753 22.5556 16.8478 22.5244 16.9741 22.3378C17.0689 22.1511 17.2584 22.0267 17.1321 21.84C17.1005 21.7778 17.0057 21.8089 16.9741 21.7156C16.9741 21.6222 17.0689 21.6222 17.0057 21.5289C16.9425 21.4044 16.5951 21.3733 16.6898 21.1867C16.8162 21.28 16.8162 21.2489 16.9741 21.28C17.0689 21.3111 17.1637 21.4044 17.2584 21.4356C17.3216 21.4356 17.3532 21.4044 17.3848 21.4044C17.448 21.4044 17.5112 21.4044 17.5427 21.4044C17.7007 21.4044 17.7639 21.4044 17.8902 21.3111C18.1114 21.1244 18.2377 20.8756 18.3957 20.6267C18.4589 20.5022 18.6168 20.44 18.7116 20.3467C18.8379 20.2533 18.9011 20.1289 18.9643 19.9733C19.0275 19.8489 19.0591 19.6933 19.1538 19.6C19.2802 19.4444 19.375 19.4133 19.4381 19.2267C19.5013 19.0711 19.4697 19.0711 19.4381 18.9467C19.4065 18.8533 19.4381 18.7911 19.4381 18.6978C19.4697 18.5422 19.4697 18.5422 19.5645 18.3867C19.6593 18.2622 19.6909 18.2311 19.7856 18.1689C20.0068 18.0133 20.1015 17.92 20.3542 17.9822C20.3226 17.6711 20.8913 17.7022 21.1124 17.6711C21.3019 17.64 21.1756 17.6089 21.3019 17.4844C21.3967 17.3911 21.4915 17.4222 21.5546 17.2978C21.6178 17.1111 21.5862 17.08 21.7126 16.9244C21.7758 16.8311 21.8705 16.6756 21.9021 16.5822C21.9337 16.4578 21.9021 16.3333 21.9337 16.2089C21.9653 16.0844 22.0601 16.0533 22.0601 15.9289C22.1233 15.6178 22.0917 15.3378 22.0917 15.0267C22.0917 14.9022 22.0917 14.6533 22.1549 14.56C22.1864 14.5289 22.2496 14.5289 22.2812 14.4978C22.3444 14.4356 22.376 14.4044 22.4076 14.3111C22.5023 14.1867 22.5339 14.0311 22.6287 13.8756C22.6919 13.7511 22.8182 13.72 22.8814 13.6267C23.2605 13.2222 23.45 12.9111 23.4184 12.5689Z" fill="white"/>
<path d="M9.42372 3.36011C9.51849 3.29788 9.61326 3.26677 9.70803 3.23566C9.86598 3.14233 9.96075 3.049 10.1503 3.11122C9.83439 3.20455 10.403 3.26677 10.4662 3.26677C10.5925 3.29788 10.7821 3.36011 10.94 3.42233C11.0664 3.48455 10.9716 3.42233 11.0664 3.51566C11.1296 3.57788 11.1296 3.64011 11.2559 3.70233C11.3191 3.73344 11.4771 3.67122 11.4771 3.79566C11.4771 3.82677 11.3191 3.92011 11.3191 3.98233C11.4139 4.04455 11.6666 3.95122 11.7614 3.95122C11.9509 3.95122 12.0773 3.98233 12.2352 3.92011C12.3616 3.889 12.3932 3.92011 12.2984 3.79566C12.2352 3.70233 12.0457 3.67122 11.9509 3.67122C11.9825 3.51566 11.635 3.48455 11.5086 3.39122C11.4139 3.329 11.2875 3.14233 11.1612 3.11122C11.098 3.08011 11.0348 3.17344 10.9716 3.14233C10.8769 3.11122 10.9084 3.08011 10.8453 3.049C10.6241 2.92455 10.2451 2.89344 10.0239 2.92455C9.89757 2.95566 9.73962 2.98677 9.61326 3.049C9.4869 3.14233 9.45531 3.26677 9.29736 3.329C9.29736 3.42233 9.36054 3.329 9.42372 3.36011C9.45531 3.329 9.36054 3.329 9.42372 3.36011Z" fill="white"/>
<path d="M12.6453 3.88877C12.5821 3.95099 12.5189 3.91988 12.4873 4.01321C12.6769 4.07543 12.6769 4.04432 12.6769 4.23099C12.6453 4.19988 12.5821 4.19988 12.5505 4.23099C12.5821 4.29321 12.6769 4.35543 12.7717 4.29321C12.7401 4.47988 12.4242 4.2621 12.2978 4.29321C12.1715 4.35543 12.2346 4.44877 12.3294 4.47988C12.4242 4.51099 12.6137 4.47988 12.7401 4.47988C12.9612 4.47988 12.9612 4.51099 13.0876 4.66655C13.1823 4.51099 13.1823 4.47988 13.3087 4.44877C13.3719 4.41766 13.4666 4.38655 13.5298 4.38655C13.5614 4.38655 13.6246 4.38655 13.6878 4.38655C13.7825 4.41766 13.8141 4.51099 13.8773 4.47988C14.0352 4.41766 13.8773 4.2621 13.8141 4.19988C13.7825 4.16877 13.7825 4.16877 13.7509 4.16877C13.6878 4.16877 13.6878 4.13766 13.7194 4.10655C13.6878 4.10655 13.6562 4.07543 13.6246 4.07543C13.6562 4.07543 13.435 3.9821 13.4982 4.01321C13.435 3.9821 13.4035 3.9821 13.3403 3.95099C13.1823 3.91988 13.0876 3.91988 12.9296 3.91988C12.8664 3.95099 12.6769 3.85766 12.6453 3.88877Z" fill="white"/>
<path d="M16.8788 26.4132C16.7525 26.3821 16.5629 26.3821 16.4366 26.3821C16.3418 26.3821 16.2154 26.4443 16.1207 26.4132C16.0891 26.4443 16.1207 26.4754 16.1838 26.5065C16.1207 26.5376 16.1207 26.5376 16.1207 26.5999C16.0259 26.5376 15.9311 26.5999 16.0575 26.6932C16.1838 26.7865 16.2786 26.6621 16.405 26.631C16.3734 26.8176 16.5629 26.7243 16.6577 26.6932C16.6893 26.6621 17.1631 26.4754 16.8788 26.4132Z" fill="white"/>
<path d="M11.3187 4.35547C11.0344 4.35547 11.1292 4.51102 11.2871 4.60436C11.4451 4.66658 11.603 4.63547 11.761 4.60436C11.6978 4.41769 11.4767 4.35547 11.3187 4.35547Z" fill="white"/>
<path d="M11.0351 1.89768C11.1298 1.86657 11.2878 1.77324 11.3509 1.80435C11.4773 1.86657 11.3509 2.02213 11.4457 2.11546C11.4773 1.9599 11.5405 1.86657 11.3825 1.77324C11.2562 1.6799 11.0666 1.80435 10.9087 1.80435C10.9719 1.86657 11.0035 1.89768 11.0351 1.89768Z" fill="white"/>
<path d="M11.256 2.61346C11.2876 2.76902 11.2876 2.76902 11.3823 2.76902C11.3823 2.7068 11.3192 2.27124 11.2244 2.27124C11.1612 2.27124 11.1928 2.33346 11.1612 2.36457C11.0664 2.52013 11.098 2.48902 11.256 2.61346C11.256 2.76902 11.1928 2.55124 11.256 2.61346Z" fill="white"/>
<path d="M14.2573 4.57325C14.3837 4.57325 14.7312 4.60436 14.8259 4.47991C14.6996 4.41769 14.668 4.35547 14.4785 4.35547C14.2889 4.35547 14.2573 4.38658 14.2573 4.57325C14.3205 4.57325 14.2573 4.54214 14.2573 4.57325Z" fill="white"/>
<path d="M12.6464 3.45337C12.5832 3.5467 12.4569 3.48448 12.4253 3.64004C12.5832 3.64004 12.678 3.64004 12.6464 3.45337C12.6148 3.51559 12.678 3.57781 12.6464 3.45337Z" fill="white"/>
<path d="M9.73975 3.42229C9.73975 3.54674 9.99246 3.48451 9.92928 3.36007C9.89769 3.23562 9.73975 3.29785 9.73975 3.42229Z" fill="white"/>
<path d="M12.2668 3.08012C12.2984 3.08012 12.33 3.11123 12.33 3.11123C12.2984 3.17345 12.2352 3.17345 12.2352 3.23568C12.3932 3.17345 12.4563 2.95568 12.2036 3.0179C12.2668 3.04901 12.2668 3.04901 12.2668 3.08012Z" fill="white"/>
<path d="M15.8049 5.16434C15.8049 5.28879 15.9312 5.13323 16.026 5.13323C15.9944 5.10212 15.9628 5.0399 15.9312 5.00879C15.8049 5.07101 15.7733 5.0399 15.8049 5.16434Z" fill="white"/>
<path d="M11.6665 2.24017C11.7613 2.30239 11.7613 2.3335 11.6665 2.39572C11.6981 2.39572 11.7297 2.42683 11.7613 2.42683C11.8245 2.24017 11.7297 2.20906 11.5718 2.11572C11.5718 2.20906 11.6034 2.24017 11.6665 2.24017Z" fill="white"/>
<path d="M15.2366 27.5334C15.2366 27.5023 15.2682 27.5023 15.2682 27.4712C15.1734 27.4712 15.0471 27.4712 14.9839 27.5334C15.0471 27.5645 15.1418 27.5334 15.2366 27.5334Z" fill="white"/>
<path d="M15.963 5.53773C15.8998 5.59996 16.0262 5.69329 16.0894 5.69329C16.0894 5.66218 16.0262 5.4444 15.963 5.53773Z" fill="white"/>
<path d="M11.9823 2.73779C11.9507 2.86224 12.0771 2.98668 12.1403 3.0489C12.1403 2.92446 12.0771 2.83113 11.9823 2.73779C11.9507 2.83113 11.9823 2.7689 11.9823 2.73779Z" fill="white"/>
<path d="M15.0464 6.78219C15.078 6.78219 15.3623 6.8133 15.2359 6.71997C15.2043 6.68886 15.0464 6.71997 15.0464 6.78219C15.078 6.78219 15.0464 6.71997 15.0464 6.78219Z" fill="white"/>
<path d="M12.0142 2.61342C11.9827 2.5512 11.9195 2.42676 11.8247 2.42676C11.8879 2.5512 11.8879 2.64454 12.0142 2.61342C11.9827 2.5512 11.9827 2.61342 12.0142 2.61342Z" fill="white"/>
<path d="M15.8994 5.25757C15.8363 5.31979 15.8363 5.31979 15.8994 5.44424C15.9942 5.41312 15.9942 5.3509 15.8994 5.25757Z" fill="white"/>
<path d="M16.0894 5.9112C16.0894 5.88009 16.0894 5.81786 16.0894 5.78675C15.963 5.75564 15.963 5.97342 16.0894 5.9112C16.0578 5.84897 16.0262 5.9112 16.0894 5.9112Z" fill="white"/>
<path d="M13.7514 6.28442C13.6566 6.34665 13.783 6.47109 13.8461 6.40887C13.8461 6.34665 13.7514 6.34665 13.7514 6.28442C13.6882 6.31553 13.7514 6.34665 13.7514 6.28442Z" fill="white"/>
<path d="M13.0253 3.39118C13.0253 3.29785 12.9621 3.29785 12.8989 3.29785C12.9305 3.39118 12.9621 3.39118 13.0253 3.39118Z" fill="white"/>
<path d="M10.1187 7.87117C10.1502 7.93339 10.1818 7.93339 10.2134 7.90228C10.1818 7.87117 10.1818 7.80894 10.1502 7.77783C10.1502 7.80894 10.1187 7.84005 10.1187 7.87117Z" fill="white"/>
<path d="M3.13721 3.42209C3.1688 3.4532 3.20039 3.48431 3.26357 3.4532C3.23198 3.42209 3.20039 3.39097 3.20039 3.35986C3.13721 3.35986 3.13721 3.39097 3.13721 3.42209Z" fill="white"/>
<path d="M16.4365 6.12894C16.4996 6.16006 16.4049 6.0045 16.4049 5.97339C16.4049 6.06672 16.3733 6.06672 16.4365 6.12894Z" fill="white"/>
<path d="M0.704832 1.27563C0.673242 1.36897 0.673242 1.36897 0.736422 1.43119C0.768011 1.33786 0.768011 1.30675 0.704832 1.27563Z" fill="white"/>
<path d="M13.9097 6.34653C13.9413 6.37764 13.9413 6.40875 13.9728 6.43986C14.0676 6.40875 13.9728 6.28431 13.9097 6.34653C13.9413 6.37764 13.9413 6.31542 13.9097 6.34653Z" fill="white"/>
<path d="M8.7915 5.13332C8.85468 5.10221 8.88627 5.0711 8.94945 5.03999C8.82309 5.00888 8.7915 5.03999 8.7915 5.13332Z" fill="white"/>
<path d="M16.1845 6.62671C16.0897 6.65782 16.0897 6.65782 16.0581 6.72004C16.1529 6.72004 16.1529 6.72004 16.1845 6.62671Z" fill="white"/>
<path d="M15.9629 5.97339C15.8997 6.03561 15.8997 6.03561 15.9629 6.09783C15.9945 6.06672 16.0261 6.03561 15.9629 5.97339Z" fill="white"/>
<path d="M12.6773 3.14206C12.6457 3.14206 12.6141 3.11094 12.5825 3.17317C12.6457 3.17317 12.6773 3.20428 12.7089 3.20428C12.7405 3.17317 12.7089 3.14206 12.6773 3.14206Z" fill="white"/>
<path d="M14.9518 4.66677C14.9834 4.66677 15.015 4.66677 15.0466 4.63566C15.0466 4.51121 14.8571 4.66677 14.9518 4.66677Z" fill="white"/>
<path d="M15.1096 4.38677C15.0464 4.35566 15.0148 4.35566 14.9517 4.44899C15.0148 4.44899 15.078 4.44899 15.1096 4.38677Z" fill="white"/>
<path d="M11.3188 2.36443C11.3504 2.36443 11.4136 2.36443 11.4452 2.36443C11.382 2.2711 11.382 2.2711 11.3188 2.36443Z" fill="white"/>
<path d="M11.0028 7.62214C11.0344 7.59103 11.0344 7.55992 11.0028 7.52881C10.8765 7.55992 10.9712 7.65325 11.0028 7.62214Z" fill="white"/>
<path d="M15.773 4.79126C15.6782 4.82237 15.8361 4.88459 15.8361 4.88459C15.8361 4.82237 15.8361 4.79126 15.773 4.79126Z" fill="white"/>
<path d="M15.837 6.34668C15.7738 6.37779 15.7738 6.44001 15.8054 6.47112C15.837 6.44001 15.9318 6.37779 15.837 6.34668C15.8054 6.37779 15.8686 6.37779 15.837 6.34668Z" fill="white"/>
<path d="M15.8359 4.72872C15.8675 4.54205 15.6464 4.66649 15.8359 4.72872C15.8359 4.66649 15.7728 4.6976 15.8359 4.72872Z" fill="white"/>
<path d="M8.44491 4.79119C8.4765 4.76008 8.50809 4.72897 8.4765 4.66675C8.38173 4.72897 8.38173 4.72897 8.44491 4.79119Z" fill="white"/>
<path d="M10.2456 4.16891C10.3088 4.20002 10.3404 4.20002 10.372 4.1378C10.3404 4.10669 10.2772 4.07558 10.2456 4.16891C10.2772 4.16891 10.2772 4.10669 10.2456 4.16891Z" fill="white"/>
<path d="M12.2352 2.67561C12.2668 2.6445 12.2668 2.61339 12.2352 2.58228C12.172 2.61339 12.2036 2.70672 12.2352 2.67561Z" fill="white"/>
<path d="M12.1089 23.9869C12.1405 23.9869 12.1721 23.9869 12.2037 23.9869C12.1405 23.9246 12.1405 23.9246 12.1089 23.9869Z" fill="white"/>
<path d="M14.7938 6.75098L14.7622 6.78209C14.7622 6.8132 14.7938 6.84431 14.857 6.8132C14.857 6.75098 14.8254 6.75098 14.7938 6.75098Z" fill="white"/>
<path d="M13.5305 6.3155C13.5305 6.25328 13.4989 6.25328 13.4673 6.22217C13.4673 6.3155 13.4673 6.3155 13.5305 6.3155Z" fill="white"/>
<path d="M11.8878 2.83113C11.8563 2.80002 11.8247 2.7689 11.7931 2.73779C11.7615 2.80002 11.8247 2.83113 11.8878 2.83113C11.8563 2.80002 11.8247 2.83113 11.8878 2.83113Z" fill="white"/>
<path d="M15.5835 4.79103C15.5519 4.6977 15.5519 4.6977 15.4888 4.72881C15.5204 4.79103 15.5204 4.82215 15.5835 4.79103Z" fill="white"/>
<path d="M1.90556 4.26221C1.84238 4.29332 1.90556 4.35554 1.96874 4.32443C1.96874 4.29332 1.96874 4.26221 1.90556 4.26221Z" fill="white"/>
<path d="M15.4888 4.41772C15.4572 4.44884 15.4256 4.47995 15.394 4.47995C15.4888 4.51106 15.4888 4.51106 15.4888 4.41772Z" fill="white"/>
<path d="M15.9314 5.16455C15.8998 5.19566 15.8998 5.22677 15.963 5.25788C16.0262 5.19566 15.9946 5.19566 15.9314 5.16455C15.9314 5.16455 15.963 5.16455 15.9314 5.16455Z" fill="white"/>
<path d="M15.6786 4.97775C15.7418 4.97775 15.6786 4.88442 15.6786 4.91553C15.6786 4.91553 15.647 4.97775 15.6786 4.97775Z" fill="white"/>
<path d="M12.0772 24.36L12.0457 24.3289C12.0141 24.3911 12.0141 24.36 12.0772 24.4222C12.0772 24.3911 12.0772 24.36 12.0772 24.36Z" fill="white"/>
<path d="M10.1499 6.28435C10.1499 6.28435 10.1499 6.31546 10.1815 6.31546C10.2131 6.25324 10.1499 6.25324 10.1499 6.28435Z" fill="white"/>
</svg>
