<svg width="24" height="22" viewBox="0 0 24 22" fill="none" xmlns="http://www.w3.org/2000/svg">
<path d="M8.67744 18.9229L8.66022 18.9028L8.65161 18.8253L8.62577 18.7995L8.60567 18.7392L8.58558 18.722L8.57122 18.7306V18.722L8.58845 18.6846V18.6416L8.5339 18.5813H8.50519L8.47361 18.5497H8.45639L8.43055 18.521L8.37026 18.544V18.5813H8.33007L8.25255 18.6674V18.6961L8.2382 18.7105L8.20088 18.7076L8.15782 18.7478H8.04011L7.99705 18.7047H7.94824L7.95973 18.7851L7.94824 18.7995V18.8483L8.02576 18.9315V18.9631L8.04298 19.0033L8.06882 19.0263V19.1899L8.05159 19.2071L8.05446 19.3076H8.09179L8.1004 19.3622L8.05159 19.3937L8.06595 19.477L8.04585 19.4971L8.03724 19.6636L8.07169 19.6952V19.7181L8.11188 19.7641V19.7957L8.15495 19.8301H8.29275V19.787L8.32433 19.7555L8.33007 19.6722L8.37026 19.632H8.41045L8.45351 19.6837L8.56261 19.721L8.62864 19.1813L8.59993 19.1354V19.0636L8.63725 19.0378L8.66309 18.9746L8.68893 18.9516L8.67744 18.9229Z" fill="white"/>
<path d="M11.0001 20.1143V20.0942L10.9714 20.1029H10.9485L10.9341 20.1201L10.8968 20.1258L10.8767 20.1229L10.8508 20.1459V20.1746L10.6872 20.1545L10.6126 20.2349L10.3398 20.2435L10.291 20.2808H10.2307L10.1905 20.2435H10.159L10.0786 20.1861H10.0527L10.0327 20.2062H9.97523V20.2292L9.94365 20.2636H9.89198L9.84604 20.2206H9.78863L9.74843 20.2579V20.4043L9.71973 20.4301L9.78289 20.4904H9.93217L9.95801 20.5134L10.0355 20.5478H10.0843L10.1331 20.6282H10.1905L10.3398 20.7143H10.492L10.5494 20.7344V20.7804L10.713 20.8952L10.8709 20.9096L10.891 20.8837L10.8738 20.812L10.9657 20.7086L10.9341 20.677V20.6627L10.9111 20.6454L10.9284 20.6253L10.891 20.588H10.8652V20.5651L10.8508 20.5335V20.4904L10.8824 20.4416V20.4129L10.9025 20.3698L10.9083 20.3239L10.9887 20.1775L10.98 20.1517L11.003 20.1287L11.0001 20.1143Z" fill="white"/>
<path d="M8.47663 17.6827L8.45654 17.7401H8.44218L8.41635 17.7056L8.3819 17.7114L8.32448 17.7659H8.26419L8.24409 17.786H8.22113L8.19242 17.7975L8.18093 17.8894L8.14648 17.9296L8.18381 17.9669L8.14936 17.9985L8.16658 18.0473L8.23261 18.1076L8.16658 18.1334L8.21539 18.1765V18.2109L8.18093 18.2425L8.19529 18.2769H8.26132L8.26706 18.2999L8.24696 18.32V18.3458L8.31012 18.3975H8.34745L8.35606 18.4147L8.37328 18.4291L8.40773 18.4406L8.48238 18.3688L8.50247 18.1363L8.55702 18.0903L8.55415 17.809L8.53405 17.7803L8.52544 17.5764L8.48812 17.542L8.47376 17.5563L8.47663 17.6827Z" fill="white"/>
<path d="M0.510284 12.7421L0.541864 12.7507L0.570573 12.7937L0.889239 12.7248L0.920819 12.6846L1.0012 12.6703L0.995461 12.6416L0.961011 12.6129L0.983978 12.5583L1.0213 12.5497L1.05001 12.5698L1.06436 12.6157L1.10455 12.6358L1.12752 12.6301L1.23948 12.521L1.30551 12.5095L1.33997 12.4693L1.33422 12.4492L1.42609 12.432L1.47777 12.4521L1.54667 12.4435L1.57825 12.4205L1.59834 12.4377L1.62131 12.3717L1.67873 12.4004L1.69595 12.4349L1.72179 12.455L1.79643 12.4349L1.82514 12.3976L1.8194 12.3114L1.86533 12.2684L1.94285 12.0272L2.01462 11.9526L1.99739 11.5105L1.90553 11.2693L1.9572 11.2148L1.99165 11.209L2.01175 11.2205L2.08639 11.2004L2.10936 11.12L2.21558 11.0999L2.29596 11.0081L2.26726 10.8186L2.23281 10.7956L2.14381 10.7985L2.1352 10.764L2.16103 10.7468L2.18974 10.7411L2.20984 10.7152L2.184 10.6808L2.18113 10.6463L2.10649 10.5774L2.08352 10.4655L1.99165 10.3994L1.76772 10.4482L1.76198 10.4224L1.62705 10.3047L1.5926 10.3506L1.53806 10.3707L1.50648 10.365L1.39164 10.4023L1.32848 10.3908L1.29116 10.3966L1.21078 10.4626L1.17633 10.5717L1.18207 10.6147L1.16484 10.6377L1.07872 10.6492L1.0414 10.6722L1.04714 10.721L1.0701 10.7353L1.19929 10.7583L1.24236 10.7813L1.19929 10.8415L1.1103 10.8616L1.06149 10.9047L1.0701 10.9851L1.05575 11.0224L1.03278 10.9765L1.0012 10.9506L0.920819 10.942L0.877756 10.9564L0.843305 10.9994L0.814596 10.9765L0.805984 10.9248L0.739954 10.9133L0.702633 10.8846L0.513155 10.8961L0.504543 10.9334L0.524639 11.0339L0.452867 11.0913L0.645215 11.2176L0.498801 11.2664L0.501672 11.3468L0.447125 11.3526L0.421288 11.3813L0.386837 11.4616L0.579185 11.5305L0.56196 11.5851L0.590669 11.6052L0.702633 11.6224L0.7945 11.6052L0.834693 11.6253L0.837563 11.654L0.797371 11.6971L0.742825 11.6827L0.696891 11.7057L0.625119 11.7947L0.630861 11.8205L0.516026 11.9526L0.504543 11.9956L0.56196 12.0129L0.584927 12.0444L0.498801 12.0559L0.424158 12.1507L0.427029 12.2023L0.386837 12.2712L0.312195 12.2109L0.19736 12.2282L0.154297 12.2655L0.208843 12.3086L0.389708 12.3143L0.375354 12.3688L0.220327 12.3947L0.160039 12.4779L0.220327 12.5153L0.240423 12.5554L0.254777 12.5354L0.404062 12.5153L0.424158 12.5296L0.36387 12.5813L0.303582 12.5899L0.251906 12.6617L0.303582 12.6732L0.424158 12.6559L0.458609 12.6129L0.493059 12.6043L0.498801 12.6243L0.464351 12.6703L0.421288 12.6846L0.372483 12.7507L0.406933 12.7765L0.510284 12.7421Z" fill="white"/>
<path d="M2.19188 9.39453L2.17178 9.42324L2.2091 9.44908L2.21772 9.48927H2.17752L2.14307 9.46631L2.10001 9.51798L2.10575 9.55243L2.12872 9.58401L2.13446 9.62133L2.12011 9.66153L2.08278 9.68736L2.0713 9.70172L2.10862 9.71607L2.30097 9.6931L2.29523 9.58114L2.33255 9.57827L2.42729 9.46631L2.43877 9.60985L2.3871 9.63569L2.31532 9.79071L2.3182 9.83665L2.29523 9.87397L2.2981 9.98019L2.30958 10.006V10.0807L2.26365 10.1639L2.25791 10.2099L2.20623 10.3103L2.20049 10.3678L2.278 10.362L2.30671 10.3247L2.31532 10.2759L2.30958 10.2357L2.33542 10.1898L2.32681 10.1438L2.3871 10.0634L2.38135 10.029L2.34978 9.96871L2.38135 9.92852L2.41868 9.94861L2.42729 9.98593L2.45313 10.006L2.45887 10.029L2.49332 10.0721L2.59093 9.86536L2.58519 9.90842L2.5938 9.93713L2.65696 9.98019L2.60815 9.98593L2.56796 10.0405L2.55935 10.0893L2.56509 10.1237L2.63112 10.2242L2.63686 10.2644L2.63399 10.296L2.61964 10.3132L2.58806 10.3333L2.4359 10.6204L2.44164 10.7295L2.5048 10.7151L2.51341 10.7037L2.57657 10.7065L2.69428 10.8041H2.7316L2.72586 10.7611L2.71438 10.7525L2.70863 10.695L2.82347 10.7496L2.84644 10.7812L2.87514 10.7754L2.95266 10.7237L2.9785 10.7209L3.02156 10.6979L3.03591 10.6491L3.0761 10.6376L3.11917 10.6462L3.13926 10.6778L3.08185 10.7611L3.08472 10.7869L3.06749 10.8271L2.99572 10.8931L3.00146 10.9362L3.05601 10.9965L3.07898 11.1228L3.12778 11.163L3.15936 11.2204L3.18807 11.2147L3.21104 11.1773L3.24549 11.1831L3.323 11.2376L3.28568 11.2864L3.28281 11.3123L3.2541 11.3295L3.21678 11.3783L3.19955 11.4271L3.23687 11.4874L3.22826 11.5018L3.21965 11.5448L3.17371 11.6195L3.21678 11.697L3.26271 11.7286L3.23687 11.7343L3.15649 11.7056L3.17084 11.7716L3.15075 11.7774L3.10768 11.7458L2.76892 11.7975L2.67993 11.8836L2.66844 11.9209L2.51054 12.0673L2.54787 12.0788L2.62825 12.053L2.65696 12.0156L2.7115 12.007L2.74596 12.03L2.76605 12.3573L2.72299 12.4147L2.62251 12.4549L2.5938 12.4922L2.53638 12.4979L2.40719 12.5841L2.2981 12.6013L2.26939 12.6357L2.278 12.6731L2.30671 12.696L2.30958 12.7276L2.28662 12.7592L2.28949 12.7793L2.31532 12.7965L2.29523 12.8252L2.38997 12.8367L2.47896 12.8166L2.49906 12.7908L2.55074 12.785L2.57944 12.7506L2.60241 12.7649L2.65409 12.8367L2.70289 12.8281L2.70863 12.8597L2.64547 12.8625L2.62251 12.8941L2.65696 12.92L2.72586 12.9142L2.76031 12.8683L2.80911 12.8597L2.85218 12.8913V12.9228L2.87227 12.9372L2.87514 12.9659L2.94405 13.0176L3.01582 13.0434L3.10768 13.0291L3.11917 13.0118L3.12204 12.9716L3.15075 12.9372L3.22539 12.9257L3.32013 12.8798L3.34597 12.8453L3.42348 12.7965L3.15075 13.1123L3.14501 13.1439L3.13352 13.1582L3.01007 13.1726L2.95266 13.1181L2.92108 13.1238L2.86653 13.1152L2.68567 13.141L2.63686 13.2559L2.58806 13.2817L2.55074 13.2559L2.50767 13.3305L2.51341 13.3822L2.37848 13.5372L2.33255 13.5401L2.19188 13.7209L2.0914 13.7841L2.03972 13.7927L1.99092 13.8157L1.97656 13.876L2.05982 13.8731L2.08278 13.8386L2.12298 13.8329L2.17178 13.8616L2.18039 13.9162L2.16317 13.919L2.19475 13.9449L2.2292 13.9391L2.25504 13.8903L2.2493 13.8616L2.32681 13.7927L2.37274 13.7841L2.36987 13.7611L2.39284 13.7267L2.63112 13.6865L2.65122 13.652L2.6828 13.6807L2.69715 13.7295L2.71725 13.7267L2.73734 13.764L2.79763 13.8128L2.84931 13.8185L2.84644 13.787L2.89524 13.7525L2.92682 13.7123L2.93256 13.675L2.92969 13.6492L2.94405 13.5688L3.10481 13.4855L3.27419 13.4999L3.35458 13.5573L3.61583 13.5372L3.60147 13.4827L3.83401 13.4453L3.82827 13.4137L3.84837 13.3908L4.01775 13.431L4.0522 13.4568L4.63786 13.4338L4.75269 13.3592L4.79575 13.3621L4.81872 13.3305L4.81585 13.2989L4.89624 13.2501L4.95939 13.2386L5.01107 13.2013L4.99959 13.1267L5.01394 13.052L4.98523 13.0319H4.89624L4.88475 13.0492L4.66944 13.0233L4.63786 13.0032L4.62637 12.9802L4.63499 12.9688L4.78714 12.9314L4.80724 12.9056L4.81298 12.8568L4.7814 12.8367L4.72111 12.8224L4.75269 12.8195L4.7814 12.7793L4.82446 12.7735L4.85891 12.785L4.87614 12.7649L4.93356 12.7563L4.95078 12.7133L4.91633 12.7018L4.86753 12.6673L4.98236 12.6357L5.05987 12.5668L5.13165 12.3142L5.11155 12.2568L5.12303 12.1879L5.02255 12.0817L4.72111 11.9927L4.61489 12.0243L4.58905 12.0903L4.55747 12.1219L4.49718 12.119L4.49144 12.1046V12.0644L4.46273 12.0156L4.45986 11.9869L4.54886 11.9266L4.50006 11.7199L4.45412 11.6654L4.39383 11.6252L4.33642 11.2204L4.25029 11.1458L4.21297 11.074L4.20723 11.0395L4.21584 11.008L4.1211 10.9362L3.94885 10.8845L3.92014 10.8644L3.85411 10.5831L3.80818 10.5486L3.77947 10.4252L3.79382 10.3591L3.77947 10.2874L3.43209 9.9601L3.26271 10.0003L3.13926 9.98019L3.15362 9.9601L3.22826 9.94574L3.234 9.89694L3.32013 9.84526L3.37468 9.83665L3.40051 9.80507L3.42348 9.7333L3.24262 9.7132L3.38616 9.63569L3.42635 9.62995L3.56128 9.44621L3.56989 9.37731L3.62157 9.30841L3.66463 9.13042L3.72492 9.03568L3.73353 9.00123L3.76224 8.9639L3.6388 8.82323L3.5986 8.83184L3.5498 8.86055L3.36032 8.84907L3.32013 8.86342L3.15936 8.84046L3.07036 8.88065L3.04453 8.90936L2.97562 8.92371L2.95266 8.90649L2.96988 8.8462L2.96701 8.82897L3.01582 8.76581L2.88376 8.70553L2.91247 8.7084L3.03878 8.5993L3.0962 8.58208L3.27132 8.39834L3.30003 8.33518L3.28281 8.29786L3.31152 8.24332L3.28281 8.20312L2.85218 8.28925L2.80624 8.24906L2.73734 8.26054L2.71438 8.24332L2.67418 8.23183L2.63973 8.206L2.62538 8.23183L2.5938 8.37251L2.5737 8.4127L2.53064 8.42705L2.49906 8.52466L2.456 8.58495L2.54212 8.65959L2.48184 8.68543L2.38997 8.69117L2.36987 8.67682L2.31532 8.69691L2.32681 8.79165L2.30671 8.82036L2.33829 8.86917L2.32968 8.90075L2.30097 8.92371L2.28662 8.97826L2.3182 9.01845L2.32681 9.04716L2.30097 9.09309L2.32968 9.1907L2.27513 9.25673L2.278 9.36296L2.2493 9.39741L2.19188 9.39453Z" fill="white"/>
<path d="M15.6163 21.4608L15.5503 21.5211L15.5187 21.4838L15.5244 21.4407L15.1225 21.3948L15.0536 21.4464L14.801 21.4579L14.7321 21.3747L14.6086 21.3948L14.5598 21.3345L14.5483 21.3976H14.4938L14.4766 21.5412L15.0192 21.6043L15.1139 21.722L15.2 21.656L15.3952 21.6503L15.4842 21.5814H15.6996L15.7799 21.5182L15.7857 21.4809L15.6163 21.4608Z" fill="white"/>
<path fill-rule="evenodd" clip-rule="evenodd" d="M15.49 18.5235H15.4727L15.5359 18.512L15.49 18.5235ZM15.0335 18.4489L15.1627 18.5034L15.0335 18.4489ZM14.1636 18.5321V18.5034L14.1665 18.5695L14.1636 18.5321ZM13.8564 18.5809L13.9541 18.601L13.8564 18.5809ZM8.18648 11.2286L8.2726 11.2373L8.18648 11.2286ZM15.6077 9.29081L15.444 9.1932L15.6077 9.29081ZM11.3416 15.578L11.3186 15.555V15.5263V15.555L11.3416 15.578ZM11.7263 15.0871L11.7004 15.1187L11.7263 15.0871ZM12.889 15.9369H12.8545L12.9263 15.934L12.889 15.9369ZM21.5389 14.111L21.4384 14.0938L21.1829 13.933L21.1054 13.9646L20.8728 13.8469L20.692 13.8813L20.402 13.6057L20.359 13.6402L20.0001 13.6947L19.9111 13.6631L19.8422 13.6057L19.8106 13.6L19.7159 13.6258L19.6097 13.577L19.5838 13.5339L19.5723 13.3933L19.5092 13.2411L19.4116 13.1693L19.1187 13.1378L19.1015 13.0832L19.1044 13.043L19.0728 13.0115L19.047 12.9138L19.1101 12.8478L19.1245 12.799L19.0154 12.6727L18.9896 12.6038L18.9178 12.5378L18.5934 12.5177L18.5044 12.5837H18.4269L18.4096 12.5665L18.3235 12.5406L18.2403 12.6641L18.1111 12.6985L18.0479 12.6727H17.9876L18.0048 12.6239V12.5693L17.956 12.466L17.9273 12.2622L17.8498 12.1387L17.8871 12.0583L18.2345 12.0698L18.312 12.0411L18.3895 11.9636V11.9177L18.2804 11.731L18.2087 11.6937L18.0536 11.688L18.0393 11.642L18.0709 11.5703L18.0651 11.5071H18.0106L17.9015 11.4554L17.7723 11.2688L17.7579 11.1971L17.6489 11.0995L17.6288 10.9904L17.7063 10.8784L17.6345 10.8038L17.6316 10.6459L17.5484 10.5396L17.4335 10.465L17.1752 10.4707L17.1292 10.5109L17.0058 10.5282L16.9886 10.5109L16.9713 10.3903L16.9512 10.3588L16.7359 10.3875L16.6814 10.3329H16.5665L16.489 10.2784L16.4948 10.1234L16.4804 10.0774L16.4517 10.0487L16.4316 10.0057L16.3541 9.92814L16.3455 9.87359L16.3283 9.85637L16.2737 9.85924V9.82479L16.3168 9.77598L16.3254 9.56354L16.1847 9.42L16.0297 9.41426L16.1847 9.42L16.1876 9.30803L16.2909 9.20755L16.2996 9.12717L16.2077 9.0353L16.2306 8.73386L16.1962 8.66496V8.61041L16.2306 8.55874H16.2565L16.3024 8.52429L16.3225 8.47548L16.357 8.44103L16.3397 8.38361L16.4173 8.31758H16.4919L16.4775 8.25155L16.4173 8.18839L16.3972 8.20849L16.3053 8.24868L16.0268 8.24294L15.9062 8.18839L15.7799 8.18265L15.7483 8.16543L15.5158 8.14246L15.4641 8.16256H15.4096L15.3694 8.13672L15.3177 8.20562H15.0651L15.0278 8.24007H14.8842L14.8211 8.26304L14.7952 8.31471L14.5254 8.41519L14.5024 8.44103V8.51854L14.5454 8.56161L14.5167 8.58744L14.5282 8.83147L14.5914 8.93482L14.6488 8.95492H14.7177L14.7493 8.9865L14.8756 8.91472L14.9416 8.99224V9.03817L14.8727 9.13865V9.20755L14.9072 9.21616H14.8612L14.8555 9.36545L14.8957 9.43435L14.8928 9.54344L14.8182 9.63818L14.6201 9.75015L14.4737 9.73292L14.0517 9.28507L14.0344 9.30229H13.9828L13.9253 9.32813L13.8679 9.33387L13.8277 9.37406L13.733 9.38842L13.5952 9.58364V9.68124L13.5607 9.75015L13.4344 9.87072L13.4028 9.96833L13.4717 10.5253L13.4976 10.5511L13.5205 10.6401L13.5062 10.6832L13.5263 10.7061L13.532 10.7693L13.466 10.7779L13.4115 10.8296L13.4143 10.9272L13.4 10.9645L13.3225 11.0018L13.044 11.0105L13.0325 11.0478L13.0784 11.1827L13.0124 11.2085H12.955L12.8172 11.3492L12.4985 11.332L12.4325 11.3062L12.3722 11.2487L12.3378 11.1741V11.1282L12.3004 11.0822L11.9961 11.0794L11.3559 11.3492L11.3243 11.3779H11.2698L11.244 11.4066L10.9081 11.4784L10.8794 11.5042L10.7329 11.5617L10.7042 11.5904H10.6497L10.5578 11.6851H10.5205L10.486 11.6478L10.4516 11.576L10.3884 11.5129H10.2334L10.1789 11.4612H10.0755L9.94919 11.3349L9.7712 11.3636L9.66784 11.487L9.62478 11.4698L9.57024 11.4842L9.53866 11.5129L9.48124 11.4755L9.41808 11.533L9.42382 11.5387L9.4066 11.5645L9.32908 11.6191H9.28602L9.23147 11.6449H9.17119L9.14248 11.6679V11.7023H9.09654V11.7511H9.06209L9.03338 11.7253L8.95013 11.7282L8.90994 11.7626L8.86687 11.7138L8.953 11.6363L8.96735 11.599V11.5617L8.94439 11.51L8.89558 11.5559L8.82955 11.5588L8.7951 11.5301L8.71185 11.4985H8.67165L8.65443 11.51L8.63146 11.4727H8.54247L8.51663 11.3291L8.50227 11.3176L8.48792 11.2918L8.48505 11.266L8.47931 11.2602L8.48218 11.2315L8.48792 11.2258L8.51663 11.2229V11.2315L8.50227 11.2401L8.51089 11.2487L8.50801 11.2688L8.53959 11.2746L8.54534 11.2861L8.55108 11.2918L8.55969 11.2803L8.55395 11.266L8.54821 11.2602L8.54534 11.2487L8.54821 11.2459L8.55395 11.2516L8.56256 11.2401L8.56543 11.2258L8.57404 11.2344L8.57692 11.243H8.60562L8.61137 11.2344H8.61711L8.62285 11.2401H8.61137L8.60275 11.2487L8.61424 11.2574H8.61998L8.62572 11.266L8.64007 11.2631L8.64582 11.2574H8.65156L8.6774 11.2487L8.68027 11.243L8.66591 11.1942L8.5683 11.1196L8.51376 11.1167L8.50227 11.131L8.50801 11.1368H8.5195L8.50227 11.1454L8.55969 11.1741L8.56543 11.1856L8.57692 11.1913L8.59701 11.2085L8.58266 11.2172L8.56543 11.1971L8.55108 11.1913V11.2057L8.54247 11.2028V11.1827L8.53385 11.177L8.53098 11.1712L8.51376 11.1741L8.50514 11.1655H8.49653L8.47931 11.1483L8.48218 11.1425L8.46495 11.1339L8.47931 11.1483H8.46208L8.44773 11.154H8.4305L8.44773 11.1396L8.46208 11.1368L8.46495 11.1339L8.47069 11.1282L8.46495 11.1138V11.0966L8.45634 11.0851H8.44486V11.0822L8.45921 11.0794L8.46782 11.0707L8.45347 11.0679L8.48792 11.0392L8.51089 11.0449L8.53098 11.0248L8.53672 11.0076L8.53959 11.0047L8.53672 10.9932V10.9846L8.52237 10.9731H8.50801L8.50227 10.9674L8.51376 10.953H8.50801L8.49653 10.8669H8.50801L8.51663 10.8583V10.8411L8.50514 10.8296L8.4994 10.8353H8.45634V10.8239L8.47643 10.8181V10.8124L8.48792 10.8095L8.51376 10.821L8.52237 10.8124L8.54821 10.8411L8.55969 10.8439L8.58266 10.8698H8.57117L8.55969 10.8612L8.54534 10.8583V10.864L8.56543 10.8813H8.57979L8.58266 10.8841L8.57692 10.8899L8.58266 10.8928L8.5884 10.8985V10.9042L8.57404 10.9128L8.59414 10.9243L8.61711 10.9301V10.9559L8.62285 10.9674L8.61998 10.9731L8.62572 10.9932L8.62285 10.999L8.63433 11.0105L8.6573 11.0162V11.0478L8.66304 11.0621V11.0822L8.67453 11.0794V11.0593L8.66878 11.0535L8.66304 11.0363L8.66878 11.0306L8.68314 11.0392L8.69749 11.042L8.71185 11.0363L8.71759 11.042V11.0535L8.72907 11.065L8.73194 11.0851L8.7262 11.0908L8.71185 11.0937L8.70036 11.1023L8.70611 11.1052L8.74343 11.1109L8.7463 11.1196H8.75778L8.75491 11.1138L8.75778 11.1023L8.76352 11.0966L8.78075 11.1138L8.78649 11.1167H8.79797L8.8152 11.131H8.83529L8.84391 11.1368H8.86113L8.87836 11.1425H8.90132L8.92142 11.1253L8.97597 11.1224L8.98745 11.1052V11.0908L9.0018 11.0564V10.9789L8.99606 10.9617L9.0018 10.9559H9.01616L8.99893 10.9071L8.96161 10.864L8.95587 10.8382L8.96161 10.8325L8.97597 10.8296L8.97884 10.8239L8.953 10.8009V10.7808L8.92716 10.7377L8.92429 10.7406V10.7578L8.91855 10.7636L8.92716 10.7693V10.7923L8.91568 10.7894L8.90994 10.7951L8.92716 10.8095L8.92429 10.8152L8.92716 10.8267L8.90707 10.8296L8.89845 10.8353L8.88984 10.8382L8.8841 10.8554H8.86687L8.85539 10.8439V10.8296L8.87261 10.8267L8.8841 10.8152H8.87836L8.88123 10.8095L8.87836 10.8009L8.89558 10.7923H8.88123L8.85252 10.7808H8.84104L8.83529 10.7722L8.83242 10.7549L8.82381 10.7492H8.80658L8.78075 10.732L8.77788 10.7377V10.7521H8.76926V10.7435L8.75491 10.7406L8.63433 10.798L8.62859 10.8095L8.60275 10.8066L8.5884 10.7865L8.58266 10.7923L8.55682 10.7865L8.55969 10.7693L8.56543 10.7578L8.59701 10.7406V10.7349L8.59414 10.7291L8.57404 10.7262L8.54821 10.7291L8.53959 10.7119L8.50227 10.686H8.47931L8.47356 10.6746H8.50801L8.57692 10.7004L8.65156 10.6746L8.64869 10.6631L8.66878 10.6487L8.67165 10.643L8.6573 10.6372L8.66878 10.6143V10.6057L8.66591 10.5999L8.63433 10.5971L8.61424 10.5884H8.60275V10.577L8.6573 10.5798L8.66304 10.5741H8.64007L8.6372 10.5683L8.64582 10.5597H8.69175L8.70323 10.5655L8.70611 10.5741L8.71185 10.5827L8.7262 10.5884V10.5798L8.73194 10.5741L8.71759 10.5597L8.74055 10.5396L8.74917 10.5167V10.4994L8.74343 10.4793L8.75204 10.4564V10.4506L8.73481 10.4535L8.75491 10.4363L8.73481 10.376L8.74343 10.3415L8.77788 10.2956L8.78649 10.2669L8.80084 10.264L8.82955 10.2726V10.2841L8.81807 10.3014L8.82094 10.3186L8.80658 10.3214L8.80371 10.3157L8.78649 10.3214L8.78362 10.3473L8.79797 10.3645H8.80371L8.80946 10.3559L8.82094 10.3502L8.85539 10.353L8.86113 10.3473L8.86687 10.3301L8.87836 10.3186L8.90707 10.3157L8.91281 10.3214L8.90707 10.3272V10.3358L8.90132 10.3415L8.92142 10.3616H8.9329L8.93865 10.3588L8.94152 10.3502L8.93865 10.3329L8.94439 10.3071L8.98745 10.2411L9.0018 10.2325L8.99893 10.1894L9.02764 10.1549L8.98458 10.1234L8.97884 10.109L8.96448 10.1033L8.95874 10.0975L8.88697 10.1061L8.87549 10.1176L8.84104 10.1205L8.7951 10.0975H8.78649L8.77788 10.0803V10.0688L8.76639 10.0602L8.75491 10.0717L8.73768 10.0774L8.73194 10.0832L8.73481 10.0889L8.72907 10.1205L8.72333 10.1004L8.72907 10.0746L8.77501 10.0286L8.77213 10.0143L8.73768 9.98843L8.72907 9.9913L8.71472 9.98556L8.74917 9.98269L8.75491 9.98843L8.76639 9.97695L8.76065 9.95685L8.7463 9.94824L8.74055 9.93101L8.73194 9.91953L8.74055 9.78173L8.76065 9.77598L8.80658 9.64392L8.83242 9.62383L8.82668 9.47454L8.83529 9.45732L8.78649 9.41426L8.78075 9.36545L8.78936 9.32526L8.8152 9.29942L8.82955 9.29368L8.85539 9.26497L8.84965 9.25636L8.80658 9.27071L8.73768 9.33961L8.71185 9.3511L8.70323 9.36258L8.59701 9.37406L8.43911 9.62957L8.38457 9.66976L8.30131 9.69273L8.23241 9.6755L8.18361 9.69273L8.17499 9.70708L8.09748 9.7157L8.07738 9.70995L8.05155 9.73005L8.04293 9.7444L8.04006 9.75589L7.92523 9.92814L7.92236 9.97695L7.93384 9.9913H7.93671L7.93384 9.94824L7.95681 9.96833V10.0028L8.01135 10.0372L8.01423 10.0458L8.02858 10.0573L8.03719 10.0803L8.05155 10.0746L8.06016 10.0688L8.06303 10.0487L8.05729 10.043L8.05155 10.0286V10.0143H8.04868L8.03145 10.0229L8.02858 10.02L8.04293 10.0057L8.02858 9.99417L8.02571 9.96259L8.01997 9.95398L8.02571 9.94824V9.93101L8.03145 9.92527L8.03719 9.9224L8.04293 9.91092L8.05155 9.9023L8.0659 9.89656L8.07164 9.88795V9.88221L8.07738 9.86785L8.06877 9.86211L8.09461 9.82766L8.12906 9.82479L8.14629 9.79895V9.78747L8.15777 9.79608L8.16638 9.78747V9.77598L8.17787 9.78173L8.18361 9.79034H8.19509L8.2037 9.78173L8.2439 9.77885L8.26686 9.76163L8.26112 9.75015L8.2439 9.73292L8.23815 9.70995L8.24677 9.72718L8.26686 9.74153L8.27835 9.75876L8.28983 9.76163L8.29557 9.77598L8.32141 9.79321L8.33576 9.79895L8.34438 9.78173L8.39318 9.76163H8.39892L8.41328 9.75302L8.4305 9.75015V9.76163L8.45921 9.75302L8.46208 9.74728H8.4994L8.53385 9.73292L8.53959 9.72718H8.54821L8.56256 9.73292L8.5884 9.75302H8.57979L8.56543 9.75876L8.55682 9.7645H8.4994L8.48792 9.77598L8.48218 9.79608L8.47931 9.79321L8.47356 9.79895L8.47069 9.80756L8.45921 9.81618L8.46208 9.83053L8.44773 9.81618V9.81043L8.45634 9.80182V9.79034L8.41328 9.78173L8.34725 9.79321L8.33002 9.81618L8.32715 9.82192L8.30705 9.83914L8.30131 9.86498L8.32141 9.88221V9.89656L8.30992 9.9023V9.92527L8.3128 9.93962H8.31854L8.33289 9.95111L8.33576 9.95972L8.33289 9.97407L8.30992 9.99704L8.30418 10.0085V10.02L8.31567 10.0057L8.33289 9.99704H8.35586L8.3616 10.0028L8.36447 10.0458L8.35299 10.0688V10.0832L8.37021 10.0889H8.39031V10.1004H8.37883L8.3616 10.1061H8.35586L8.35012 10.1004L8.34438 10.0947V10.0717L8.35012 10.0545L8.3415 10.0458L8.33576 10.0487L8.32715 10.0573L8.29844 10.0602L8.27835 10.0803L8.27547 10.0975H8.26399V10.0803L8.25251 10.0746L8.26686 10.0545L8.26399 10.0487L8.28122 10.0344L8.28696 10.02V10.0057L8.29557 9.99704L8.28409 9.95398L8.27835 9.94824L8.27547 9.93962L8.26399 9.92814L8.24102 9.93388L8.21806 9.92814L8.18074 9.97407L8.17499 9.9913L8.19222 9.99417L8.19796 9.99991L8.15203 10.0143L8.13193 10.0516L8.11471 10.0573H8.10896L8.11184 10.086L8.11758 10.0975L8.12619 10.1033L8.13193 10.1406L8.12045 10.1492L8.08026 10.1406L8.09748 10.1463H8.086L8.07451 10.1377V10.1205L8.06303 10.109L8.06016 10.1033L8.06303 10.0918H8.05442L8.04868 10.1004H8.03719L7.99987 10.0832H7.96255L7.95681 10.0918H7.95107L7.9482 10.0746L7.92523 10.0573L7.93097 10.0516L7.91375 10.0487L7.91087 10.0372L7.91662 10.0315L7.91375 9.99991L7.89365 10.0315L7.89078 10.0602L7.87929 10.0803L7.87642 10.2009L7.88504 10.2037V10.1865L7.89078 10.1779L7.91662 10.198L7.90513 10.2066L7.89939 10.2124L7.95394 10.2583L7.95681 10.2612L7.93958 10.2784L7.93671 10.2726V10.264L7.91375 10.2669L7.90513 10.2583L7.88791 10.2497L7.88504 10.4822L7.89652 10.4908L7.90226 10.4851L7.89078 10.4133L7.95394 10.4478L7.96829 10.465L7.97116 10.4937L7.9769 10.5081L7.99413 10.5224L7.997 10.5396L7.99126 10.554L7.95107 10.5971L7.93097 10.6085H7.92236L7.92523 10.5884L7.91662 10.5827L7.908 10.5138L7.90513 10.7004L7.90226 10.7148L7.88504 10.7349L7.88791 10.775L7.87068 10.7923L7.88504 10.8038H7.90226L7.96542 10.8583L7.97116 10.8497L7.95968 10.8267L7.92523 10.798L7.94245 10.7808L7.97116 10.7779L7.96542 10.7837L7.97403 10.7951V10.8095L8.04868 10.8612H8.05442L8.07164 10.8755H8.08887L8.10322 10.9014L8.11184 11.0105L8.12619 11.042L8.10896 11.1798L8.12619 11.1942V11.2975L8.17787 11.3463L8.2037 11.4009L8.2238 11.421V11.4698L8.18935 11.5071H8.14054L8.10896 11.5731H8.16351V11.6507L8.19509 11.6765H8.23815L8.22093 11.731H8.19222V11.7598L8.21232 11.7942L8.25538 11.8258H8.16064L8.14341 11.8086L8.09461 11.8028V11.8258L8.05442 11.8545L8.06877 12.0641L8.02571 11.9837L7.99126 11.9521H7.95968V12.0382L7.98265 12.0612L7.9482 12.0669L7.89939 12.0239L7.90513 11.9693L7.89078 11.9177L7.87355 11.9004L7.60369 11.9234L7.56063 11.9607V11.9952L7.52905 12.0239L7.5434 12.0784L7.5635 12.0985H7.59508L7.62379 12.1244L7.57785 12.1445L7.55202 12.1244L7.53479 12.1272L7.52905 12.1215L7.51469 12.1186L7.50895 12.1043L7.50321 12.0985L7.50034 12.0928L7.45441 12.0755V12.0727L7.44292 12.0669V12.0612L7.43144 12.0267L7.43718 12.0181L7.41996 12.0095L7.41708 12.0038H7.40273L7.39125 11.998L7.3568 12.0038L7.33957 12.0124L7.26206 12.021L7.23622 12.0325L7.23048 12.0411L7.219 12.0325L7.21325 12.0239H7.19029V12.0325H7.19316L7.19029 12.0354H7.18742L7.18454 12.0382L7.18167 12.044L7.18742 12.0468H7.19603L7.20177 12.0526L7.19603 12.0583L7.1989 12.0555V12.0526H7.18167L7.1788 12.0468V12.0354L7.18454 12.0296H7.11564L6.97784 12.0755L6.9032 12.1301L6.89172 12.1732L6.8831 12.1875L6.88884 12.1961V12.2019H6.8831V12.2047L6.88884 12.222L6.89172 12.2248L6.88884 12.2306L6.89172 12.2564L6.88597 12.2765L6.88884 12.2851L6.87449 12.288L6.86301 12.2966L6.8831 12.3138L6.89746 12.3167L6.9032 12.3138H6.90894L6.92904 12.3253H6.94626L6.94913 12.3196L6.9721 12.3138L6.97784 12.3167V12.3224H6.9922L6.99794 12.3282H6.98645L6.97784 12.3339L6.95488 12.3655L6.94913 12.4172L6.952 12.4258L6.96923 12.4488L7.02952 12.4516L7.06397 12.4401H7.07258L7.08119 12.4344L7.08694 12.4287H7.10129L7.10703 12.4344L7.04387 12.4574L7.03813 12.4717L7.04387 12.4861L7.04674 12.5205L7.02665 12.555L7.00368 12.5665L6.9922 12.5808L6.98071 12.5866L6.96062 12.5923L6.93191 12.6095L6.92904 12.6153V12.621L6.91468 12.6382L6.9032 12.644H6.89172L6.87736 12.6497H6.87162V12.6469L6.86588 12.644L6.85727 12.6325H6.84291L6.82569 12.6153H6.79124L6.7654 12.598H6.74817V12.5894L6.72521 12.5837L6.71372 12.5722L6.7453 12.5693L6.77114 12.5378L6.75679 12.5349L6.75391 12.5291V12.5205L6.75679 12.5119L6.76253 12.5091V12.5004L6.75679 12.4918V12.4689L6.7453 12.4574L6.74243 12.4401L6.74817 12.4287L6.79698 12.4373L6.81133 12.4287H6.81994L6.82569 12.4229V12.4172L6.83143 12.4114H6.84004L6.84865 12.3971V12.3885L6.82856 12.3712L6.79985 12.377L6.78837 12.3856L6.78262 12.3799L6.77688 12.3167L6.75966 12.288L6.7654 12.2765L6.73956 12.265L6.70798 12.2909V12.2966L6.71372 12.311L6.6965 12.3052L6.68501 12.2937H6.67927L6.66492 12.2794L6.6764 12.2593L6.65343 12.2535L6.63908 12.2593L6.57592 12.5119L6.60176 12.5234L6.57879 12.5205L6.57018 12.5263L6.49841 12.6641L6.40941 12.7531V12.7617L6.39506 12.7732L6.41515 12.799H6.42376L6.45247 12.8191H6.42664L6.41228 12.8019H6.4008L6.37783 12.7789H6.36348L6.35774 12.7847L6.36061 12.8363L6.37209 12.8478H6.37783L6.40367 12.8679H6.41228L6.44386 12.8966H6.46109L6.47257 12.9081L6.52712 12.9311H6.56157L6.59028 12.9052L6.59602 12.911H6.60176L6.6075 12.9138H6.61611L6.62473 12.9081L6.6276 12.911L6.63621 12.9052H6.64769V12.911L6.66205 12.9138V12.9282L6.6563 12.9339H6.63334L6.6276 12.9282H6.61324L6.6075 12.9339H6.59028L6.58453 12.9311L6.56731 12.9339L6.54147 12.9512H6.52712L6.50989 12.9339L6.44673 12.9253L6.41515 12.8995V12.8937L6.40941 12.8909L6.38357 12.8679H6.36922L6.36061 12.8564H6.35486L6.34625 12.8478L6.34051 12.8536H6.32328L6.31754 12.8593H6.30032L6.28883 12.8679V12.8851H6.29745L6.30606 12.8765L6.31467 12.8794L6.3319 12.8765L6.34338 12.8909V12.9052L6.34912 12.911L6.35486 12.9196L6.36061 12.9253H6.3807L6.39219 12.9368H6.39793L6.41802 12.954H6.45534L6.4697 12.9426L6.47257 12.9483L6.46109 12.9598L6.44386 12.9655L6.43812 12.9713L6.38931 12.9684L6.38357 12.9626H6.36635V12.9684L6.37783 12.9799H6.38644L6.38931 12.9856H6.39506V13L6.38931 12.9942L6.38644 12.9885H6.36635L6.36061 12.9827H6.35486L6.34625 12.9885L6.34051 12.9942L6.32616 12.9914L6.32041 12.9971L6.33764 13.0143L6.34338 13.0258L6.35486 13.0344H6.3807L6.38931 13.043H6.40367L6.40941 13.0459H6.42089L6.43238 13.0545V13.0717L6.42376 13.0775L6.42089 13.0832L6.36922 13.0804L6.31754 13.0315H6.30032L6.28883 13.0201H6.23142L6.21706 13.0287L6.19123 13.0057L6.1941 12.9971L6.21419 13.0172H6.21993L6.22568 13.0115L6.27161 13.0143L6.28596 13.0028V12.9971L6.27448 12.9856L6.20845 12.9827L6.19984 12.9885H6.18261L6.17687 12.9827H6.16252L6.15965 12.9885L6.14529 12.9942L6.12807 13.0086L6.11658 13.0115L6.11371 13.0201L6.12232 13.0287V13.0344L6.15677 13.0689L6.18835 13.0717L6.20271 13.0603V13.0717L6.21993 13.0918H6.23142L6.25151 13.1004L6.27735 13.0947L6.28309 13.0918L6.28596 13.0775L6.29458 13.0689L6.30319 13.0717L6.3118 13.0689L6.32041 13.0746L6.32616 13.0804H6.33477L6.35199 13.0947L6.39793 13.0976L6.40941 13.1091L6.40367 13.1119L6.39793 13.1234V13.1148H6.38931L6.38357 13.1205L6.37783 13.1263L6.37209 13.1205L6.36922 13.1177H6.36061L6.34338 13.0976L6.32041 13.1004V13.1177L6.30032 13.1234L6.2917 13.1292H6.26587L6.26013 13.1234H6.2429L6.23429 13.1292L6.20558 13.1033H6.17974L6.16252 13.0861H6.1539L6.13381 13.0947L6.11945 13.0918L6.08787 13.1091H6.02471L6.00175 13.1292H5.97017L5.8582 13.2009L5.78069 13.2067L5.75198 13.2354L5.52231 13.2497L5.4649 13.2813L5.24671 13.2928L5.129 13.3904L5.11752 13.5397L5.08307 13.577V13.6718L5.13475 13.7234L4.98833 13.8698H4.83905L4.72995 13.9301H4.68115L4.51177 14.0478V14.0966L4.54048 14.1253H4.59789V14.1742H4.52899L4.48593 14.2201L3.99788 14.223L3.94334 14.1684L3.88879 14.045H3.63328L3.65051 14.1713L3.7108 14.2316V14.3722L3.77682 14.4354V14.5301L3.81702 14.5732L3.77682 14.6163L3.47251 14.622L3.42658 14.5761L3.36342 14.6019L3.31749 14.6478L3.13375 14.4842H3.06772L3.00169 14.5502L2.95576 14.5043L2.88686 14.5732L2.54235 14.5847L2.42465 14.6852V14.7598H2.54809L2.53948 14.9206H2.49068V14.9694H2.55958L2.63709 15.0182V15.0785H2.8926L2.98159 15.1675H3.0792L3.12801 15.2565H3.395L3.43519 15.3656L3.54428 15.3541L3.61319 15.3742L3.53567 15.4546L3.54428 15.5522L3.71367 15.7905L3.91176 15.8479L3.9663 15.9024L3.90314 16.0173L3.96917 16.2354L4.11272 16.379L4.11846 16.5225L4.06965 16.4737L4.03233 16.3646L3.9864 16.3187H3.92037L3.86295 17.0795L3.82276 17.1168L3.83424 17.2402L3.66486 17.467H3.36916L3.32323 17.4211L3.25433 17.3924H3.20265L3.13662 17.4469L3.00743 17.4326L2.94714 17.3723L1.41984 17.3436L1.2562 17.2288L1.05237 17.2402L0.977729 17.2804V17.401L0.931795 17.4297L0.618871 17.4843L0.509778 17.6135V17.6422L0.567195 17.7111L0.644708 17.757L0.664805 17.7972L0.673417 18.2479L0.644708 18.2766L0.661934 18.3226V18.3714L0.696384 18.4661V18.5666L0.722222 18.5924L0.745189 18.7446L0.707868 18.7819L0.710738 18.891L0.68203 18.9771V19.0862L0.610258 19.158L0.601645 19.3073L0.547099 19.3647L0.527003 19.4135L0.466715 19.4738L0.469586 19.5168L0.440877 19.5455L0.415039 19.7551L0.440877 19.781V19.8154L0.504036 19.824L0.618871 19.7092V19.7494L0.527003 19.87V19.9302L0.690642 19.9389L0.707868 19.9216L0.676288 19.9532L0.707868 19.9819L0.673417 20.0537L0.664805 20.3609L0.690642 20.4298V20.4843L0.613129 20.5618L0.630354 20.6451L0.647579 20.625L0.837057 20.6049L0.957633 20.6451H1.11553L1.13563 20.625L1.24185 20.5704L1.2562 20.5303H1.49736L1.61506 20.648L1.70406 20.6738L1.73277 20.7025V20.8116L1.75286 20.8575L1.78157 20.8862L1.81889 21.0269L1.92799 21.113L1.97679 21.1188L2.0055 21.1475H2.06005L2.12033 21.1217L2.18924 21.047V20.9925L2.2811 20.9379L2.45336 20.9322L2.51938 20.8432H2.54522L2.56819 20.8173H2.78638L2.83518 20.7972L3.05624 20.7858L3.08495 20.8145H3.19978L3.27442 20.8403L3.34907 20.7657H3.37777L3.49548 20.803L3.61606 20.6853L3.65051 20.536L3.83424 20.4097H3.9864L4.04094 20.3896V20.358L4.11846 20.2805L4.17588 20.0853L4.34239 19.9015H4.37971L4.49741 19.8125L4.33377 19.6058L4.31942 19.5656L4.34813 19.3073L4.67541 18.9053L4.80172 18.8336L4.77302 18.8077V18.7274L4.83043 18.6958L4.87063 18.6527L5.07446 18.5781H5.13187L5.15771 18.5522H5.20652L5.30987 18.4489H5.36729L5.42757 18.3857L5.4448 18.3455L5.44767 18.2393L5.48212 18.202V18.1532L5.50796 18.1273V17.9436L5.49073 17.935L5.4936 17.8173L5.48499 17.7886L5.5137 17.6651L5.6027 17.579L5.65724 17.5503L5.73189 17.5446L5.96156 17.401L6.01323 17.4068V17.4326L6.02471 17.4498L6.02759 17.4642L6.11658 17.4613L6.13381 17.4699L6.18548 17.4728L6.20271 17.49L6.22855 17.4986L6.26013 17.5273H6.28309L6.29745 17.5158L6.41228 17.4986L6.42664 17.467L6.43812 17.4556H6.45247L6.50128 17.4871V17.4986L6.48692 17.513L6.42951 17.5216V17.5446L6.5587 17.5618L6.56731 17.5704V17.5819L6.58166 17.6077L6.57592 17.6163L6.59889 17.6278H6.61037L6.68214 17.6565H6.71372L6.71946 17.6795L6.79985 17.7111L6.81707 17.7053L6.90607 17.7139L6.91468 17.7197L6.93765 17.7025L7.13574 17.6709L7.15584 17.602L7.18742 17.5646L7.2879 17.5044L7.29938 17.4843L7.31373 17.4728L7.33383 17.4699L7.35106 17.4527L7.39986 17.4297V17.4154L7.43144 17.3867L7.48599 17.3838L7.51757 17.3522L7.59508 17.3579L7.61517 17.3378L7.82188 17.2718L7.8592 17.1857L7.97977 17.0967V17.0393L8.11758 16.9015H8.28696L8.40753 16.9905H8.54534L8.83242 17.1398L8.89271 17.4068L8.97884 17.5158V17.6278L9.08793 17.734L9.10515 17.7828L9.92622 18.4661L10.0267 18.4632L10.1042 18.5407H10.2966L10.6095 18.8479H10.7329L10.954 19.1408L11.0746 19.201H11.132L11.1923 19.2498V19.3991L11.3186 19.4393V19.6288L11.3875 19.6977L11.3301 19.758L11.2985 19.8355H11.2296V19.936L11.1923 20.025L11.1062 20.1111V20.1771L11.3301 20.2145L11.5368 19.959V19.8384L11.6143 19.7609L11.8038 19.692L11.7751 19.4939L11.554 19.2699V19.1666L11.7349 18.9857H11.798L11.8669 19.0575L12.0535 19.0374L12.1368 19.1235V19.2097H12.3119L12.3406 19.1006L12.3291 19.0317L11.6631 18.6154H11.6459L11.2497 18.4374L11.2985 18.3369L11.3731 18.2623L11.31 18.179L10.8133 18.1589L10.7243 18.0699L10.5148 17.9924L10.4114 17.8862L10.3769 17.5934L10.1473 17.2862L10.0324 17.2259H9.98077L9.72526 16.9474V16.778L9.79416 16.7091V16.6115L9.73962 16.557L9.70517 16.4622L9.64775 16.422L9.74249 16.3273L9.80852 16.3445L9.85445 16.3388L9.92622 16.3043H9.9578L9.94058 16.2699L9.96354 16.2498L10.0841 16.2326L10.1186 16.2498L10.1444 16.244L10.1588 16.2814H10.176L10.2018 16.3388L10.2592 16.3819L10.2478 16.4134L10.2506 16.4307L10.2793 16.4737L10.2765 16.5484L10.4315 16.7665L10.4746 16.7321L10.4803 16.7063V16.6833L10.4975 16.6517L10.5119 16.6402L10.5607 16.5283V16.4651L10.598 16.4479H10.6152L10.687 16.4823L10.7071 16.5139L10.8018 16.5857L10.8133 16.6173L10.8305 16.6345L10.8506 16.8125L10.9913 16.9962L10.9971 17.068L11.0889 17.1484L11.1062 17.18L11.3301 17.3149L11.3329 17.3809L11.3502 17.3867L11.4018 17.4125L11.4191 17.3895L11.4736 17.3637L11.7808 17.424L12.4239 17.8517L12.4411 17.9005L12.7942 18.2651V18.3886L12.7713 18.4546V18.624L12.7282 18.7388V18.9599L13.0153 19.2125L13.0325 19.2671L13.0641 19.2987L13.0985 19.4077L13.2277 19.5197L13.2823 19.514L13.4028 19.5513L13.4229 19.5829L13.4115 19.6173L13.2421 19.5656L13.2794 19.6575L13.3253 19.7034L13.3684 19.8068L13.3713 19.8412L13.3885 19.87L13.4201 19.8958L13.4459 19.9015L13.4746 19.8872L13.4804 19.87L13.5234 19.9245L13.5722 19.9331L13.6067 19.913L13.667 19.9245L13.6985 19.9073H13.7244L13.733 19.8987L13.8076 19.8843L14.0861 19.9618L14.2813 20.0939L14.2785 20.1111L14.2325 20.1255L14.1866 20.1111L14.1608 20.1283L14.1636 20.1484L14.155 20.1685L14.1378 20.1771L14 20.0881L13.9885 20.0709L13.8421 20.0192L13.8048 19.9819L13.7244 19.9475L13.6526 19.9704L13.6469 19.9934L13.6182 20.002L13.6009 20.0135L13.5406 20.0078L13.5033 19.9848L13.4775 20.0365L13.4574 20.0479L13.4545 20.0824L13.4344 20.1082L13.3741 20.1226L13.3627 20.1599L13.4545 20.2374L13.4603 20.2633L13.5205 20.3092L13.5952 20.4355L13.578 20.4901L13.532 20.5303L13.5234 20.5647L13.5263 20.5963L13.5464 20.6307L13.5694 20.6508L13.5722 20.6738L13.5636 20.7025L13.5722 20.7255L13.5665 20.7571L13.6756 20.7685L13.6899 20.7427L13.6756 20.6853L13.6813 20.6566L13.7014 20.6393L13.733 20.625L13.7617 20.6336L13.7761 20.648V20.6767L13.8765 20.8317L13.8507 20.9035L13.8708 20.9379L13.9052 20.9551L13.9167 20.9092L13.9139 20.8834L13.9713 20.7829L13.9885 20.7743L14.0603 20.7886L14.0631 20.8403L14.089 20.8748L14.1062 20.8776L14.1234 20.9035L14.1292 20.9264L14.1608 20.9437L14.1808 20.9781L14.1981 20.9867L14.221 20.9666L14.1665 20.846L14.1923 20.7743L14.0545 20.4039L14.0689 20.3609L14.0976 20.3695L14.1493 20.4068L14.1923 20.4183L14.2268 20.4585L14.2153 20.4929L14.2268 20.5188L14.2813 20.4929L14.2986 20.4757L14.3129 20.47L14.3703 20.4757L14.3876 20.4671L14.3962 20.4413L14.3502 20.3953L14.3445 20.3724L14.3244 20.3838L14.2842 20.3781L14.267 20.3609L14.2239 20.2432L14.1895 20.2202L14.1952 20.203L14.333 20.1628L14.4622 20.1858L14.5225 20.2547L14.5426 20.2633L14.6057 20.3465L14.6287 20.3551L14.6545 20.3264L14.6603 20.3035L14.6258 20.1226L14.6459 20.0968L14.6488 20.0767L14.6287 20.0422L14.5627 20.0336L14.3617 19.8786L14.3531 19.8499L14.3359 19.824L14.2957 19.8125L14.2813 19.824L14.244 19.8125L14.2239 19.7781L14.0517 19.7092L14.0344 19.6862L14.043 19.669L14.1923 19.7006L14.2182 19.692L14.2354 19.646L14.2067 19.6001L14.2009 19.5656L14.1521 19.5111L14.1579 19.4853L14.2009 19.4594L14.2067 19.4479L14.2325 19.4537L14.2928 19.5054L14.3014 19.5226L14.3244 19.5455L14.3703 19.5542L14.3646 19.5255L14.0488 19.0489L14.1033 18.9943L14.1091 18.9226L14.1349 18.8967H14.1608L14.2182 18.8537L14.2842 19.003L14.3244 19.0431H14.3617L14.3962 19.0977V19.1264L14.4679 19.2154L14.4909 19.1896V19.135L14.4651 19.1092V19.0805L14.4852 19.0632L14.6057 19.1867H14.6545L14.6804 19.158L14.5971 19.0747L14.5799 19.023L14.6143 18.9886L14.7263 19.1034L14.7694 19.0776V19.0317L14.6029 18.8652L14.6086 18.7762L14.8411 18.7876L14.9158 18.713H15.0852L15.1024 18.6958H15.1885L15.2144 18.6757L15.3034 18.7417L15.3665 18.7216H15.4814L15.5244 18.7561H15.6105V18.7934L15.6852 18.7101L15.7254 18.5407L15.7885 18.5092L15.8287 18.446L15.7397 18.2565L15.7943 18.202L16.0412 18.1159H16.09L16.1216 18.1474L16.3656 18.1733L16.3972 18.1417L16.3512 18.0498L16.2737 17.9723L16.2479 17.9063L16.5091 17.4096L16.5895 17.4268L16.6268 17.4039L16.6986 16.8957L16.7819 16.8096L16.7933 16.7608L16.7819 16.712L16.822 16.6718V16.6029L16.8709 16.6086L16.8651 16.6661L17.0689 16.6488L17.1235 16.5857L17.1063 16.5024L17.1522 16.4565L17.1608 16.4278L17.1264 16.3273V16.2211H17.1608L17.2871 16.1436L17.3532 16.1292L17.4737 15.9742H17.5082L17.5943 15.8077L17.6575 15.7445L17.8929 15.7043L17.9589 15.7302H18.0249L18.0881 15.5981L18.0996 15.5034L18.0163 15.4115L18.0336 15.3455V15.3943L18.1369 15.4804L18.1484 15.6842L18.1714 15.7244L18.2833 15.7187L18.3321 15.6928H18.3867L18.312 15.7876H18.1283L18.1053 15.8134L18.0996 15.8737L18.0623 15.911L18.8345 16.0259L18.8604 16.0804L18.8288 16.1149H18.7628L18.3867 16.3618H18.4412L18.7541 16.5168L18.7886 16.5598L18.7714 16.7407L18.7168 16.7981L18.8001 16.8326L18.8345 16.8814H18.9838L19.202 16.7235L19.2393 16.6575L19.4202 16.6402L19.5637 16.557L19.5781 16.5225L19.6757 16.5426L19.7446 16.5771H19.8738L19.9771 16.5168H20.0432L20.0977 16.4307V16.3732L19.9484 16.3216L19.8795 16.3531L19.6987 16.356L19.6211 16.3905L19.5465 16.3732L19.3427 16.0546V15.9885L19.4202 15.9512L19.492 15.8622L19.6412 15.8364L19.7618 15.7101L20.0231 15.6756L20.0575 15.6412L20.1982 15.6584L20.8011 15.4316L20.8154 15.2622L20.87 15.1933L20.9647 15.1531L21.0709 15.0555L21.4585 15.0412L21.47 14.978L21.513 14.9292L21.4815 14.6967L21.4413 14.6622L21.4384 14.6105L21.4929 14.4957L21.4614 14.4096L21.536 14.3579L21.5676 14.2861L21.5705 14.1971L21.5389 14.111Z" fill="white"/>
<path d="M6.74239 6.89997L6.85149 6.96025H6.90316L6.83139 6.98322H6.71943L6.6534 7.08083L7.50604 7.05786L7.60652 7.09231L7.65246 7.13825L7.59504 7.19854H7.5204L7.47159 7.23873L7.41418 7.18418L6.86871 7.16121L6.69072 7.33347L6.72804 7.37079H6.7912V7.3995L6.87158 7.43395L6.82278 7.48275L6.85149 7.51146L6.89742 7.53443L6.83139 7.60046H6.7711L6.65627 7.63778V7.70094L6.70794 7.75261L6.74239 7.72103H6.85723L6.92613 7.78994L7.01513 7.7641L7.15867 7.61481H7.2247L7.29934 7.66075L7.26776 7.68945H7.23044L7.2046 7.66362L7.1357 7.73539V7.79281L7.02374 7.82439L6.9089 7.93922L6.95771 7.98515L7.00938 8.00812H7.10412L7.06106 8.05118H7.01226L6.88307 8.18037H6.82278L6.69646 8.24066L6.71943 8.26363V8.3153H6.84574L6.94335 8.27798L6.92613 8.21769L7.09838 8.21195L7.16441 8.14305L7.19025 8.17176L7.11848 8.24066L7.09838 8.30956L7.1357 8.34688H7.0869L7.04383 8.38995L7.02374 8.48756L7.09838 8.49904L7.12709 8.46746H7.17589L7.07541 8.56794H6.98642L6.91178 8.4933L6.88594 8.57081L6.83713 8.61962V8.68565L6.96345 8.81483L7.00938 8.90096H7.12709V8.95551L7.24192 9.01005L7.28212 8.96699H7.35676L7.37398 8.99283L7.29073 9.08183H7.45437L7.48882 9.11915H7.77878L7.8161 9.08183L7.885 9.06747L7.91371 9.03876H8.01132L8.09744 8.95264H8.13476L8.21515 8.86938H8.27257L8.32137 8.82058L8.38166 8.68852L8.46204 8.60813H8.51372L8.56827 8.55359V8.48756L8.60559 8.4531L8.65439 8.50191H8.69171L8.74339 8.45023H8.78932L8.81229 8.38995L8.92138 8.27798L8.86397 8.21769V8.16028L8.92712 8.1287V8.00525L8.98741 7.94496L9.02186 7.97941V8.0598L8.98454 8.09712V8.1775L9.03335 8.22631V8.36698L9.21708 8.4043L9.21421 8.54784L9.22569 8.55359L9.29172 8.87225L9.30895 8.90096L9.37498 8.95551L9.38646 8.98135L9.4812 9.0646L9.47833 9.25121L9.54149 9.36317V9.40623L9.64771 9.54691L9.67355 9.66174L9.69939 9.7048L9.708 9.74213L9.84293 9.91151L9.89174 9.9316L9.93767 9.97754L9.95489 10.0608L9.90322 10.1039L9.84867 10.2129L9.87738 10.457L9.95202 10.4943L9.99509 10.5575L10.0468 10.7182L10.1214 10.7613L10.2362 10.7555L10.2678 10.7268L10.5434 10.7096L10.5578 10.6034L10.575 10.5862V10.5517L10.5262 10.5029L10.5434 10.4656L10.5951 10.4283V10.3996L10.6324 10.3594L10.7243 10.3507L10.7932 10.2675H10.8334L10.8764 10.2531H11.1233L11.1348 10.2991L11.198 10.3594L11.2497 10.256L11.287 10.2187L11.3214 10.144L11.3329 10.0751L11.4076 10.0034V9.96605L11.4851 9.8627L11.4937 9.7938L11.5138 9.77371L11.5195 9.54691H11.5367L11.5655 9.48662L11.554 9.26843L11.5253 9.21101L11.5769 9.20814V9.02441L11.6114 8.95264L11.5884 8.88374L11.5769 8.87225L11.6114 8.84067L11.6229 8.80622L11.5769 8.75742L11.6889 8.74593L11.7607 8.67416L11.821 8.68565L11.9186 8.65694L11.9932 8.57081L11.9875 8.52775L11.999 8.51626L12.0277 8.53062L12.0564 8.56794V8.60526L12.2889 8.3842L12.2229 8.31243L12.2085 8.26076H12.2545V8.32392L12.3176 8.36411L12.3836 8.35263L12.3578 8.29234L12.3033 8.25502V8.23205L12.3894 8.13157L12.4612 8.11721L12.5674 7.95357L12.4813 7.84161L12.4181 7.8129L12.2975 7.68945L12.3033 7.65213L12.1942 7.60333L12.1396 7.54591H12.0851L11.9358 7.43969L11.8037 7.41959V7.0837L11.7865 7.04064L11.7894 6.80236L11.8755 6.69039L11.8612 6.63872L11.8956 6.60427V6.55833L11.9387 6.51527V6.44063L11.9702 6.38895L11.9071 6.34589L11.9272 6.22531L12.0592 6.21383L12.1023 6.19086L12.1281 5.99564L12.1052 5.93823L12.1798 6.01861L12.2832 5.98416L12.3463 5.9009L12.4066 5.87507L12.4238 5.82339L12.487 5.75736L12.6248 5.73439L12.8803 5.5363H12.9176L12.9837 5.47889L13.0439 5.46453L13.1243 5.39563L13.2478 5.34396H13.3138L13.3196 5.30663L13.3798 5.24635V5.21477L13.6526 4.91045L13.6554 4.88175L13.644 4.84155L13.5377 4.7382L13.509 4.6693H13.532L13.5607 4.60614L13.6526 4.52863L13.6755 4.41379L13.7042 4.38222L13.7157 4.32193L13.7014 4.29609L13.733 4.26451H13.799L13.8478 4.21283V4.16977L13.8851 4.13245H13.9425L13.9942 4.10948V4.07216L14.0229 3.99465L14.1406 4.00613V3.98029L14.1808 3.95446H14.2095L14.244 3.98604L14.3014 4.01474L14.91 3.98604L14.9732 4.04919H15.0277L15.0622 4.08077L15.1024 4.0779L15.1741 4.15829L15.2516 4.18125L15.2631 4.29896L15.2402 4.39083L15.2574 4.4626L15.3091 4.52002V4.54873L15.2775 4.59466L15.2717 4.63198H15.0679L15.0392 4.65782L14.999 4.67791L14.5368 5.18032L14.4765 5.20041L14.4535 5.22338L14.4478 5.26357L14.4134 5.29802L14.3674 5.29228L14.3014 5.32386L14.2382 5.44731L14.132 5.47602L14.1004 5.45305L14.0229 5.54779V5.68846L13.9971 5.7143L13.9425 5.74014L13.6928 5.73439L13.6554 5.79755L13.6353 5.93823L13.5779 5.96119L13.5205 6.05019V6.31718L13.5693 6.34302V6.37747L13.5808 6.41192V6.63298L13.644 6.67891L13.6928 6.8569L13.6641 6.88561L13.6813 6.98896L13.6554 7.02054L13.6583 7.11241L13.6239 7.14686L13.5923 7.3593L13.6124 7.43108L13.644 7.46266L13.7444 7.51146L13.7932 7.56314H13.9023L13.9253 7.5861L14.0775 7.62917L14.1004 7.655L14.0746 7.72965L14.244 7.71816V7.73539L14.2641 7.75548L14.2669 7.77845L14.3617 7.87606L14.9559 7.84448V7.81577L15.0593 7.74687L15.1885 7.75261L15.4411 7.64639L15.4727 7.66362L15.5818 7.64926L15.5933 7.63778H15.6335L15.7856 7.56314L15.8459 7.58323L16.3598 7.55452L17.8268 6.17938L17.9129 5.97555V5.91526L17.2699 5.40424L17.4134 5.30951L17.4967 5.16022L17.5024 5.10854L17.2756 4.90758V4.81284L17.3014 4.77839V4.72959L17.1464 4.62624L17.0976 4.53437L17.1694 4.45686V4.41667L17.1464 4.39083L17.1952 4.07216L17.3244 4.06068V3.92862L16.8794 3.21664L16.8823 3.17358L17.2297 2.71998L17.2526 2.65682V2.62524L16.9167 2.30945L16.8191 2.28361L16.6785 2.14007L16.6383 2.0482V1.98217L16.7187 1.90466L16.7072 1.74963L16.6813 1.72092L16.7129 1.66925H16.7675L16.8019 1.60034H16.8995L17.0029 1.49986L17.0459 1.39651H17.1062L17.1263 1.37355H17.2297L17.3646 1.20991L17.4249 1.17258L17.5196 1.24436L17.6287 1.2501L17.6546 1.22139L17.6402 1.12665L17.6919 1.07498L17.6316 1.01469L17.5885 1.06062L17.4967 1.08072L17.4335 1.00607L17.379 1.06062H17.178V1.0032L17.0833 0.911336H17.0316L16.9656 0.851048L16.9053 0.842435L16.7933 0.790759L16.8909 0.762051L16.9856 0.807985H17.3732L17.5196 0.673054H17.5943L17.6833 0.638603H17.7235L17.6689 0.584057V0.492189L17.4507 0.451997L17.3129 0.345775H17.0144L17.0258 0.285487L16.9713 0.233811L16.7646 0.225198L16.6555 0.322808V0.374483L16.5579 0.584057V0.532381L16.4947 0.503673V0.431901L16.4689 0.406063L16.512 0.360129L16.489 0.337162H16.4057V0.288357L16.512 0.210844L16.6383 0.182135L16.6096 0.153427V0.107493H16.5407V0.0414628H16.4517L16.3971 0.0673006L16.2536 0.0701715L16.2019 0.0931384L16.1703 0.124718L16.1646 0.182135L16.1904 0.274003L16.0899 0.351517L16.0469 0.446255V0.489318L16.0067 0.486447L15.9866 0.503673L15.955 0.486447L15.8517 0.56109H15.8086L15.8115 0.371613L15.8459 0.337162L15.8517 0.136201L15.8229 0.176394H15.7741L15.711 0.242424L15.665 0.236682L15.3493 0.546736L15.3148 0.718988L15.2832 0.753438L15.1885 0.75918L15.1655 0.730471L15.154 0.670183L15.1885 0.635732V0.543865L15.2229 0.509414L15.1942 0.472093L15.2631 0.451997L15.421 0.285487H15.4612L15.5129 0.153427H15.6564L15.5186 0.015625H15.4067L15.3694 0.0902676L15.4153 0.136201L15.3292 0.16491L15.2976 0.19649H15.2459L15.177 0.159168V0.124718H15.1138L14.9789 0.182135V0.225198L14.933 0.294099H14.9789V0.374483H14.8239L14.8354 0.503673L14.6201 0.515156L14.5856 0.555348L14.5569 0.644345L14.3961 0.730471V0.782147L14.4449 0.830951L14.3445 0.862531L14.2497 0.785018V0.713246L14.2153 0.678795V0.598411L14.1119 0.650087L14.0746 0.690279L13.9999 0.724729L13.888 0.678795L13.8277 0.701762L13.733 0.667312H13.5923V0.707504L13.687 0.747696L13.7703 0.830951L13.8449 0.836693V0.888369L13.7904 0.963011V0.92569L13.687 0.934303L13.6239 0.865402L13.5406 0.894111L13.5263 1.00607H13.4487L13.4028 0.960141L13.2707 1.12091L13.3167 1.19842H13.2707L12.9951 1.37642L13.0727 1.29603V1.26158L13.1387 1.20129V1.14962L13.176 1.1123V0.948657L12.955 1.07498L12.9205 1.13239L12.955 1.16397L12.8746 1.27594L12.8057 1.29603L12.8286 1.27594L12.866 1.08072H12.6535L12.6133 1.12091L12.5846 1.20129V1.26732L12.6793 1.3678H12.6104L12.5243 1.28455L12.487 1.20991V1.06923H12.3722L12.309 1.13239V1.20129L12.3894 1.26732L12.3836 1.31326L12.464 1.39651H12.3836L12.3578 1.4367L12.1913 1.26732H12.1109V1.22139L12.1511 1.15536L11.9875 1.22139L11.9301 1.27594H11.864L11.7923 1.35058L11.6918 1.39077L11.775 1.4769L11.7233 1.52857L11.7693 1.58886L11.8841 1.58312L11.9588 1.50561L12.0478 1.5458L11.9674 1.62331L11.9588 1.71518L11.999 1.7525L12.0162 1.80992L11.9588 1.86159L11.8238 1.79843L11.7607 1.86159L11.6458 1.91901L11.5999 1.96782L11.6286 2.02523L11.8123 2.06255L11.8439 2.03097H11.9789L11.8956 2.1171H11.864L11.8353 2.14581V2.17739L11.7693 2.12284H11.6717L11.5195 2.07117V2.14868L11.5683 2.20036L11.4506 2.34677L11.4564 2.42715L11.3846 2.43864L11.3444 2.39845V2.25777H11.2583L11.1607 2.35538L11.241 2.44438L11.1836 2.47309H11.0946L10.997 2.42715L10.9281 2.45012L10.908 2.47309L10.8764 2.53338L10.7989 2.60802L10.9396 2.61376L10.9913 2.56208L11.1233 2.58505L11.1664 2.63099L11.1377 2.65969H11.0343L11.0028 2.69127L11.0774 2.76592H11.1434L11.1664 2.82333L10.9913 2.80898L10.8822 2.76017L10.8506 2.79463L10.6554 2.86066L10.776 2.92956L11.2123 2.94104L11.02 3.02429H10.9741L10.8879 2.97262L10.7128 2.9841L10.6037 3.0932L10.4889 3.11042L10.3109 3.25971L10.3338 3.2798L10.2047 3.39751L10.2334 3.46354L10.1673 3.52957H10.0927L10.0812 3.57837L10.1444 3.64153L10.4085 3.62144L10.3023 3.71617L10.041 3.73914L10.0783 3.92862L10.0554 3.90565H9.97212L9.89461 3.9401V3.98029L9.84867 4.0291L9.79987 4.03771L9.76829 4.07216L9.78838 4.1468H9.84006L9.86303 4.2358H9.82571L9.7568 4.21283H9.7281L9.64771 4.28748L9.69939 4.34202H9.77977V4.3937H9.83145L9.94054 4.35925L9.80848 4.50566L9.47833 4.52002V4.61476L9.51278 4.65495L9.42953 4.67791L9.38072 4.72959V4.77265L9.45536 4.84155L9.39795 4.89897L9.38072 4.95926H9.30034L9.24005 4.89897H9.09076L9.07067 4.95926L9.00177 4.965L8.97593 5.02816L8.92138 5.08558H8.86397L8.80081 5.14587L8.82377 5.20328V5.2607H8.76923L8.66013 5.36692L8.7032 5.40999L8.66875 5.44157L8.70607 5.53056L8.75774 5.54205L8.78932 5.51047H8.85535L8.90703 5.45592H8.94435L9.02473 5.43008H9.06493L9.12521 5.37266L9.0477 5.29228H9.1367L9.26876 5.18893H9.35775L9.34627 5.24635L9.26302 5.27218L9.21134 5.33821L9.26302 5.38989V5.42434H9.14818L9.07641 5.49611L9.08789 5.5363L9.11947 5.57075L9.09938 5.61382L8.81229 5.59946L8.80081 5.65401L8.76636 5.68846L8.67736 5.70281V5.6052L8.60272 5.53056L8.5453 5.5076L8.34147 5.71143V5.61382L8.32137 5.63678H8.20367L8.14338 5.73439V5.80617H8.0917L8.06299 5.85784L8.19505 5.99277L8.07448 5.95258H8.01132L7.96538 5.90378H7.91371L8.05438 6.04445V6.11335L7.94816 6.00713H7.885L7.82471 5.94971V5.88942H7.76442L7.72136 5.92674H7.47734L7.46585 5.98129L7.52901 6.04445H7.61801L7.73571 6.09612L7.65246 6.17938H7.5204L7.41418 6.14206L7.23044 6.17077L7.33379 6.24254H7.40556L7.55485 6.41192L7.51179 6.45211V6.38895L7.23044 6.25689L7.26776 6.29995H7.21035V6.41192L7.17015 6.3746L7.07254 6.36024L7.02374 6.41192L7.11848 6.50666L6.86871 6.49804L6.78833 6.57843L6.9491 6.65594L6.98642 6.69039L6.6333 6.73058V6.79374L6.74239 6.89997Z" fill="white"/>
<path d="M18.8173 3.84781V3.33105L18.8115 3.33967L18.8173 3.84781Z" fill="white"/>
<path d="M18.8174 3.33144L18.8461 3.30273L18.8174 3.33144Z" fill="white"/>
<path d="M23.5573 12.386L23.5946 12.3516L23.543 12.386H23.5573Z" fill="white"/>
<path d="M22.8974 2.94044L22.8744 2.9634L22.8801 3.02369L22.9376 3.09546L22.949 3.12991L22.9261 3.17872L22.86 3.20169L22.4811 3.14714L22.4639 3.17872V3.21317L22.5012 3.22178L22.5873 3.29642L22.6505 3.24475L22.6821 3.23901L22.7366 3.26484H22.9577L23.0007 3.24762H23.0409L23.0725 3.2792H23.0926L23.1959 3.37681L23.216 3.38255L23.2735 3.29929L23.2821 3.2591L23.3251 3.21604L23.4514 3.26484H23.483L23.572 3.2103L23.7615 3.21604L23.8103 3.23326H23.8735L23.951 3.17298V3.15575L23.9338 3.11556L23.8361 3.03805H23.7959L23.6983 3.0036V2.98063L23.6151 2.96627L23.5778 2.92895V2.90024L23.5605 2.88015L23.2189 2.80551L23.1615 2.81699L23.1184 2.86005H22.995L22.9232 2.79689L22.84 2.77393L22.8112 2.80551L22.7596 2.81699L22.7423 2.83708V2.88876H22.8084L22.8974 2.94044Z" fill="white"/>
<path d="M20.0084 2.28314L20.0113 2.32046L20.129 2.24295L20.3156 2.19414L20.4592 2.09653L20.6888 2.12524L20.6773 2.16543L20.6171 2.2085L20.7979 2.23146L20.818 2.25156L20.864 2.27166L20.953 2.25156L21.0046 2.26879L21.1338 2.37501L21.3233 2.4152L21.3951 2.40085L21.4266 2.43242L21.441 2.47262V2.54152L21.5386 2.62764L21.7051 2.62477L21.7855 2.65348L21.8171 2.68506L21.7855 2.73099L21.7195 2.75683L21.6649 2.81138L21.6994 2.84583L21.8085 2.8286L21.8544 2.80277L22.2563 2.83722L22.2908 2.8286L22.3511 2.76545H22.486L22.5204 2.73387L22.486 2.69942L22.4343 2.68506L22.397 2.642L22.2621 2.59606H22.1702L22.1271 2.553V2.52142L21.9779 2.48697L21.9204 2.42668L21.8372 2.39797L21.7654 2.34343L21.7482 2.33769L21.7367 2.32907L21.5587 2.28314L21.5271 2.25156L21.3003 2.17405H21.2429L21.1281 2.04773L20.996 2.02763L20.9357 1.99318L20.7778 1.97309L20.7118 1.99318L20.5826 1.97021L20.0572 2.13385L19.9912 2.21711L20.0257 2.25156L20.0084 2.28314Z" fill="white"/>
</svg>
