<svg width="23" height="19" viewBox="0 0 23 19" fill="none" xmlns="http://www.w3.org/2000/svg">
<path d="M11.4727 18.1624C11.4633 18.1624 11.4538 18.1624 11.4468 18.1624C11.3453 18.1624 11.2414 18.1317 11.1517 18.068C10.8685 17.8674 4.18858 13.1017 1.72669 9.08201C1.72433 9.07729 1.71961 9.07021 1.71725 9.06549C1.16728 8.15438 0.876953 7.10873 0.876953 6.03947C0.876953 2.80338 3.51115 0.169189 6.74724 0.169189C8.62138 0.169189 10.361 1.05906 11.4609 2.53902C12.5585 1.05906 14.2981 0.169189 16.1723 0.169189C19.4084 0.169189 22.0425 2.80338 22.0425 6.03947C22.0425 7.10873 21.7522 8.15438 21.2022 9.06549C21.1999 9.07021 21.1952 9.07729 21.1928 9.08201C18.7309 13.1017 12.051 17.8674 11.7678 18.068C11.6781 18.1317 11.5742 18.1624 11.4727 18.1624Z" fill="white"/>
</svg>
