<svg width="24" height="21" viewBox="0 0 24 21" fill="none" xmlns="http://www.w3.org/2000/svg">
<path d="M23.3295 11.559L23.2001 11.6043L23.0885 11.5691L23.1291 11.3298L23.0834 11.0629L23.1037 10.8917L22.9819 10.9068L22.8855 10.8035L22.6014 10.7053L22.4239 10.5391L22.2869 10.3251L22.2488 10.1387L21.9647 9.81893L22.5076 9.14658L22.5304 8.98038L22.4594 8.78649L21.9495 8.70591L21.9292 8.40624L21.9698 8.21486L21.7871 7.55763L21.9596 7.35365L21.952 7.32092L21.9596 7.29322L22.0053 7.28818L21.7871 7.22775L21.7516 6.8752L21.8455 6.72663L21.9774 6.71656L21.8835 6.57806L22.0231 6.49496L22.1245 6.1676L22.089 6.05429L22.1474 6.01651L22.1956 5.79995L22.1575 5.74959L22.1803 5.59346L22.1042 5.53303L22.1702 5.42726L22.1118 5.03695L21.6501 5.0445L21.4548 4.74233L21.1783 4.68189L21.0895 4.52828L21.0489 4.37971L20.9855 4.39986L20.7344 4.26136L20.6963 4.3092L20.5872 4.24877L20.4782 4.30417L20.3412 4.19337L19.8744 4.04731L19.8896 3.97932L19.7907 3.81816L19.6943 3.89622L19.537 3.84082H19.3138L19.2681 3.88112L19.258 3.97932L18.9307 3.934L18.7633 3.95666L18.601 4.06998L18.5502 4.06242L18.393 4.20596L18.3727 4.29913L18.3549 4.37467L18.3016 4.41496L18.0302 4.53332L17.9541 4.51821H17.8323L17.8425 4.57361L17.8577 4.61894L17.8729 4.68189L17.8881 4.73981L17.9059 4.79521L17.916 4.82039L17.9059 4.85564L17.9084 4.90601L17.8653 4.92867L17.8374 4.93874L17.7436 4.94126L17.637 4.94378L17.5736 4.94126L17.5508 4.92615L17.5406 4.90601L17.5533 4.89593L17.6294 4.88838L17.7004 4.86571L17.8019 4.84809L17.878 4.84053V4.82542L17.8019 4.8355L17.6979 4.85564L17.6421 4.86823L17.5837 4.87831L17.4975 4.88586L17.4188 4.89845L17.3656 4.91356L17.3098 4.92867L17.2768 4.9463L17.2286 4.9614L17.122 4.97651L17.0434 4.99414L16.9927 5.00925L16.9216 5.02436L16.8531 5.03947L16.8075 5.05458L16.777 5.0722L16.7466 5.08731L16.5589 5.09235L16.5208 5.07724L16.4777 5.06213L16.4346 5.04954L16.3991 5.02688L16.3509 5.00925L16.2875 5.0017L16.224 4.98659L16.186 4.98155L16.1403 4.96644L16.0972 4.95637L16.0668 4.94126L16.049 4.92615L16.0135 4.90852L15.9856 4.88082L15.9628 4.86571L15.9348 4.84809L15.9146 4.83298L15.8866 4.81787L15.8537 4.80276L15.8232 4.78513L15.7877 4.75492L15.7395 4.71966L15.6939 4.67433L15.671 4.64664L15.6609 4.6139L15.6457 4.58368L15.6279 4.55095L15.6127 4.52073L15.5975 4.48799L15.5619 4.48044L15.5036 4.47792L15.4833 4.45777L15.4453 4.43259L15.392 4.4477H15.3463L15.2981 4.43763L15.2347 4.42756L15.1713 4.41245L15.1079 4.3923L15.0419 4.34949L15.0013 4.32935L14.9633 4.29409L14.9328 4.2538L14.91 4.21351L14.9024 4.15559L14.8846 4.09264L14.8745 4.04983L14.8618 3.95414L14.8542 3.83831L14.844 3.69981L14.7172 3.73003L14.5904 3.5739L14.5092 3.56635L14.4788 3.49836L14.3418 3.40015V3.34727L14.5168 3.26417L14.4052 3.08034L14.5371 2.98213L14.3265 2.74794L13.9663 2.91666L13.4564 3.38252L13.3372 3.33971L13.2231 3.40267L13.1799 3.37245L13.0683 3.36993L12.8121 3.27424L12.7284 3.13322L12.6472 3.12315L12.528 2.93681L12.4925 2.82097C12.4773 2.80083 12.4696 2.77313 12.4519 2.75298L12.3428 2.63966L12.1728 2.5062L11.9547 2.51627L11.7974 2.44828L11.8253 2.41051L11.7213 2.1587L11.7822 2.12092L11.8431 1.98998L11.7974 1.79608L11.6833 1.72809V1.65003L11.663 1.60722L11.5361 1.58959L11.4778 1.5493L11.5209 1.50649L11.4194 1.45361L11.3433 1.34785L11.3129 1.37303L11.2977 1.30756L11.1607 1.29245L11.1176 1.40073L10.8081 1.33274L10.7244 1.39066L10.5442 1.33274L10.5265 1.36296L10.4961 1.39066L10.4783 1.41584L10.4656 1.44606L10.4225 1.45361L10.3946 1.4662L10.2221 1.59211L10.1561 1.60722L10.1029 1.62485L10.0724 1.65255L10.0521 1.67521L10.0014 1.70291L9.96333 1.72054L9.93543 1.72305L9.92528 1.7155L9.85933 1.72305L9.83396 1.7432L9.79844 1.77594L9.75786 1.80364L9.70205 1.80867L9.67161 1.79608L9.64117 1.77594L9.53969 1.77845L9.50925 1.75831L9.48135 1.75579L9.46359 1.73816L9.44076 1.74068L9.40017 1.74572L9.36212 1.71298L9.32661 1.67773H9.28602L9.25558 1.69284L9.21753 1.69535L9.17694 1.69787L9.15918 1.69032L9.13128 1.6878L9.11352 1.70795L9.06532 1.7155L8.99176 1.72557L8.92073 1.75831L8.88521 1.77845L8.84716 1.78349L8.81672 1.77342L8.78882 1.78601L8.7533 1.80867L8.69242 1.81623H8.64422L8.63154 1.79608L8.56051 1.78349L8.47933 1.76838L8.37786 1.75831L8.36518 1.74572L8.34235 1.73313L8.33474 1.7155V1.70291L8.32459 1.68276V1.66262L8.28147 1.65506L8.26878 1.64751L8.25356 1.65506L8.24342 1.67269L8.23327 1.68276L8.22058 1.70543L8.20283 1.72557L8.18 1.72305L8.13687 1.70291L8.08867 1.66262L8.04809 1.65255L8.02525 1.64247L7.99989 1.6324L7.96184 1.62233L7.90095 1.61226L7.87051 1.58959L7.86037 1.55937L7.85022 1.52916L7.82992 1.51908L7.80963 1.50901L7.7868 1.49894L7.76651 1.48887L7.74875 1.47879L7.71577 1.46872L7.68533 1.45613L7.64982 1.44857L7.63459 1.45613L7.62445 1.47879L7.6143 1.49894L7.60162 1.51908L7.57879 1.53923L7.53059 1.5493H7.50015L7.46971 1.5216L7.44687 1.49894L7.41897 1.47124L7.38599 1.4385L7.3657 1.40577L7.35555 1.3831L7.33526 1.36296V1.25216L7.31496 1.2295L7.29467 1.20683L7.27184 1.19676L7.23886 1.1615L7.21096 1.17661L7.19066 1.18669L7.17037 1.19676L7.15007 1.20935L7.12978 1.21942L7.07905 1.2295L7.03592 1.24209H6.98772L6.94206 1.22698L6.89133 1.20431L6.84313 1.17913L6.80508 1.13884L6.76703 1.09351L6.73912 1.05071L6.72644 1.03056V0.982716L6.73912 0.942425L6.72644 0.932353L6.70361 0.914725L6.68331 0.89458L6.67317 0.879471L6.65795 0.876953L6.6275 0.907171L6.61482 0.927316L6.60467 0.937389L6.59453 0.955016L6.56916 0.985234L6.52857 0.997825L6.43217 0.995307L6.40934 0.985234L6.37383 0.967607L6.31802 0.99027L6.30026 0.997825L6.2546 0.99027L6.17343 0.977679L6.12523 0.975161L6.07449 0.970125L6.05927 0.977679H6.01615L5.94765 0.967607L5.85633 0.955016L5.78277 0.944943L5.7092 0.937389L5.65846 0.952498L5.61788 0.972643L5.57475 0.992788L5.53416 1.0079L5.50372 1.02552L5.47328 1.04567L5.43269 1.05322L5.38196 1.07085L5.31854 1.08092L5.27542 1.09351L5.23736 1.10359L5.19424 1.12121L5.15365 1.14388L5.12575 1.15647L5.10292 1.1741L5.08262 1.18669L5.06233 1.19676L5.04711 1.20683L5.03189 1.21942L5.01159 1.23957L4.99891 1.26979L4.97862 1.27986L4.93549 1.28993L4.91773 1.30252L4.90505 1.32267L4.87461 1.33274L4.8467 1.34281L4.82387 1.3554L4.7909 1.37555L4.7427 1.40577L4.69957 1.42843L4.66913 1.44606L4.6463 1.45613L4.62854 1.4662L4.58796 1.49642L4.56259 1.50649L4.55751 1.55937L4.54483 1.58959L4.52454 1.62233L4.49156 1.65506L4.45351 1.66514L4.40277 1.67773L4.35965 1.6878H4.16432L4.13641 1.66514L4.10344 1.64751L4.04255 1.64499L3.96899 1.62485L3.88781 1.60218L3.85737 1.59966L3.84976 1.61729L3.83708 1.6324L3.70517 1.64247L3.62906 1.63492L3.57072 1.62485L3.45656 1.6047L3.41344 1.58204L3.37285 1.57196L3.29675 1.56945H3.25362L3.18767 1.55686L3.10903 1.54678L3.05576 1.52916L2.99234 1.50901L2.95175 1.48887L2.90102 1.46872L2.86043 1.43598L2.8173 1.41332L2.77671 1.39569L2.72598 1.36296L2.67524 1.33022L2.64227 1.31008L2.62451 1.28993L2.61183 1.26979L2.60168 1.25971L2.59153 1.23957V1.22698L2.58138 1.19676L2.5687 1.15647L2.55094 1.11618L2.53065 1.08092L2.52811 1.0633L2.53826 1.05071L2.54841 1.03056L2.56363 1.04063L2.57631 1.03812L2.57124 1.0079L2.55855 0.955016L2.45708 0.942425L2.43933 0.995307L2.38605 0.960052L2.28966 1.03308L2.1476 0.89458L2.00047 0.879471L1.92944 0.94998L1.7265 0.970125L1.66815 1.091L1.57937 1.10107L1.56922 1.17661L1.70874 1.26727L1.73411 1.46872L1.54893 1.55182L1.55907 1.76334L1.49819 1.87414L1.38911 1.95724L1.39926 2.04034L1.41955 2.06049L1.43985 2.07056H1.56415L1.63518 2.06049L1.69606 2.05041L1.70621 2.04034L1.75948 2.03027L1.82543 2.01768L1.84065 2.03027L1.8508 2.05041L1.85334 2.06301L1.84826 2.08063L1.83051 2.09071L1.81021 2.11085L1.79753 2.12092L1.77977 2.131L1.75948 2.13351L1.71635 2.14359L1.70621 2.15114L1.68591 2.16121L1.67323 2.1738L1.65547 2.18136L1.64279 2.19395L1.62249 2.20402L1.6022 2.21409L1.58444 2.22669L1.57429 2.23676L1.56161 2.24683L1.54132 2.2569L1.52863 2.26446L1.51088 2.27705V2.28712L1.51849 2.30223L1.51341 2.30978L1.50073 2.30727V2.32741L1.51088 2.35008V2.3677L1.51595 2.38029L1.51088 2.39288L1.50073 2.4231L1.49058 2.43317L1.48551 2.44325L1.47536 2.45836L1.47029 2.48354L1.49058 2.48102L1.52102 2.46339L1.53117 2.45584L1.54893 2.4508L1.56922 2.43066L1.57937 2.4231V2.40044V2.38281L1.58951 2.37022L1.6022 2.36015L1.61996 2.34756L1.64025 2.32741L1.66054 2.31734L1.69098 2.28964L1.70113 2.27705L1.71889 2.25439L1.73157 2.23424L1.74172 2.22417L1.75187 2.20402L1.76201 2.19143L1.7747 2.1738L1.78992 2.16121L1.81021 2.15114L1.83051 2.14107L1.8508 2.131L1.86856 2.12092L1.88124 2.11085L1.91168 2.10078L1.95227 2.09071L1.96242 2.07056L2.01315 2.06049L2.04359 2.04034L2.07403 2.0202L2.10701 1.98746L2.12731 1.9648L2.1476 1.93458L2.16789 1.91192L2.17804 1.90184L2.18819 1.89177L2.20848 1.87163L2.21863 1.85148L2.22878 1.82126L2.24146 1.78349L2.25161 1.75831H2.26936H2.28712L2.33025 1.75327L2.38098 1.7432L2.41396 1.73564L2.43679 1.75831L2.45455 1.7709L2.51289 1.76838L2.52558 1.75327L2.54333 1.72557L2.56616 1.70795L2.58899 1.70291L2.62705 1.69032L2.66763 1.68276L2.68793 1.69284L2.73613 1.70543L2.77164 1.71298L2.79955 1.72305L2.82238 1.73313L2.84267 1.7432L2.86043 1.74824L2.88072 1.73816L2.9137 1.74824L2.94921 1.75831L2.98727 1.76586L3.03546 1.75831L3.07605 1.74824L3.11918 1.73816L3.15215 1.75579L3.18513 1.77342L3.2105 1.79356L3.23333 1.81371L3.26377 1.83385L3.29421 1.85652L3.3069 1.87666L3.30182 1.89429L3.33734 1.90688L3.34495 1.91947L3.35002 1.92954L3.45403 1.93206L3.49208 1.92702L3.53774 1.92954L3.57579 1.9371L3.61892 1.94717H3.65189L3.67472 1.9371H3.69502L3.70517 1.94969L3.69248 1.9648L3.65443 1.96732L3.59862 1.9648L3.51491 1.97487L3.4591 1.98746L3.42612 1.98242L3.37031 1.9925L3.35002 2.00761L3.31704 2.0202L3.17752 2.03027L3.14708 2.04034L3.10142 2.0479L3.08366 2.06049L3.06337 2.08063L3.03039 2.09574L3.0101 2.11589L3.04307 2.14359L3.06844 2.1587L3.0862 2.17129L3.12679 2.16625L3.18513 2.15366L3.19274 2.16373L3.20543 2.1738L3.21557 2.18891L3.20796 2.21409L3.16991 2.23172L3.13186 2.24683H3.08366L3.05576 2.2292H3.01263L2.97965 2.24179H2.92131L2.86043 2.23424L2.73359 2.22669L2.68285 2.22417H2.6651L2.57631 2.23676L2.54841 2.24683L2.50528 2.25439L2.4926 2.24179L2.48499 2.23172L2.49006 2.22165L2.52558 2.19143L2.55094 2.17129L2.54587 2.15366L2.53065 2.14107L2.45708 2.12848L2.39367 2.1184L2.3683 2.13351L2.36576 2.15366L2.37591 2.17129L2.38605 2.1864L2.3962 2.20402L2.41903 2.22669H2.45962L2.46469 2.24683L2.44947 2.2569L2.42411 2.27453L2.38605 2.28712L2.26429 2.29719L2.2237 2.29216L2.19834 2.27957L2.18058 2.26698L2.1476 2.24935L2.13238 2.23424L2.12477 2.16877L2.10701 2.18136L2.07657 2.19395L2.02584 2.2015L1.98525 2.20402L1.97256 2.22417L1.94973 2.2292L1.91168 2.22417L1.899 2.20906L1.84319 2.21661L1.82543 2.21158L1.79753 2.22669L1.75694 2.25942L1.73918 2.2846L1.71382 2.31482L1.6783 2.35008L1.65293 2.36015L1.63518 2.37022L1.61742 2.38281L1.60981 2.40296L1.59966 2.4231L1.59205 2.45332L1.57937 2.47347L1.56415 2.49613L1.55146 2.51376L1.53117 2.52635L1.51595 2.5339L1.48297 2.52383L1.47029 2.52886L1.46014 2.56664L1.45253 2.60441L1.44492 2.64722L1.44746 2.69254L1.44999 2.74291L1.45253 2.77313L1.44999 2.78572L1.43985 2.80586V2.81845L1.4297 2.8386L1.41955 2.85874L1.40941 2.87889L1.40687 2.894L1.39926 2.91162V2.92925L1.41955 2.94184L1.4297 2.95192H1.44999L1.50073 2.94184L1.55146 2.92925L1.5819 2.91918L1.61235 2.90911L1.63518 2.89903L1.66815 2.89148H1.6986L1.73665 2.88141H1.76709L1.78992 2.87133H1.85841L1.88124 2.88141L1.90407 2.88392L1.91929 2.89903L1.91422 2.91414L1.91168 2.93932L1.86856 2.94184L1.84573 2.95695L1.83051 2.97206V3.01487L1.81275 3.02746L1.78992 3.04257L1.76962 3.05516L1.75694 3.0753L1.75187 3.08538L1.78484 3.09797L1.79245 3.11811L1.80007 3.13826L1.81021 3.16596L1.82036 3.17855L1.8508 3.20877L1.85841 3.21884L1.87363 3.22891L1.88124 3.24402L1.87109 3.25409L1.86348 3.27676L1.85334 3.29438L1.83558 3.32208L1.83304 3.33468L1.8508 3.34727L1.87363 3.35734L1.88378 3.36741L1.94466 3.35734L1.96749 3.34978L1.98017 3.35734V3.39007L1.97256 3.41022L1.95227 3.42029L1.94212 3.42785L1.92944 3.45303L1.91422 3.48325L1.90407 3.49332L1.8229 3.50591L1.80007 3.51598L1.8026 3.57894L1.8229 3.59908L1.83304 3.60915L1.84319 3.6293L1.84826 3.64693L1.85841 3.657L1.87109 3.66959L1.88124 3.68722L1.89139 3.69981L1.90407 3.70988L1.96495 3.7124L1.98778 3.72247H2.01062L2.04359 3.71743L2.06896 3.72247L2.0715 3.75017L2.01569 3.75521H1.97764L1.94466 3.76528L1.9269 3.77283L1.88378 3.77787L1.85334 3.79046L1.81782 3.78794L1.80768 3.77535L1.79753 3.75521L1.78231 3.75269L1.75948 3.76528L1.75694 3.79298L1.76709 3.81564L1.75187 3.81816L1.74933 3.80305L1.73918 3.78291L1.7265 3.76528L1.71635 3.73506L1.7265 3.70988V3.67714L1.71635 3.66204L1.70621 3.65952L1.69606 3.63937L1.68591 3.61923L1.66815 3.59656L1.65547 3.57894L1.63264 3.56886L1.57429 3.57642L1.56922 3.60664L1.57429 3.64944L1.58444 3.66707L1.59459 3.68722L1.6022 3.70233L1.61488 3.71995L1.63264 3.73003L1.64279 3.73758L1.65293 3.75017L1.64279 3.76276L1.62503 3.78543L1.60981 3.80305L1.59966 3.81312L1.6022 3.8232L1.58444 3.81564L1.56161 3.80053L1.53371 3.7955L1.5261 3.83831L1.52102 3.86349L1.55146 3.8786H1.57937L1.59712 3.89622L1.61742 3.90881L1.63771 3.91889L1.66815 3.92896L1.68084 3.93903L1.69098 3.94911L1.70874 3.96421L1.72904 3.94911L1.74172 3.93903L1.7544 3.91637L1.76455 3.90378L1.81529 3.89622L1.82797 3.91637L1.83812 3.92896L1.84826 3.94911L1.85587 3.97932L1.86348 4.00199L1.86602 4.01206L1.87363 4.0322H1.88378L1.88885 4.01961L1.899 4.01458L1.9472 4.02213L1.99286 4.0322L2.00554 4.04228L2.01569 4.05235L2.02837 4.06242L2.03345 4.07249H2.05628L2.07403 4.06242L2.08925 4.06998L2.0994 4.08257V4.12286L2.10701 4.21099V4.23869L2.0994 4.25128L2.08925 4.2815L2.07911 4.29409L2.02584 4.30165L1.97764 4.30668L1.98271 4.32179L2.00554 4.33438L2.01569 4.34446L2.03598 4.35453L2.05374 4.3646L2.06642 4.37467L2.07403 4.38475L2.06642 4.39734L2.06135 4.40993L2.06642 4.43007V4.4477L2.07657 4.48044V4.50058L2.08418 4.51821L2.07911 4.52828L2.06896 4.53835V4.55095L2.08925 4.56102H2.10701L2.11716 4.55346L2.13745 4.54339L2.1476 4.53332L2.16789 4.52325L2.18565 4.51317L2.19072 4.52325L2.1958 4.58368L2.20087 4.59375L2.23892 4.58368L2.24146 4.59627L2.23385 4.60383L2.22117 4.61894L2.23131 4.63656L2.24653 4.64412L2.26175 4.63404L2.27951 4.62145L2.28712 4.6139L2.29473 4.62145L2.29981 4.63908L2.29473 4.66426L2.28205 4.68189L2.2719 4.71463L2.25161 4.73477L2.24146 4.74484L2.22117 4.75492L2.20341 4.74484L2.19326 4.73477L2.18311 4.7247L2.17297 4.71966L2.15775 4.70707H2.14253L2.13238 4.72218L2.1197 4.73729L2.10701 4.74736L2.09687 4.75492L2.08672 4.76751V4.78765L2.09687 4.82039L2.10701 4.83046L2.11462 4.83802L2.12223 4.83046L2.13999 4.82039L2.16028 4.81032L2.18058 4.79772L2.19072 4.78765L2.20341 4.79521L2.2237 4.80528L2.23639 4.81535H2.32771L2.40381 4.80528L2.45708 4.79269L2.48499 4.78513L2.53319 4.79269H2.56363L2.67778 4.78262L2.72091 4.77506L2.72598 4.79269L2.70569 4.81535L2.68539 4.8355L2.65749 4.85816L2.63466 4.87831L2.62451 4.88082L2.61183 4.87831L2.57377 4.86823H2.56109L2.56363 4.8909L2.57124 4.90601V4.96392L2.56109 4.97651H2.5408L2.51036 4.96644H2.46723L2.44947 4.95637H2.43172L2.41396 4.96644L2.38605 4.97651L2.37083 4.98659L2.36069 4.97651H2.31503L2.29219 4.99666L2.23892 5.00673L2.20595 5.01177L2.19072 5.03191L2.18565 5.0571L2.20087 5.06969L2.20848 5.07472L2.24907 5.06969L2.26936 5.05961H2.29473L2.31249 5.06717L2.33025 5.06969L2.34293 5.05961L2.35308 5.03695L2.36322 5.00925L2.37337 5.00421H2.4165H2.46977L2.51543 4.99666L2.55602 4.99414L2.57377 4.98659L2.58392 4.97651L2.59661 4.96896V4.9891L2.60675 5.00925V5.02436L2.59661 5.0294L2.58899 5.03695L2.5687 5.04954L2.56616 5.0571L2.57885 5.0722L2.58646 5.08228L2.58899 5.09487L2.5687 5.10242L2.55855 5.11249L2.5408 5.11753L2.53572 5.1276L2.55348 5.14019L2.5687 5.14271L2.59153 5.12257L2.61183 5.10242L2.62197 5.08983L2.63212 5.0571L2.65241 5.04954L2.67017 5.03947L2.67778 5.02436L2.68793 4.98155L2.693 4.9463L2.70822 4.93622L2.71583 4.94378L2.73359 4.95889L2.75388 4.96644L2.7691 4.97148L2.78432 4.96392L2.78686 4.9463L2.79447 4.94126L2.8173 4.95637L2.84013 4.96644L2.85535 4.97903L2.8655 4.95133L2.88326 4.9463L2.89594 4.95637L2.90102 4.99414V5.01932L2.90863 5.03191L2.92131 5.0294L2.93399 5.01932L2.94414 5.02688L2.9619 5.03695L2.98473 5.04702L3.00502 5.0571L3.01517 5.06465L3.03039 5.06969L3.05322 5.04702L3.07351 5.02436L3.08874 5.00421H3.10903L3.12932 5.02436L3.15723 5.03695L3.17752 5.04702L3.19021 5.06213L3.19274 5.07724L3.18006 5.08983L3.17498 5.10242L3.1623 5.12257L3.17245 5.14271L3.19274 5.15278L3.2105 5.16538L3.21304 5.27617L3.24601 5.31898L3.27645 5.34165L3.3069 5.35927L3.32719 5.37186L3.33987 5.38194H3.35763L3.38554 5.38446L3.43627 5.39705L3.48954 5.39453L3.50223 5.41719L3.51491 5.43734L3.5352 5.45245H3.57325L3.62145 5.44237L3.66458 5.43482L3.66965 5.40964L3.68234 5.4046L3.72546 5.39453L3.76858 5.39201L3.79903 5.38697L3.81425 5.36431L3.832 5.34668L3.86244 5.34165L3.88528 5.33661L3.91572 5.33913L3.9284 5.3492L3.94869 5.35927L3.96899 5.37186V5.40712L3.98167 5.40208L3.99436 5.37942L4.01465 5.35172L4.02733 5.32402L4.01465 5.2938L4.00704 5.27869L4.01465 5.26107L4.03494 5.22833L4.04509 5.20818L4.05777 5.18048V5.06717L4.06538 4.99918L4.08061 4.9614L4.10344 4.94126L4.13641 4.92363L4.177 4.92867L4.22013 4.93371L4.29623 4.92867L4.34696 4.92615L4.40277 4.93874L4.48649 4.95889L4.50678 4.96896L4.53722 4.97903L4.54737 4.99162L4.5702 5.00421L4.61079 5.01932L4.64884 5.03947L4.68689 5.06465L4.7427 5.09235L4.77314 5.11501L4.80104 5.1276L4.82895 5.13768L4.86446 5.15027L4.90505 5.16034L4.92788 5.17797L4.94817 5.19811L4.96847 5.23085L4.99891 5.26107L5.0192 5.29128L5.0395 5.32402L5.05218 5.34416L5.06233 5.35676L5.07501 5.3769L5.10545 5.40712L5.1435 5.43986L5.18663 5.48015L5.212 5.49777H5.23229L5.25512 5.49022L5.27034 5.50533L5.29317 5.5154L5.30078 5.53303L5.32869 5.5431L5.35913 5.55065L5.38196 5.54562L5.40479 5.52295L5.42001 5.52044L5.43016 5.51036L5.45045 5.49777L5.46567 5.49022L5.48089 5.49525L5.53924 5.50784L5.55446 5.49777L5.5646 5.48266L5.57729 5.47007L5.59758 5.46L5.66354 5.45496H5.71681L5.74218 5.46L5.83096 5.44489L5.86648 5.42726L5.88424 5.42978L5.88677 5.44993L5.90199 5.45748L5.90707 5.42978L5.96034 5.38194L5.99078 5.36179L6.01107 5.3492L6.03644 5.33661L6.05166 5.34416L6.06181 5.35676L6.07449 5.36431L6.09986 5.3492L6.12015 5.33661L6.1303 5.27617L6.14045 5.25603L6.16835 5.22581L6.19879 5.19308L6.24192 5.15027L6.26982 5.12005L6.3028 5.08983L6.3307 5.08479L6.36115 5.04954L6.40427 5.00925L6.44739 4.974L6.49813 4.9614H6.52096L6.5514 4.97651L6.5717 4.99666L6.59199 5.00673L6.61228 5.02688L6.63511 5.03695L6.66302 5.04702L6.68585 5.05961L6.71629 5.06969L6.73912 5.07976L6.76703 5.0999L6.79747 5.12257L6.83298 5.14019L6.86089 5.15027L6.88879 5.16034L6.90655 5.14523L6.92938 5.13516L6.95475 5.14271L7.01055 5.14523L7.03592 5.12509L7.04607 5.10494L7.06383 5.06213L7.0689 5.0445L7.04353 5.03191V5.00673L7.07905 4.9891L7.145 4.98659L7.20335 4.92111L7.24901 4.87579L7.27184 4.8632L7.28706 4.88082L7.32004 4.90097L7.34287 4.91356L7.35048 4.93119L7.37331 4.96392L7.38599 4.99918L7.37838 5.06465L7.34033 5.13012L7.26423 5.19559L7.20081 5.24848L7.14754 5.31143L7.13739 5.33409V5.35424L7.19827 5.42726L7.20842 5.44741L7.2211 5.47763L7.23379 5.50281L7.24393 5.53806L7.24901 5.56073L7.23125 5.57835L7.2211 5.59346L7.20335 5.61864L7.18052 5.65138L7.18813 5.71937L7.14754 5.76722L7.13485 5.79995V5.82765L7.15261 5.85787L7.19066 5.89564L7.20588 5.92586L7.22618 5.97622L7.23632 6.02659V6.10717L7.22618 6.1399L7.19574 6.19278V6.29603L7.21603 6.35898L7.23632 6.44208L7.25408 6.5L7.21857 6.56547L7.18052 6.62339L7.07905 6.73671L7.04353 6.91549L7.00548 6.97593L6.93191 7.12198L6.83298 7.38135L6.75942 7.58029L6.67824 7.76663L6.61228 8.026L6.55901 8.2199L6.51081 8.36092L6.43471 8.54726L6.32817 8.70591L6.21655 8.8016L6.18865 8.83181L6.14298 8.86203L6.07703 8.89477L6.00093 8.91743L5.9299 8.93506L5.88424 8.94765L5.82843 8.94513L5.76247 8.93506L5.74725 8.96024L5.66861 8.96527L5.61788 8.98542L5.5849 8.99801L5.56968 8.9552L5.55446 8.9275L5.53924 8.91239L5.5088 8.94513L5.4885 8.96527L5.41747 8.96779L5.37181 8.99549L5.30078 8.99801L5.25258 8.99046L5.22975 8.97535L5.14604 8.88973L5.10545 8.88218L5.09531 8.84944L5.05218 8.85448L5.03442 8.83685L4.98369 8.80411L4.97101 8.79656L4.95325 8.79152L4.93042 8.77138L4.91266 8.74871L4.89998 8.72101L4.87968 8.68828L4.84924 8.67821L4.81373 8.67065L4.77568 8.70339L4.69704 8.71346L4.64123 8.72353L4.58796 8.71598L4.53468 8.68576L4.48395 8.66058L4.43068 8.6354L4.36979 8.62784L4.31906 8.62281L4.27847 8.63792C4.22774 8.65051 4.26579 8.64547 4.21505 8.65806L4.10597 8.70339L4.05016 8.71346L3.99689 8.72353L3.93601 8.71346L3.93347 8.75879L3.92333 8.78397L3.89796 8.80663L3.86498 8.83937L3.82947 8.85196L3.78888 8.84692L3.76858 8.82678L3.71278 8.85448L3.67219 8.8998L3.62145 8.95017L3.56564 8.98542L3.51998 9.01816L3.46925 9.05341L3.41344 9.08111L3.35509 9.11133L3.29168 9.13651L3.2587 9.15162L3.21557 9.15666L3.13947 9.15414L3.07605 9.11888L3.04307 9.09118L2.98727 9.04586L2.93146 9.03075L2.84267 9.00557L2.80716 8.97535L2.67778 8.98542L2.58392 8.96024L2.47738 8.94513L2.4723 8.92247L2.46216 8.88721L2.45708 8.85951L2.42157 8.87714L2.37844 8.88973L2.3201 8.8998L2.28205 8.89225L2.24907 8.88721L2.19834 8.86959L2.17297 8.82678L2.15014 8.78649L2.12223 8.76886L2.00047 8.76634L1.94466 8.72353L1.84573 8.72101L1.81782 8.69583L1.63264 8.68324L1.56161 8.66058L1.49819 8.64547L1.43985 8.62029L1.35867 8.60518L1.27749 8.59511L1.22169 8.61273L1.16334 8.63288L1.11768 8.65051L1.05933 8.66562L0.985768 8.67821L0.914739 8.67065L0.874151 8.65806L0.856393 8.62029V8.56237L0.688968 8.73864L0.694041 8.91491L0.775217 9.16925L0.724482 9.36314L0.584961 9.5923L0.716872 9.96498L0.683894 10.0179L0.767607 10.1992V14.9358H4.49663L4.59049 14.7998L4.61332 14.82L4.5499 14.9358H7.79695V14.9006L7.75129 14.8527L7.72338 14.8275L7.6904 14.8427L7.60669 14.7545L7.53566 14.7218L7.50522 14.6714L7.45702 14.6286L7.43419 14.6034L7.41643 14.5682L7.3936 14.538L7.35301 14.5279L7.31496 14.5178L7.2693 14.5077L7.23125 14.4826L7.18052 14.4498L7.14754 14.4121L7.13485 14.3768L7.0968 14.3491L7.06636 14.3264V14.2584L7.04607 14.2131L7.02577 14.1653L7.01055 14.1325L7.00294 14.1023L6.9928 14.0318L6.96743 13.9865L6.97504 13.9512V13.8329L6.95982 13.8027L6.96489 13.7548L6.9725 13.712L6.97758 13.6742L7.02577 13.6944L7.05622 13.707L7.08412 13.7145L7.10441 13.707L7.10949 13.6742L7.05622 13.6717L7.03338 13.644L6.9928 13.5962L6.95728 13.576L6.92684 13.5156L6.87357 13.4526L6.84059 13.4149L6.78986 13.362L6.76449 13.3318L6.77717 13.299L6.74673 13.2713L6.73151 13.2134L6.71122 13.1656L6.68585 13.1278L6.65795 13.0774L6.64019 13.0346L6.61736 12.9767L6.58692 12.9087L6.54886 12.8281L6.51842 12.7627L6.49559 12.7123L6.47276 12.6846L6.44993 12.6493L6.42964 12.5864L6.40681 12.5285L6.35353 12.4781L6.32056 12.4303L6.3028 12.3875L6.27997 12.3421L6.25206 12.2867L6.22923 12.2464L6.20894 12.2011L6.19626 12.1507L6.15313 12.0878L6.1303 12.0425L6.11001 11.9946L6.05166 11.9291L6.04151 11.8763L6.04912 11.8385L6.06181 11.8058L6.07196 11.7932L6.07449 11.7781L6.02629 11.7252L6.02376 11.6698L6.00854 11.6522L5.99078 11.6295L5.98317 11.6043L5.99332 11.5489L5.95526 11.5237L5.92736 11.5061L5.90453 11.4834L5.89185 11.4331L5.85887 11.3877L5.82589 11.3399L5.7853 11.2895L5.79545 11.2518V11.209L5.77516 11.1661L5.78784 11.1586L5.80306 11.1661L5.81828 11.1636L5.82335 11.1309L5.81828 11.1057L5.80052 11.0805L5.7574 11.0428L5.70413 11.0226L5.66861 10.9823L5.64324 10.942L5.60266 10.8942L5.56968 10.8539L5.53924 10.7985L5.49865 10.7255L5.45552 10.6801L5.42001 10.6726L5.40986 10.6373L5.40225 10.592L5.37435 10.519L5.33122 10.4862L5.30078 10.456L5.28556 10.4283L5.27034 10.3553L5.29571 10.3024L5.28556 10.2596L5.27542 10.2067L5.25766 10.1715L5.24751 10.1387L5.22975 10.1186L5.20692 10.0984L5.19678 10.0833L5.16633 10.0481L5.13589 10.0179L5.11053 9.9952L5.10545 9.95743L5.11814 9.90707L5.13843 9.88188L5.16126 9.85167L5.1917 9.8139V9.76353L5.20185 9.74087L5.23483 9.72828L5.25258 9.73835L5.28049 9.77612V9.82145L5.29317 9.84915L5.31093 9.87433L5.316 9.94484L5.33122 10.0279L5.35405 10.0859L5.39972 10.1136L5.40225 10.1564L5.41494 10.1866L5.4403 10.2395L5.47328 10.2495L5.50119 10.2848L5.54177 10.3377L5.60012 10.3754L5.6128 10.4208L5.60773 10.4988L5.62802 10.5341L5.62041 10.6096L5.65846 10.665L5.6813 10.7229L5.71681 10.7355L5.72442 10.7532L5.73457 10.7884L5.75486 10.801L5.80813 10.8337L5.82843 10.8539L5.86902 10.9168L5.91214 10.9848L5.95526 11.0402L6.00346 11.073L6.05927 11.1082L6.10493 11.146L6.14298 11.1838L6.16835 11.1964L6.21401 11.1989L6.23684 11.2266L6.24953 11.1913L6.28251 11.1233L6.31295 11.0931L6.34339 11.0679L6.34846 11.0352L6.35861 10.932L6.34339 10.9194V10.8136L6.36115 10.7582L6.38144 10.7381L6.40427 10.7179L6.41188 10.6877L6.42203 10.655L6.41949 10.6172L6.43725 10.5895L6.455 10.5693V10.4334L6.46515 10.4006L6.48798 10.3855L6.49559 10.2798L6.51842 10.242L6.5235 10.1589L6.54886 10.1438L6.5717 10.101L6.59706 10.0707L6.62243 10.0481L6.65541 10.0305L6.6478 10.1287L6.64272 10.1614L6.62497 10.2092L6.61228 10.2596L6.59706 10.3528L6.58184 10.4434L6.56662 10.5442L6.55901 10.6953L6.53872 10.7305L6.50828 10.8186L6.4753 10.8816L6.44993 10.9294L6.43217 10.9798L6.46515 11.0025L6.49813 10.9521L6.51335 10.9345L6.51842 10.9647L6.53364 10.9773L6.65541 10.9622H6.71629L6.74927 10.9773L6.79493 10.9949L6.81015 11.0302L6.84313 11.0805L6.87103 11.1208L6.8964 11.1611L6.93699 11.1938L6.96489 11.2618L6.9928 11.3223L7.02577 11.3877L7.07144 11.4507L7.12724 11.5061L7.15261 11.5539L7.14246 11.5942L7.15261 11.6194L7.19574 11.6597L7.24393 11.705L7.27438 11.7504L7.30228 11.8058L7.3454 11.8763L7.38853 11.909L7.41897 11.9342L7.45195 12.0047L7.47985 12.0802L7.50776 12.1382L7.5382 12.1759L7.55088 12.2338L7.56357 12.2515L7.60162 12.2691L7.65235 12.2968L7.67772 12.3169L7.68279 12.3673L7.67518 12.3975L7.64982 12.4328L7.67518 12.4857L7.70309 12.4957L7.73353 12.4857L7.74875 12.4957L7.77919 12.5285L7.82231 12.5662L7.85276 12.604L7.86544 12.6393L7.89588 12.6846V12.7098L7.86798 12.7123L7.85783 12.7249L7.89334 12.7425L7.92378 12.7727L7.94915 12.813L7.98974 12.8458L7.99989 12.8886V12.9515L8.02525 12.9968L8.02018 13.0321L7.99735 13.0774L7.97959 13.1202L7.99228 13.1681L8.02018 13.1807L8.03794 13.2033L8.07092 13.2461L8.10897 13.3066L8.12419 13.3292L8.1115 13.3519L8.10389 13.3972L8.11911 13.4199L8.14956 13.4501L8.18507 13.4652L8.22566 13.4677L8.2561 13.4375L8.27386 13.4451L8.3043 13.4778L8.33474 13.508L8.36264 13.5357L8.39308 13.5257L8.42099 13.5332L8.44889 13.5685L8.48948 13.576L8.51485 13.5962L8.55036 13.6289L8.57573 13.6566L8.61378 13.6591L8.64422 13.6843L8.6772 13.712L8.71271 13.7573L8.7254 13.7951L8.73555 13.8555L8.75076 13.9009L8.76345 13.9185L8.79389 13.9235L8.80404 13.9386L8.82179 13.9966L8.83701 14.0419L8.85224 14.0847L8.86746 14.1325L8.88268 14.1552L8.90804 14.1879L8.91565 14.2257L8.91312 14.2584L8.94356 14.2962L8.95624 14.3315L8.97654 14.3214L8.98922 14.329L9.00951 14.334L9.0222 14.3567L9.00698 14.3768L8.97654 14.3466L8.96893 14.3567L8.99937 14.3944L9.02981 14.4221L9.04503 14.4675L9.06025 14.5103L9.08054 14.5505L9.07801 14.6311L9.08815 14.6714V14.7117L9.06786 14.7747L9.05771 14.8427L9.04249 14.8829L9.02727 14.9258L8.99937 14.9308L9.01459 14.9988L9.02727 15.0089L9.05264 15.0164L9.06279 15.0416L9.09323 15.0844L9.09576 15.1322L9.10337 15.1927L9.12874 15.238L9.14396 15.2758V15.3035L9.11606 15.3337L9.0983 15.3538L9.11352 15.3916L9.12874 15.4319L9.15665 15.4747L9.18455 15.4949L9.18962 15.5251L9.19977 15.5628L9.2429 15.6082L9.28856 15.6661L9.33168 15.7265L9.37734 15.7945L9.41793 15.855L9.44837 15.8978L9.47881 15.928L9.52194 15.9582L9.56253 15.9985L9.60058 16.0111L9.62848 16.0086L9.664 15.9834H9.68683L9.70205 16.006L9.71727 16.0312L9.74771 16.0614L9.79591 16.0791L9.93543 16.1622L9.94304 16.1999L9.9608 16.2453L9.97602 16.2654L10.009 16.2956L10.0623 16.283L10.0927 16.3183L10.0952 16.3989L10.1358 16.4467L10.1866 16.4618L10.184 16.5323L10.2221 16.5827L10.2551 16.6356L10.2855 16.6683L10.3007 16.7187L10.3058 16.7741L10.3337 16.7791L10.3641 16.7867L10.4047 16.7892L10.4022 16.8119L10.3565 16.8144L10.3312 16.8018L10.2956 16.8043L10.3058 16.8521L10.3362 16.8597L10.3464 16.8824L10.3388 16.9126V16.9655L10.3667 17.0083L10.3844 17.036L10.425 17.041L10.4428 17.0637L10.4656 17.0838L10.4707 17.1392L10.4884 17.1896L10.5138 17.2525L10.5392 17.3054L10.5722 17.3608L10.6204 17.3935L10.6533 17.4464L10.7167 17.5069L10.7802 17.5497L10.8182 17.5774L10.8588 17.6076L10.8892 17.6378L10.9374 17.6882L10.9856 17.7461L10.9882 17.8141L11.0009 17.8619L11.0161 17.8947L11.0465 17.9022L11.0592 17.9249L11.0617 17.9601L11.0998 17.9904L11.1302 18.0105L11.1226 18.0231L11.1176 18.0735L11.1378 18.0961L11.1632 18.1163L11.2089 18.1591L11.2241 18.1868L11.2317 18.2271L11.2216 18.2648L11.2495 18.3127L11.2647 18.3278L11.2571 18.3706L11.2672 18.4487L11.2799 18.4889L11.2901 18.5343V18.6551L11.2824 18.6904L11.252 18.7483L11.2266 18.7861L11.2089 18.8113L11.2292 18.8591L11.2393 18.9095L11.252 18.9523L11.2723 19.0228L11.2799 19.0656L11.2748 19.0883L11.2647 19.0933L11.2419 19.0681L11.2266 19.0455L11.2114 19.0631L11.2013 19.0933L11.2216 19.1034L11.2647 19.116L11.2824 19.126L11.3154 19.1512L11.3205 19.2217L11.3332 19.2419L11.3509 19.2696L11.356 19.2998L11.3535 19.3577L11.3738 19.4106L11.3865 19.461L11.3991 19.539L11.3839 19.5642L11.4067 19.607L11.427 19.6549L11.4372 19.6977L11.4473 19.7707L11.4676 19.8236L11.5006 19.8714L11.5336 19.9117L11.5412 19.9621L11.5615 20.0099L11.564 20.0678L11.5513 20.1862L11.5488 20.3045L11.5742 20.3524L11.6046 20.4053L11.6351 20.4632L11.6655 20.506L11.6833 20.5513L11.6858 20.579L11.6782 20.6395L11.734 20.6092L11.7543 20.6017L11.7796 20.6067L11.8405 20.6294L11.9116 20.6596L11.9572 20.6923L12.0206 20.6747L12.0917 20.6571L12.1044 20.6697L12.1576 20.6596L12.1982 20.6495L12.2388 20.6395L12.2591 20.6143L12.2971 20.5765L12.3301 20.5639L12.3682 20.5614L12.3961 20.5765L12.4138 20.6017L12.4443 20.5966L12.457 20.5866L12.4849 20.5916L12.5077 20.5941L12.5229 20.5689L12.5432 20.5564L12.561 20.5412L12.5863 20.5513L12.6142 20.5538L12.6168 20.5337L12.6269 20.5035L12.6472 20.4733L12.6675 20.4405L12.7157 20.4304L12.7563 20.4179L12.8045 20.4027L12.8248 20.3776L12.8654 20.3373L12.9186 20.2693L12.9516 20.2265L13.015 20.2189L13.0962 20.2013L13.185 20.1887L13.256 20.1963L13.3169 20.1812L13.3677 20.1937L13.4793 20.1988L13.5325 20.1812L13.5681 20.1963L13.6239 20.1585L13.6746 20.1383L13.7558 20.1132L13.8217 20.093L13.8775 20.0829L13.9333 20.0678L13.9917 20.0527L14.0145 20.0351L14.0678 19.9873L14.1287 19.9344L14.1718 19.8966L14.2302 19.8815L14.2631 19.8639L14.291 19.8362L14.3291 19.8185L14.3722 19.8211L14.4153 19.8336L14.461 19.8639L14.5295 19.8563L14.5371 19.8336L14.5929 19.8236L14.6208 19.8387L14.6639 19.8085H14.7654L14.7984 19.7782L14.8339 19.7405L14.8593 19.7077L14.8872 19.675L14.9303 19.6523L14.9354 19.5995L14.9962 19.5189L15.0368 19.5164L15.0977 19.471L15.1408 19.4509L15.1992 19.4282L15.2474 19.4106L15.2981 19.3804L15.3489 19.3703L15.4173 19.3577L15.4808 19.33H15.5036L15.5467 19.3426L15.5975 19.335L15.6406 19.3275L15.6609 19.2973L15.7116 19.2771L15.7547 19.2595L15.8029 19.2268L15.841 19.2066L15.9171 19.1915L16.0312 19.1764L16.1454 19.1437L16.1885 19.126L16.2393 19.1135L16.2697 19.1059L16.3407 19.0933L16.3686 19.0732L16.3991 19.053L16.4422 19.0429L16.4955 19.0354L16.5005 19.0077L16.5208 18.9901L16.5741 18.9598H16.6198L16.635 18.9397L16.6502 18.9271L16.7491 18.8843L16.7973 18.8692L16.843 18.844L16.8303 18.8213L16.8227 18.7282L16.8075 18.7181V18.6778L16.7999 18.6224L16.8329 18.5292L16.8709 18.4688L16.9495 18.3933L17.0155 18.3479L17.0637 18.3253L17.2058 18.2749L17.363 18.2195L17.5508 18.1641L17.6928 18.1389L17.7436 18.086L17.845 18.0659L17.9034 18.0155L18.0327 17.9954L18.1494 17.9853L18.256 18.0181L18.3067 18.0432L18.4564 18.0281L18.5629 17.9299L18.606 17.8569L18.6137 17.7587L18.5832 17.7184L18.5781 17.6957L18.5908 17.668L18.6568 17.6026L18.7024 17.527L18.7151 17.5069L18.8293 17.4968L18.9282 17.4641L19.0703 17.4464L19.2352 17.4288L19.3113 17.3734L19.3569 17.3382L19.3823 17.2626L19.3975 17.2122L19.4127 17.0486L19.4939 16.9579L19.5523 16.9101L19.6892 16.8673L19.8262 16.827L20.0418 16.8194L20.118 16.7993L20.1281 16.764L20.1078 16.6356L20.09 16.5349L20.0444 16.4996L20.0469 16.4442L20.0698 16.3712L20.085 16.2654L20.1103 16.1798L20.118 16.0438L20.2067 15.9683L20.2245 15.9003L20.2625 15.8348L20.3234 15.8071L20.3894 15.8172L20.3742 15.8675L20.3539 15.933L20.534 15.9129L20.5593 15.8323L20.5771 15.7567L20.6354 15.7341L20.6634 15.6913L20.6811 15.5855L20.7141 15.5024L20.8333 15.3891L20.8917 15.3337L21.0033 15.2909L21.0312 15.2229L21.0819 15.1146L21.1377 15.0164L21.1859 14.9207L21.2646 14.815L21.2899 14.752L21.2975 14.6034L21.1758 14.5833L21.087 14.5556L20.9881 14.4498L20.9475 14.4045L20.9322 14.3189L20.8359 14.2056L20.7369 14.0771L20.5847 13.9034L20.4097 13.9185L20.3361 13.9034L20.2778 13.848L20.118 13.8228L19.9683 13.7976L19.8414 13.7473L19.745 13.707L19.6385 13.6289L19.5091 13.4753L19.4305 13.3771L19.3595 13.2764L19.3087 13.1555L19.2656 13.0472L19.2555 12.6443L19.2149 12.599V12.5536L19.2605 12.4554L19.2834 12.3044L19.3138 12.1659L19.2732 12.1281L19.2428 12.1759L19.2352 12.2338H19.1717L19.1261 12.2993L19.0779 12.4177L19.0449 12.4907L18.9967 12.5411L18.8927 12.609L18.8445 12.6569L18.7709 12.6745L18.6669 12.8105L18.5655 12.9339L18.5147 12.9893L18.4462 13.0573L18.3067 13.1454L18.2661 13.1907L18.2458 13.299L18.2306 13.3569L18.157 13.3469L18.1038 13.299L18.0683 13.3267L18.0657 13.367L18.1063 13.4048L18.1418 13.4426L18.1241 13.4627L18.0683 13.4501H17.9744L17.949 13.5005L17.916 13.5181L17.8881 13.5911L17.7334 13.6264L17.604 13.6213L17.4975 13.5886L17.2438 13.5785L16.9825 13.5886L16.8836 13.6667L16.8024 13.6793L16.6781 13.6692L16.5944 13.6893L16.5564 13.639L16.5665 13.5458L16.5361 13.4778L16.4523 13.4829H16.427L16.4194 13.4703L16.3915 13.4375L16.3407 13.44L16.2925 13.4451L16.2748 13.4249L16.2849 13.4123L16.2925 13.362L16.3306 13.3267L16.394 13.2789V13.2613L16.3559 13.2285L16.3839 13.1681L16.4498 13.0774L16.4904 12.9717L16.4701 12.8357L16.4143 12.8155L16.3991 12.6947L16.394 12.6367L16.4523 12.5637L16.4371 12.4227L16.3534 12.4051L16.3052 12.2943L16.2773 12.2842L16.1555 12.3346L16.1403 12.3749L16.0921 12.5587L16.0591 12.6569L15.9983 12.6871L15.9754 12.7123L15.9932 12.9742L16.0211 13.0623V13.1228L15.9932 13.163H15.978L15.9551 13.1026L15.9399 13.0774L15.9247 13.0548L15.8943 13.0019L15.8613 12.9641L15.8461 12.9213L15.8308 12.8709L15.8207 12.8483L15.8258 12.8105L15.8207 12.7752L15.8055 12.7375L15.7776 12.7073L15.7547 12.6896L15.7395 12.7022L15.7167 12.6796L15.6736 12.6216L15.6482 12.5914L15.6304 12.5536L15.6406 12.531V12.5033L15.6101 12.4731L15.5949 12.4479L15.5924 12.4126L15.5746 12.3698L15.5569 12.3371L15.534 12.3446L15.5112 12.3195L15.5087 12.2641L15.5188 12.2238L15.5416 12.2112L15.5696 12.2364L15.5772 12.2615L15.5975 12.2691L15.6152 12.2565L15.6228 12.2087L15.6406 12.1759V12.1105L15.633 12.0853V12.0349L15.5898 12.0475L15.5645 12.0299L15.5493 11.9997L15.5315 11.9694L15.5188 11.9342L15.5264 11.904L15.5619 11.8939V11.8712L15.5188 11.8133L15.4935 11.7932L15.4351 11.7856L15.4047 11.7655L15.359 11.7352L15.3159 11.705L15.3083 11.6622L15.2778 11.632L15.2601 11.5892L15.2525 11.5388L15.2322 11.5313L15.2169 11.5791L15.1967 11.6093L15.1789 11.5993L15.1586 11.5691L15.1307 11.5917L15.1205 11.5816L15.1079 11.5061L15.1028 11.4784L15.0444 11.4633L15.0318 11.4482L15.014 11.4306V11.4079L15.0571 11.3903L15.0876 11.3701L15.0749 11.3475L15.0318 11.3323L14.9607 11.3172L14.9328 11.3072L14.9125 11.282L14.8872 11.2946L14.8643 11.3122L14.844 11.2921L14.8263 11.2392L14.7958 11.2266V11.1938L14.8491 11.151L14.8212 11.1133L14.7553 11.0377L14.6969 10.9722L14.6868 10.9571L14.6969 10.932V10.9068L14.6766 10.8791L14.6386 10.8363L14.636 10.7985L14.6487 10.7557L14.6233 10.7204L14.5828 10.6827L14.4229 10.383L14.395 10.2521L14.3646 10.1413L14.3164 10.111L14.2479 10.1664L14.2048 10.1463V10.0733L14.3164 9.98765L14.3621 10.0028L14.4204 10.0103L14.494 9.93225L14.5269 9.84411L14.4179 9.69051L14.5016 9.74087L14.598 9.7585H14.6741C14.6868 9.75598 14.702 9.75094 14.7147 9.74842L14.7274 9.71317L14.8593 9.7031L14.8745 9.67036L14.8846 9.61748L14.877 9.58978L14.8593 9.55956L14.844 9.53438V9.51423L14.839 9.49157L14.844 9.46891L14.8593 9.4538L14.877 9.43869L14.8922 9.43617L14.9201 9.44121L14.9379 9.43617L14.9658 9.41854L14.9861 9.40595L14.9962 9.39588L15.0115 9.40343L15.0267 9.3984L15.0368 9.42862L15.0495 9.45128L15.0521 9.47143L15.0292 9.48402L15.0089 9.46891L14.9658 9.46639L14.91 9.46891L14.8973 9.47646L14.9125 9.49913L14.9278 9.51675L14.9404 9.52934L14.9734 9.54445L15.0064 9.56208L15.0394 9.57971L15.0546 9.59481L15.0724 9.62251L15.1028 9.62755L15.2119 9.61244L15.2296 9.62755L15.2398 9.64518L15.2296 9.6628V9.68799L15.2423 9.7031L15.255 9.71569L15.2778 9.7031L15.3083 9.68799L15.3387 9.67036L15.3869 9.64014L15.4326 9.60992L15.4706 9.58222L15.5137 9.57467L15.5467 9.57971L15.5721 9.60489L15.5898 9.63259L15.6025 9.66784L15.6127 9.70561L15.6076 9.7308L15.6127 9.75598L15.6254 9.7736L15.6406 9.80382L15.6609 9.83152L15.6761 9.85419L15.6964 9.8844L15.7192 9.91714L15.7471 9.94736L15.775 9.97506L15.8055 10.0002L15.8334 10.033L15.8461 10.0531L15.8638 10.0808L15.879 10.0959L15.8943 10.1136L15.9095 10.1538V10.179L15.9247 10.2244L15.9095 10.2697L15.9019 10.2949L15.912 10.3175H15.9399L15.9754 10.3049L16.0033 10.3175L16.0338 10.3352L16.049 10.3503L16.0591 10.3603L16.0642 10.3956L16.049 10.4132L16.0236 10.4107L16.0033 10.4157L15.9932 10.4384L16.0008 10.4711L16.0211 10.4988L16.0389 10.5165L16.0794 10.5089L16.1048 10.5039L16.115 10.5265L16.1276 10.5643L16.1302 10.5895L16.1454 10.6776V10.7129L16.1632 10.7481L16.1784 10.7859L16.1961 10.8212L16.2114 10.8388L16.2266 10.8564L16.2418 10.8866L16.257 10.9068L16.2722 10.9269L16.2748 10.9521L16.2697 10.9899V11.0025L16.2976 11.0125L16.3128 11.0428L16.3255 11.083L16.3357 11.1107L16.3509 11.1158L16.3788 11.1007L16.3915 11.1183L16.4067 11.1384L16.4397 11.151L16.4701 11.1712L16.5208 11.1687L16.6883 11.1712L16.7238 11.1813L16.7441 11.2014L16.7745 11.2316L16.8075 11.2618L16.8354 11.2795L16.8988 11.2971L16.9622 11.3097L16.9775 11.3273L16.9927 11.3449L17.0104 11.3701L17.0257 11.3877L17.0409 11.4029L17.0561 11.418L17.0789 11.423L17.0916 11.4381L17.0865 11.4532L17.0738 11.4708L17.0612 11.4759L17.0536 11.491L17.0485 11.5036L17.0789 11.5187L17.0941 11.5363L17.122 11.5539L17.1398 11.5691L17.155 11.5867L17.1829 11.6018L17.2058 11.6144L17.2362 11.6295L17.2666 11.6471L17.2971 11.6597L17.3301 11.6673L17.3478 11.6773L17.396 11.695L17.4442 11.7101L17.5076 11.7252L17.5431 11.7378L17.566 11.7579L17.5685 11.7856L17.5761 11.8007L17.5939 11.8284L17.6066 11.8435L17.6243 11.8586L17.6446 11.8687L17.6624 11.8863L17.6776 11.8989L17.6954 11.914L17.7156 11.9191H17.8247L17.8526 11.914L17.8653 11.8964L17.8831 11.8914L17.9008 11.8964L17.9186 11.9115L17.9465 11.914L18.0429 11.909L18.0708 11.914L18.0784 11.9317L18.0936 11.9568L18.0962 11.9745L18.1139 11.9871L18.1647 11.9921L18.1976 12.0047L18.2103 12.0198L18.2306 12.0374L18.2408 12.0576L18.3295 12.0525L18.4107 12.0374L18.4285 12.0223L18.4412 12.0022L18.4615 11.9921L18.4767 11.9745L18.5097 11.9594L18.5477 11.9367L18.5883 11.9266L18.606 11.909L18.6213 11.8788H18.6568L18.7456 11.8939L18.7988 11.8612L18.8115 11.7982L18.8242 11.7806L18.8445 11.768L18.8623 11.7554L18.88 11.7378L18.8952 11.7352L18.9612 11.7327L19.0398 11.7201L19.0677 11.7025L19.083 11.6874L19.1007 11.6748L19.121 11.6597L19.1489 11.6446L19.1692 11.6421L19.192 11.6446L19.2098 11.6421L19.2428 11.627L19.2757 11.6119L19.2986 11.5993L19.3316 11.6119L19.4102 11.6219L19.5446 11.637L19.5548 11.6597L19.57 11.695L19.5852 11.7227L19.6284 11.7201L19.6334 11.7327L19.6207 11.7403L19.6106 11.768L19.6284 11.7906L19.6461 11.8183L19.6588 11.8511L19.6816 11.8838L19.6892 11.9166L19.7045 11.972V12.0752V12.1205L19.7197 12.1759L19.7349 12.2137L19.7527 12.2439L19.7653 12.259L19.7831 12.2792L19.7882 12.2918L19.7806 12.3094L19.7755 12.3421L19.7806 12.3623L19.7958 12.3925L19.811 12.4177V12.4378L19.8262 12.4857L19.844 12.5159L19.8871 12.5335L19.9378 12.5486L19.9556 12.5637L20.0317 12.5612L20.0723 12.5511L20.1002 12.5612L20.1281 12.5939L20.1306 12.6065L20.118 12.6141L20.1256 12.6267L20.1611 12.609L20.1814 12.5889L20.2296 12.5864L20.2448 12.6116L20.2625 12.6418L20.293 12.6594L20.3082 12.6745L20.331 12.6796L20.3589 12.667L20.4173 12.6594L20.435 12.6468H20.4655L20.5949 12.6594L20.6532 12.6619L20.7395 12.677L20.7699 12.6921L20.7877 12.7047L20.8359 12.7526L20.8511 12.7677L20.8663 12.7853L20.9196 12.7828L20.9703 12.7324L20.9855 12.7249L20.9931 12.735L20.9957 12.7501L21.0185 12.7576L21.054 12.7526L21.087 12.74L21.1327 12.735L21.1504 12.7551L21.1783 12.7702L21.1986 12.7878L21.2265 12.7904L21.3331 12.7778L21.3407 12.8004L21.3635 12.8105L21.4421 12.8029L21.4574 12.7954L21.4776 12.8055L21.5132 12.8181L21.5461 12.8332L21.5614 12.8281L21.5766 12.7979L21.5918 12.7853L21.6045 12.7878L21.6096 12.8155L21.6273 12.8306H21.6552L21.6704 12.8155L21.6831 12.7979L21.6958 12.7778L21.7186 12.7677L21.7313 12.7551L21.7516 12.7526L21.7821 12.7702L21.7973 12.7878L21.8049 12.8583L21.8328 12.8609L21.8785 12.8634L21.9444 12.876L22.0104 12.8936L22.0712 12.9087L22.1194 12.9238L22.1321 12.9389L22.1397 12.9691L22.155 12.9717L22.2235 12.9843L22.264 12.9918L22.2945 12.9843L22.3148 12.9691L22.3224 12.949L22.3401 12.9163L22.3731 12.9087H22.4061L22.4391 12.604L22.4746 12.5562H22.538L22.5203 12.4957L22.5532 12.4655L22.5228 12.4026L22.5735 12.2112L22.6598 12.1684L22.7587 12.2187L22.812 12.0525L23.0657 11.9745L23.3396 11.9568L23.3726 11.6748L23.4157 11.6522L23.3295 11.559Z" fill="white"/>
</svg>
