<svg width="20" height="20" viewBox="0 0 20 20" fill="none" xmlns="http://www.w3.org/2000/svg">
<path d="M9.91377 17.1507C10.0861 17.1507 10.2153 17.1507 10.3876 17.1076C14.1784 16.8492 17.1507 13.7476 17.1507 9.91377C17.1507 5.95069 13.9199 2.71992 9.91377 2.71992C5.90762 2.71992 2.67685 5.90762 2.67685 9.91377C2.67685 13.7476 5.69223 16.8492 9.43993 17.1076C9.56916 17.1076 9.74146 17.1507 9.91377 17.1507ZM6.85531 12.7138C7.75992 12.4553 8.79377 12.283 9.87069 12.283C10.9476 12.283 11.9815 12.4122 12.8861 12.7138C12.3692 14.6092 11.3784 15.9876 10.2153 16.2461C10.0861 16.2461 9.99993 16.2461 9.87069 16.2461C9.74146 16.2461 9.65531 16.2461 9.52608 16.2461C8.40608 15.9876 7.37223 14.6092 6.85531 12.7138ZM6.51069 9.95685C6.51069 9.22454 6.59685 8.53531 6.683 7.88916C7.67377 8.14762 8.75069 8.31993 9.87069 8.31993C10.9907 8.31993 12.0676 8.14762 13.0584 7.88916C13.1876 8.53531 13.2307 9.22454 13.2307 9.95685C13.2307 10.6461 13.1876 11.2922 13.0584 11.8953C12.0676 11.5938 10.9907 11.4645 9.82762 11.4645C8.70762 11.4645 7.58762 11.6368 6.59685 11.8953C6.55377 11.2492 6.51069 10.603 6.51069 9.95685ZM9.91377 3.58146C11.2061 3.58146 12.3261 5.003 12.9292 7.02762C12.0245 7.28608 10.9907 7.41531 9.91377 7.41531C8.83685 7.41531 7.84608 7.28608 6.89839 7.02762C7.45839 5.003 8.62146 3.58146 9.91377 3.58146ZM12.4553 15.7292C13.0153 15.0399 13.4461 14.0922 13.7476 13.0153C14.1784 13.1876 14.523 13.3599 14.8676 13.6184C14.9107 13.6615 14.9538 13.6615 14.9968 13.7045C14.3507 14.5661 13.4892 15.2553 12.4553 15.7292ZM15.4707 12.9722C15.4276 12.9292 15.3845 12.9292 15.3415 12.8861C14.9107 12.6276 14.4368 12.3692 13.9199 12.1538C14.0492 11.4645 14.1353 10.7322 14.1353 9.95685C14.1353 9.13839 14.0492 8.363 13.9199 7.63069C14.4799 7.41531 14.9968 7.15685 15.4276 6.81223C15.9445 7.71685 16.2461 8.79377 16.2461 9.91377C16.2461 10.9907 15.9876 12.0676 15.4707 12.9722ZM14.9538 6.07992C14.6092 6.33839 14.1784 6.55377 13.7045 6.76916C13.403 5.69223 12.9292 4.74454 12.3692 4.05531C13.403 4.48608 14.3076 5.21839 14.9538 6.07992ZM7.41531 4.05531C6.85531 4.74454 6.38146 5.69223 6.07992 6.76916C5.60608 6.59685 5.17531 6.33839 4.83069 6.07992C5.47685 5.21839 6.38146 4.48608 7.41531 4.05531ZM4.35685 6.81223C4.78762 7.11377 5.30454 7.37223 5.86454 7.63069C5.73531 8.363 5.64916 9.13839 5.64916 9.95685C5.64916 10.7322 5.73531 11.4645 5.86454 12.1538C5.34762 12.3692 4.87377 12.5845 4.443 12.8861C4.39993 12.9292 4.35685 12.9292 4.31377 12.9722C3.79685 12.0676 3.53839 11.0338 3.53839 9.91377C3.53839 8.79377 3.83992 7.71685 4.35685 6.81223ZM4.78762 13.6615C4.83069 13.6184 4.87377 13.6184 4.91685 13.5753C5.26146 13.3599 5.64916 13.1445 6.03685 12.9722C6.33839 14.0492 6.76916 14.9968 7.32916 15.6861C6.33839 15.2553 5.43377 14.5661 4.78762 13.6615ZM16.3322 4.74454C17.0645 4.74454 17.6245 4.14146 17.6245 3.45223C17.6245 2.71992 17.0215 2.15992 16.3322 2.15992C15.5999 2.15992 15.0399 2.763 15.0399 3.45223C14.9968 4.18454 15.5999 4.74454 16.3322 4.74454ZM16.3322 3.02146C16.5907 3.02146 16.763 3.23685 16.763 3.45223C16.763 3.66762 16.5476 3.883 16.3322 3.883C16.1168 3.883 15.9015 3.66762 15.9015 3.45223C15.9015 3.23685 16.0738 3.02146 16.3322 3.02146ZM3.40916 15.083C2.67685 15.083 2.11685 15.6861 2.11685 16.3753C2.11685 17.0645 2.71992 17.6676 3.40916 17.6676C4.14146 17.6676 4.70146 17.0645 4.70146 16.3753C4.70146 15.6861 4.09839 15.083 3.40916 15.083ZM3.40916 16.8061C3.15069 16.8061 2.97839 16.5907 2.97839 16.3753C2.97839 16.1599 3.19377 15.9445 3.40916 15.9445C3.62454 15.9445 3.83992 16.1599 3.83992 16.3753C3.83992 16.5907 3.62454 16.8061 3.40916 16.8061ZM19.4768 9.91377C19.4768 15.2122 15.1692 19.5199 9.87069 19.5199C8.57839 19.5199 7.32916 19.2615 6.16608 18.7876C5.95069 18.7015 5.86454 18.443 5.95069 18.2276C6.03685 18.0122 6.29531 17.883 6.51069 18.0122C7.58762 18.443 8.70762 18.7015 9.87069 18.7015C14.6953 18.7015 18.6153 14.7815 18.6153 9.95685C18.6153 8.79377 18.3999 7.67377 17.9261 6.59685C17.8399 6.38146 17.9261 6.123 18.1415 6.03685C18.3568 5.95069 18.6153 6.03685 18.7015 6.25223C19.2184 7.37223 19.4768 8.62146 19.4768 9.91377ZM1.90146 13.3599C1.98762 13.5753 1.90146 13.8338 1.68608 13.9199C1.643 13.963 1.55685 13.963 1.51377 13.963C1.34146 13.963 1.16916 13.8768 1.12608 13.7045C0.566079 12.4984 0.307617 11.2061 0.307617 9.91377C0.307617 4.61531 4.61531 0.307617 9.91377 0.307617C11.2492 0.307617 12.4984 0.566079 13.7045 1.083C13.9199 1.16916 14.0061 1.42762 13.9199 1.643C13.8338 1.85839 13.5753 1.98762 13.3599 1.90146C12.283 1.42762 11.1199 1.16916 9.91377 1.16916C5.08916 1.16916 1.16916 5.08916 1.16916 9.91377C1.16916 11.1199 1.42762 12.283 1.90146 13.3599Z" fill="white"/>
</svg>
